G04 #@! TF.GenerationSoftware,KiCad,Pcbnew,7.0.1-0*
G04 #@! TF.CreationDate,2024-02-02T12:19:18+01:00*
G04 #@! TF.ProjectId,thermostat,74686572-6d6f-4737-9461-742e6b696361,rev?*
G04 #@! TF.SameCoordinates,Original*
G04 #@! TF.FileFunction,Copper,L1,Top*
G04 #@! TF.FilePolarity,Positive*
%FSLAX46Y46*%
G04 Gerber Fmt 4.6, Leading zero omitted, Abs format (unit mm)*
G04 Created by KiCad (PCBNEW 7.0.1-0) date 2024-02-02 12:19:18*
%MOMM*%
%LPD*%
G01*
G04 APERTURE LIST*
G04 #@! TA.AperFunction,ComponentPad*
%ADD10C,2.000000*%
G04 #@! TD*
G04 #@! TA.AperFunction,ComponentPad*
%ADD11R,1.700000X1.700000*%
G04 #@! TD*
G04 #@! TA.AperFunction,ComponentPad*
%ADD12O,1.700000X1.700000*%
G04 #@! TD*
G04 #@! TA.AperFunction,ComponentPad*
%ADD13R,3.000000X3.000000*%
G04 #@! TD*
G04 #@! TA.AperFunction,ComponentPad*
%ADD14C,3.000000*%
G04 #@! TD*
G04 #@! TA.AperFunction,SMDPad,CuDef*
%ADD15R,1.700000X3.500000*%
G04 #@! TD*
G04 #@! TA.AperFunction,SMDPad,CuDef*
%ADD16R,3.500000X1.700000*%
G04 #@! TD*
G04 #@! TA.AperFunction,Conductor*
%ADD17C,0.250000*%
G04 #@! TD*
G04 APERTURE END LIST*
D10*
X111050000Y-104430000D03*
X117550000Y-104430000D03*
X111050000Y-108930000D03*
X117550000Y-108930000D03*
D11*
X94680000Y-63500000D03*
D12*
X94680000Y-60960000D03*
X94680000Y-58420000D03*
X94680000Y-55880000D03*
D13*
X88900000Y-71120000D03*
D14*
X88900000Y-76200000D03*
D11*
X99060000Y-63500000D03*
D12*
X99060000Y-60960000D03*
X99060000Y-58420000D03*
X99060000Y-55880000D03*
D10*
X121210000Y-104430000D03*
X127710000Y-104430000D03*
X121210000Y-108930000D03*
X127710000Y-108930000D03*
X131370000Y-104430000D03*
X137870000Y-104430000D03*
X131370000Y-108930000D03*
X137870000Y-108930000D03*
D11*
X119370000Y-58420000D03*
D12*
X116830000Y-58420000D03*
X114290000Y-58420000D03*
X111750000Y-58420000D03*
D10*
X90730000Y-104430000D03*
X97230000Y-104430000D03*
X90730000Y-108930000D03*
X97230000Y-108930000D03*
X100890000Y-104430000D03*
X107390000Y-104430000D03*
X100890000Y-108930000D03*
X107390000Y-108930000D03*
X111050000Y-96810000D03*
X117550000Y-96810000D03*
X111050000Y-101310000D03*
X117550000Y-101310000D03*
D13*
X88900000Y-83820000D03*
D14*
X88900000Y-88900000D03*
X88900000Y-93980000D03*
X88900000Y-99060000D03*
D12*
X146050000Y-71120000D03*
D15*
X146050000Y-70220000D03*
D12*
X143510000Y-71120000D03*
D15*
X143510000Y-70220000D03*
D11*
X140970000Y-71120000D03*
D15*
X140970000Y-70220000D03*
D12*
X138430000Y-71120000D03*
D15*
X138430000Y-70220000D03*
D12*
X135890000Y-71120000D03*
D15*
X135890000Y-70220000D03*
D12*
X133350000Y-71120000D03*
D15*
X133350000Y-70220000D03*
D12*
X130810000Y-71120000D03*
D15*
X130810000Y-70220000D03*
D11*
X128270000Y-71120000D03*
D15*
X128270000Y-70220000D03*
D12*
X125730000Y-71120000D03*
D15*
X125730000Y-70220000D03*
D12*
X123190000Y-71120000D03*
D15*
X123190000Y-70220000D03*
D12*
X120650000Y-71120000D03*
D15*
X120650000Y-70220000D03*
D12*
X118110000Y-71120000D03*
D15*
X118110000Y-70220000D03*
D11*
X115570000Y-71120000D03*
D15*
X115570000Y-70220000D03*
D12*
X113030000Y-71120000D03*
D15*
X113030000Y-70220000D03*
D12*
X110490000Y-71120000D03*
D15*
X110490000Y-70220000D03*
D12*
X107950000Y-71120000D03*
D15*
X107950000Y-70220000D03*
D12*
X105410000Y-71120000D03*
D15*
X105410000Y-70220000D03*
D11*
X102870000Y-71120000D03*
D15*
X102870000Y-70220000D03*
D12*
X100330000Y-71120000D03*
D15*
X100330000Y-70220000D03*
D12*
X97790000Y-71120000D03*
D15*
X97790000Y-70220000D03*
D12*
X97790000Y-88900000D03*
D15*
X97790000Y-89800000D03*
D12*
X100330000Y-88900000D03*
D15*
X100330000Y-89800000D03*
D11*
X102870000Y-88900000D03*
D15*
X102870000Y-89800000D03*
D12*
X105410000Y-88900000D03*
D15*
X105410000Y-89800000D03*
D12*
X107950000Y-88900000D03*
D15*
X107950000Y-89800000D03*
D12*
X110490000Y-88900000D03*
D15*
X110490000Y-89800000D03*
D12*
X113030000Y-88900000D03*
D15*
X113030000Y-89800000D03*
D11*
X115570000Y-88900000D03*
D15*
X115570000Y-89800000D03*
D12*
X118110000Y-88900000D03*
D15*
X118110000Y-89800000D03*
D12*
X120650000Y-88900000D03*
D15*
X120650000Y-89800000D03*
D12*
X123190000Y-88900000D03*
D15*
X123190000Y-89800000D03*
D12*
X125730000Y-88900000D03*
D15*
X125730000Y-89800000D03*
D11*
X128270000Y-88900000D03*
D15*
X128270000Y-89800000D03*
D12*
X130810000Y-88900000D03*
D15*
X130810000Y-89800000D03*
D12*
X133350000Y-88900000D03*
D15*
X133350000Y-89800000D03*
D12*
X135890000Y-88900000D03*
D15*
X135890000Y-89800000D03*
D12*
X138430000Y-88900000D03*
D15*
X138430000Y-89800000D03*
D11*
X140970000Y-88900000D03*
D15*
X140970000Y-89800000D03*
D12*
X143510000Y-88900000D03*
D15*
X143510000Y-89800000D03*
D12*
X146050000Y-88900000D03*
D15*
X146050000Y-89800000D03*
D12*
X98020000Y-77470000D03*
D16*
X97120000Y-77470000D03*
D11*
X98020000Y-80010000D03*
D16*
X97120000Y-80010000D03*
D12*
X98020000Y-82550000D03*
D16*
X97120000Y-82550000D03*
D11*
X135215000Y-58420000D03*
D12*
X137755000Y-58420000D03*
X140295000Y-58420000D03*
D17*
X122256974Y-74854055D02*
X134626173Y-87223254D01*
X97230000Y-104430000D02*
X99560000Y-102100000D01*
X146050000Y-64961364D02*
X146010661Y-64922025D01*
X143008671Y-54875714D02*
X143008671Y-61032939D01*
X143008671Y-61032939D02*
X142986062Y-61055548D01*
X126915107Y-101684893D02*
X124170000Y-104430000D01*
X141385583Y-62956892D02*
X123684707Y-62956892D01*
X109510000Y-101310000D02*
X111050000Y-101310000D01*
X138297250Y-62097250D02*
X143961695Y-62097250D01*
X114290000Y-55890000D02*
X114290000Y-58420000D01*
X139700000Y-55880000D02*
X114300000Y-55880000D01*
X146050000Y-71120000D02*
X146050000Y-64961364D01*
X105264069Y-96395931D02*
X105264069Y-89045931D01*
X88222460Y-111082460D02*
X93980000Y-111082460D01*
X131370000Y-102004737D02*
X131370000Y-104430000D01*
X130557498Y-95402558D02*
X130810000Y-95150056D01*
X99060000Y-66040000D02*
X97790000Y-67310000D01*
X99060000Y-55880000D02*
X102485410Y-55880000D01*
X91440000Y-60960000D02*
X91440000Y-53886702D01*
X97066702Y-53886702D02*
X99060000Y-55880000D01*
X140390548Y-61055548D02*
X137755000Y-58420000D01*
X137160000Y-86360000D02*
X140970000Y-86360000D01*
X134772302Y-101332302D02*
X137870000Y-104430000D01*
X115300000Y-99060000D02*
X117550000Y-101310000D01*
X125730000Y-100499786D02*
X125730000Y-88900000D01*
X114300000Y-111082460D02*
X115397540Y-111082460D01*
X109220000Y-111082460D02*
X109220000Y-110760000D01*
X127710000Y-102479786D02*
X126915107Y-101684893D01*
X118110000Y-93917667D02*
X118110000Y-88900000D01*
X123419496Y-89129496D02*
X123190000Y-88900000D01*
X124170000Y-104430000D02*
X121210000Y-104430000D01*
X118610000Y-103370000D02*
X117550000Y-104430000D01*
X143350716Y-64922025D02*
X141385583Y-62956892D01*
X119380000Y-111082460D02*
X119380000Y-110760000D01*
X140555467Y-87223254D02*
X140970000Y-87637787D01*
X100330000Y-92710000D02*
X100330000Y-88900000D01*
X132042435Y-101332302D02*
X134772302Y-101332302D01*
X146010661Y-64922025D02*
X143350716Y-64922025D01*
X115397540Y-111082460D02*
X117550000Y-108930000D01*
X111750000Y-58420000D02*
X111750000Y-54875714D01*
X93980000Y-99060000D02*
X100330000Y-92710000D01*
X86360000Y-93980000D02*
X86360000Y-109220000D01*
X104140000Y-111082460D02*
X105237540Y-111082460D01*
X88900000Y-83820000D02*
X86360000Y-83820000D01*
X99060000Y-58420000D02*
X101600000Y-58420000D01*
X88900000Y-71120000D02*
X91440000Y-71120000D01*
X119380000Y-110760000D02*
X121210000Y-108930000D01*
X109220000Y-110760000D02*
X111050000Y-108930000D01*
X93060000Y-102100000D02*
X90730000Y-104430000D01*
X123684707Y-62956892D02*
X119370000Y-58642185D01*
X121920000Y-101600000D02*
X123419496Y-100100504D01*
X126915107Y-101684893D02*
X125730000Y-100499786D01*
X141284566Y-63712510D02*
X122122510Y-63712510D01*
X88577540Y-111082460D02*
X90730000Y-108930000D01*
X143961695Y-62097250D02*
X143961695Y-54188511D01*
X140970000Y-87637787D02*
X140970000Y-88900000D01*
X119370000Y-58642185D02*
X119370000Y-58420000D01*
X135215000Y-59015000D02*
X138297250Y-62097250D01*
X95077540Y-111082460D02*
X97230000Y-108930000D01*
X93980000Y-111082460D02*
X99060000Y-111082460D01*
X102485410Y-66493458D02*
X100330000Y-68648868D01*
X91440000Y-53886702D02*
X97066702Y-53886702D01*
X124460000Y-73660000D02*
X137160000Y-86360000D01*
X109220000Y-100053249D02*
X110213249Y-99060000D01*
X110490000Y-83820000D02*
X115570000Y-88900000D01*
X142986062Y-61055548D02*
X140390548Y-61055548D01*
X91440000Y-71120000D02*
X93980000Y-73660000D01*
X130557498Y-101192235D02*
X130557498Y-95402558D01*
X143510000Y-71120000D02*
X143510000Y-65937944D01*
X103720000Y-101600000D02*
X100890000Y-104430000D01*
X109220000Y-111082460D02*
X114300000Y-111082460D01*
X135215000Y-58420000D02*
X135215000Y-59015000D01*
X119380000Y-111082460D02*
X124460000Y-111082460D01*
X135717540Y-111082460D02*
X137870000Y-108930000D01*
X99560000Y-102100000D02*
X105264069Y-96395931D01*
X127710000Y-104430000D02*
X127710000Y-102479786D01*
X112985670Y-93250796D02*
X108470496Y-93250796D01*
X86360000Y-109220000D02*
X88222460Y-111082460D01*
X118240954Y-103000954D02*
X112479046Y-103000954D01*
X97790000Y-67310000D02*
X97790000Y-71120000D01*
X91440000Y-63500000D02*
X94680000Y-63500000D01*
X109220000Y-101600000D02*
X109510000Y-101310000D01*
X91876279Y-76200000D02*
X93222224Y-74854055D01*
X121920000Y-101600000D02*
X120380000Y-101600000D01*
X91440000Y-63500000D02*
X91440000Y-71120000D01*
X100330000Y-68648868D02*
X100330000Y-71120000D01*
X94680000Y-55880000D02*
X97220000Y-58420000D01*
X124460000Y-111082460D02*
X129540000Y-111082460D01*
X143510000Y-65937944D02*
X141284566Y-63712510D01*
X123419496Y-100100504D02*
X123419496Y-89129496D01*
X117550000Y-94477667D02*
X113382333Y-94477667D01*
X122122510Y-63712510D02*
X116830000Y-58420000D01*
X97220000Y-60960000D02*
X99060000Y-60960000D01*
X86360000Y-83820000D02*
X86360000Y-93980000D01*
X108470496Y-93250796D02*
X107390000Y-94331292D01*
X118610000Y-103370000D02*
X118240954Y-103000954D01*
X134626173Y-87223254D02*
X140555467Y-87223254D01*
X99560000Y-102100000D02*
X93060000Y-102100000D01*
X94680000Y-60960000D02*
X91440000Y-60960000D01*
X112985670Y-88944330D02*
X113030000Y-88900000D01*
X107390000Y-101600000D02*
X103720000Y-101600000D01*
X129540000Y-111082460D02*
X135717540Y-111082460D01*
X88900000Y-88900000D02*
X97790000Y-88900000D01*
X104140000Y-111082460D02*
X109220000Y-111082460D01*
X111750000Y-54875714D02*
X143008671Y-54875714D01*
X105264069Y-89045931D02*
X105410000Y-88900000D01*
X88900000Y-76200000D02*
X91876279Y-76200000D01*
X93980000Y-73660000D02*
X124460000Y-73660000D01*
X130810000Y-95150056D02*
X130810000Y-88900000D01*
X88900000Y-83820000D02*
X110490000Y-83820000D01*
X102485410Y-55880000D02*
X102485410Y-66493458D01*
X129540000Y-110760000D02*
X131370000Y-108930000D01*
X107390000Y-94331292D02*
X107390000Y-101600000D01*
X94680000Y-63500000D02*
X99060000Y-63500000D01*
X143961695Y-54188511D02*
X109428878Y-54188511D01*
X131370000Y-102004737D02*
X132042435Y-101332302D01*
X130557498Y-101192235D02*
X131370000Y-102004737D01*
X114300000Y-55880000D02*
X114290000Y-55890000D01*
X105237540Y-111082460D02*
X107390000Y-108930000D01*
X113382333Y-94477667D02*
X111050000Y-96810000D01*
X120380000Y-101600000D02*
X118610000Y-103370000D01*
X114300000Y-111082460D02*
X119380000Y-111082460D01*
X109220000Y-110760000D02*
X109220000Y-101600000D01*
X107950000Y-55667389D02*
X107950000Y-71120000D01*
X140295000Y-58420000D02*
X140295000Y-56475000D01*
X86360000Y-93980000D02*
X88900000Y-93980000D01*
X101600000Y-58420000D02*
X101600000Y-66040000D01*
X112479046Y-103000954D02*
X111050000Y-104430000D01*
X140295000Y-56475000D02*
X139700000Y-55880000D01*
X125557540Y-111082460D02*
X127710000Y-108930000D01*
X93222224Y-74854055D02*
X122256974Y-74854055D01*
X93980000Y-111082460D02*
X95077540Y-111082460D01*
X99060000Y-111082460D02*
X99060000Y-110760000D01*
X109428878Y-54188511D02*
X107950000Y-55667389D01*
X99060000Y-111082460D02*
X104140000Y-111082460D01*
X124460000Y-111082460D02*
X125557540Y-111082460D01*
X110213249Y-99060000D02*
X115300000Y-99060000D01*
X112985670Y-93250796D02*
X112985670Y-88944330D01*
X99060000Y-110760000D02*
X100890000Y-108930000D01*
X117550000Y-96810000D02*
X117550000Y-94477667D01*
X94680000Y-58420000D02*
X97220000Y-60960000D01*
X140970000Y-86360000D02*
X143510000Y-88900000D01*
X117550000Y-94477667D02*
X118110000Y-93917667D01*
X109220000Y-101600000D02*
X109220000Y-100053249D01*
X97220000Y-58420000D02*
X99060000Y-58420000D01*
X88222460Y-111082460D02*
X88577540Y-111082460D01*
X129540000Y-111082460D02*
X129540000Y-110760000D01*
X88900000Y-99060000D02*
X93980000Y-99060000D01*
X107390000Y-101600000D02*
X107390000Y-104430000D01*
X101600000Y-66040000D02*
X99060000Y-66040000D01*
M02*
