M48
; DRILL file {KiCad 7.0.1-0} date 2024 February 02, Friday 12:18:40
; FORMAT={-:-/ absolute / metric / decimal}
; #@! TF.CreationDate,2024-02-02T12:18:40+01:00
; #@! TF.GenerationSoftware,Kicad,Pcbnew,7.0.1-0
; #@! TF.FileFunction,Plated,1,2,PTH
FMAT,2
METRIC
; #@! TA.AperFunction,Plated,PTH,ComponentDrill
T1C1.000
; #@! TA.AperFunction,Plated,PTH,ComponentDrill
T2C1.020
; #@! TA.AperFunction,Plated,PTH,ComponentDrill
T3C1.100
; #@! TA.AperFunction,Plated,PTH,ComponentDrill
T4C1.520
%
G90
G05
T1
X94.68Y-55.88
X94.68Y-58.42
X94.68Y-60.96
X94.68Y-63.5
X99.06Y-55.88
X99.06Y-58.42
X99.06Y-60.96
X99.06Y-63.5
X111.75Y-58.42
X114.29Y-58.42
X116.83Y-58.42
X119.37Y-58.42
X135.215Y-58.42
X137.755Y-58.42
X140.295Y-58.42
T2
X97.79Y-71.12
X97.79Y-88.9
X98.02Y-77.47
X98.02Y-80.01
X98.02Y-82.55
X100.33Y-71.12
X100.33Y-88.9
X102.87Y-71.12
X102.87Y-88.9
X105.41Y-71.12
X105.41Y-88.9
X107.95Y-71.12
X107.95Y-88.9
X110.49Y-71.12
X110.49Y-88.9
X113.03Y-71.12
X113.03Y-88.9
X115.57Y-71.12
X115.57Y-88.9
X118.11Y-71.12
X118.11Y-88.9
X120.65Y-71.12
X120.65Y-88.9
X123.19Y-71.12
X123.19Y-88.9
X125.73Y-71.12
X125.73Y-88.9
X128.27Y-71.12
X128.27Y-88.9
X130.81Y-71.12
X130.81Y-88.9
X133.35Y-71.12
X133.35Y-88.9
X135.89Y-71.12
X135.89Y-88.9
X138.43Y-71.12
X138.43Y-88.9
X140.97Y-71.12
X140.97Y-88.9
X143.51Y-71.12
X143.51Y-88.9
X146.05Y-71.12
X146.05Y-88.9
T3
X90.73Y-104.43
X90.73Y-108.93
X97.23Y-104.43
X97.23Y-108.93
X100.89Y-104.43
X100.89Y-108.93
X107.39Y-104.43
X107.39Y-108.93
X111.05Y-96.81
X111.05Y-101.31
X111.05Y-104.43
X111.05Y-108.93
X117.55Y-96.81
X117.55Y-101.31
X117.55Y-104.43
X117.55Y-108.93
X121.21Y-104.43
X121.21Y-108.93
X127.71Y-104.43
X127.71Y-108.93
X131.37Y-104.43
X131.37Y-108.93
X137.87Y-104.43
X137.87Y-108.93
T4
X88.9Y-71.12
X88.9Y-76.2
X88.9Y-83.82
X88.9Y-88.9
X88.9Y-93.98
X88.9Y-99.06
T0
M30
