%TF.GenerationSoftware,KiCad,Pcbnew,7.0.1-0*%
%TF.CreationDate,2024-02-02T12:16:23+01:00*%
%TF.ProjectId,thermostat,74686572-6d6f-4737-9461-742e6b696361,rev?*%
%TF.SameCoordinates,Original*%
%TF.FileFunction,Legend,Top*%
%TF.FilePolarity,Positive*%
%FSLAX46Y46*%
G04 Gerber Fmt 4.6, Leading zero omitted, Abs format (unit mm)*
G04 Created by KiCad (PCBNEW 7.0.1-0) date 2024-02-02 12:16:23*
%MOMM*%
%LPD*%
G01*
G04 APERTURE LIST*
%ADD10C,0.150000*%
%ADD11C,0.120000*%
G04 APERTURE END LIST*
D10*
X88388095Y-58610476D02*
X88388095Y-59086666D01*
X88102380Y-58515238D02*
X89102380Y-58848571D01*
X89102380Y-58848571D02*
X88102380Y-59181904D01*
X88150000Y-59562857D02*
X88102380Y-59562857D01*
X88102380Y-59562857D02*
X88007142Y-59515238D01*
X88007142Y-59515238D02*
X87959523Y-59467619D01*
X88102380Y-60467618D02*
X88102380Y-59991428D01*
X88102380Y-59991428D02*
X89102380Y-59991428D01*
X88150000Y-60848571D02*
X88102380Y-60848571D01*
X88102380Y-60848571D02*
X88007142Y-60800952D01*
X88007142Y-60800952D02*
X87959523Y-60753333D01*
X89054761Y-61800951D02*
X89102380Y-61705713D01*
X89102380Y-61705713D02*
X89102380Y-61562856D01*
X89102380Y-61562856D02*
X89054761Y-61419999D01*
X89054761Y-61419999D02*
X88959523Y-61324761D01*
X88959523Y-61324761D02*
X88864285Y-61277142D01*
X88864285Y-61277142D02*
X88673809Y-61229523D01*
X88673809Y-61229523D02*
X88530952Y-61229523D01*
X88530952Y-61229523D02*
X88340476Y-61277142D01*
X88340476Y-61277142D02*
X88245238Y-61324761D01*
X88245238Y-61324761D02*
X88150000Y-61419999D01*
X88150000Y-61419999D02*
X88102380Y-61562856D01*
X88102380Y-61562856D02*
X88102380Y-61658094D01*
X88102380Y-61658094D02*
X88150000Y-61800951D01*
X88150000Y-61800951D02*
X88197619Y-61848570D01*
X88197619Y-61848570D02*
X88530952Y-61848570D01*
X88530952Y-61848570D02*
X88530952Y-61658094D01*
X88150000Y-62324761D02*
X88102380Y-62324761D01*
X88102380Y-62324761D02*
X88007142Y-62277142D01*
X88007142Y-62277142D02*
X87959523Y-62229523D01*
X89102380Y-62610475D02*
X88102380Y-62943808D01*
X88102380Y-62943808D02*
X89102380Y-63277141D01*
X86482380Y-59134285D02*
X86482380Y-58658095D01*
X86482380Y-58658095D02*
X87482380Y-58658095D01*
X86530000Y-59515238D02*
X86482380Y-59515238D01*
X86482380Y-59515238D02*
X86387142Y-59467619D01*
X86387142Y-59467619D02*
X86339523Y-59420000D01*
X87434761Y-60467618D02*
X87482380Y-60372380D01*
X87482380Y-60372380D02*
X87482380Y-60229523D01*
X87482380Y-60229523D02*
X87434761Y-60086666D01*
X87434761Y-60086666D02*
X87339523Y-59991428D01*
X87339523Y-59991428D02*
X87244285Y-59943809D01*
X87244285Y-59943809D02*
X87053809Y-59896190D01*
X87053809Y-59896190D02*
X86910952Y-59896190D01*
X86910952Y-59896190D02*
X86720476Y-59943809D01*
X86720476Y-59943809D02*
X86625238Y-59991428D01*
X86625238Y-59991428D02*
X86530000Y-60086666D01*
X86530000Y-60086666D02*
X86482380Y-60229523D01*
X86482380Y-60229523D02*
X86482380Y-60324761D01*
X86482380Y-60324761D02*
X86530000Y-60467618D01*
X86530000Y-60467618D02*
X86577619Y-60515237D01*
X86577619Y-60515237D02*
X86910952Y-60515237D01*
X86910952Y-60515237D02*
X86910952Y-60324761D01*
X86530000Y-60991428D02*
X86482380Y-60991428D01*
X86482380Y-60991428D02*
X86387142Y-60943809D01*
X86387142Y-60943809D02*
X86339523Y-60896190D01*
X86768095Y-61372380D02*
X86768095Y-61848570D01*
X86482380Y-61277142D02*
X87482380Y-61610475D01*
X87482380Y-61610475D02*
X86482380Y-61943808D01*
X86530000Y-62324761D02*
X86482380Y-62324761D01*
X86482380Y-62324761D02*
X86387142Y-62277142D01*
X86387142Y-62277142D02*
X86339523Y-62229523D01*
X87482380Y-62610475D02*
X86482380Y-62943808D01*
X86482380Y-62943808D02*
X87482380Y-63277141D01*
X104378095Y-55757619D02*
X104378095Y-54757619D01*
X104378095Y-54757619D02*
X104759047Y-54757619D01*
X104759047Y-54757619D02*
X104854285Y-54805238D01*
X104854285Y-54805238D02*
X104901904Y-54852857D01*
X104901904Y-54852857D02*
X104949523Y-54948095D01*
X104949523Y-54948095D02*
X104949523Y-55090952D01*
X104949523Y-55090952D02*
X104901904Y-55186190D01*
X104901904Y-55186190D02*
X104854285Y-55233809D01*
X104854285Y-55233809D02*
X104759047Y-55281428D01*
X104759047Y-55281428D02*
X104378095Y-55281428D01*
X105378095Y-55757619D02*
X105378095Y-55090952D01*
X105378095Y-54757619D02*
X105330476Y-54805238D01*
X105330476Y-54805238D02*
X105378095Y-54852857D01*
X105378095Y-54852857D02*
X105425714Y-54805238D01*
X105425714Y-54805238D02*
X105378095Y-54757619D01*
X105378095Y-54757619D02*
X105378095Y-54852857D01*
X106282856Y-55710000D02*
X106187618Y-55757619D01*
X106187618Y-55757619D02*
X105997142Y-55757619D01*
X105997142Y-55757619D02*
X105901904Y-55710000D01*
X105901904Y-55710000D02*
X105854285Y-55662380D01*
X105854285Y-55662380D02*
X105806666Y-55567142D01*
X105806666Y-55567142D02*
X105806666Y-55281428D01*
X105806666Y-55281428D02*
X105854285Y-55186190D01*
X105854285Y-55186190D02*
X105901904Y-55138571D01*
X105901904Y-55138571D02*
X105997142Y-55090952D01*
X105997142Y-55090952D02*
X106187618Y-55090952D01*
X106187618Y-55090952D02*
X106282856Y-55138571D01*
X106854285Y-55757619D02*
X106759047Y-55710000D01*
X106759047Y-55710000D02*
X106711428Y-55662380D01*
X106711428Y-55662380D02*
X106663809Y-55567142D01*
X106663809Y-55567142D02*
X106663809Y-55281428D01*
X106663809Y-55281428D02*
X106711428Y-55186190D01*
X106711428Y-55186190D02*
X106759047Y-55138571D01*
X106759047Y-55138571D02*
X106854285Y-55090952D01*
X106854285Y-55090952D02*
X106997142Y-55090952D01*
X106997142Y-55090952D02*
X107092380Y-55138571D01*
X107092380Y-55138571D02*
X107139999Y-55186190D01*
X107139999Y-55186190D02*
X107187618Y-55281428D01*
X107187618Y-55281428D02*
X107187618Y-55567142D01*
X107187618Y-55567142D02*
X107139999Y-55662380D01*
X107139999Y-55662380D02*
X107092380Y-55710000D01*
X107092380Y-55710000D02*
X106997142Y-55757619D01*
X106997142Y-55757619D02*
X106854285Y-55757619D01*
X108235238Y-55090952D02*
X108616190Y-55090952D01*
X108378095Y-54757619D02*
X108378095Y-55614761D01*
X108378095Y-55614761D02*
X108425714Y-55710000D01*
X108425714Y-55710000D02*
X108520952Y-55757619D01*
X108520952Y-55757619D02*
X108616190Y-55757619D01*
X108949524Y-55757619D02*
X108949524Y-54757619D01*
X109378095Y-55757619D02*
X109378095Y-55233809D01*
X109378095Y-55233809D02*
X109330476Y-55138571D01*
X109330476Y-55138571D02*
X109235238Y-55090952D01*
X109235238Y-55090952D02*
X109092381Y-55090952D01*
X109092381Y-55090952D02*
X108997143Y-55138571D01*
X108997143Y-55138571D02*
X108949524Y-55186190D01*
X110235238Y-55710000D02*
X110140000Y-55757619D01*
X110140000Y-55757619D02*
X109949524Y-55757619D01*
X109949524Y-55757619D02*
X109854286Y-55710000D01*
X109854286Y-55710000D02*
X109806667Y-55614761D01*
X109806667Y-55614761D02*
X109806667Y-55233809D01*
X109806667Y-55233809D02*
X109854286Y-55138571D01*
X109854286Y-55138571D02*
X109949524Y-55090952D01*
X109949524Y-55090952D02*
X110140000Y-55090952D01*
X110140000Y-55090952D02*
X110235238Y-55138571D01*
X110235238Y-55138571D02*
X110282857Y-55233809D01*
X110282857Y-55233809D02*
X110282857Y-55329047D01*
X110282857Y-55329047D02*
X109806667Y-55424285D01*
X110711429Y-55757619D02*
X110711429Y-55090952D01*
X110711429Y-55281428D02*
X110759048Y-55186190D01*
X110759048Y-55186190D02*
X110806667Y-55138571D01*
X110806667Y-55138571D02*
X110901905Y-55090952D01*
X110901905Y-55090952D02*
X110997143Y-55090952D01*
X111330477Y-55757619D02*
X111330477Y-55090952D01*
X111330477Y-55186190D02*
X111378096Y-55138571D01*
X111378096Y-55138571D02*
X111473334Y-55090952D01*
X111473334Y-55090952D02*
X111616191Y-55090952D01*
X111616191Y-55090952D02*
X111711429Y-55138571D01*
X111711429Y-55138571D02*
X111759048Y-55233809D01*
X111759048Y-55233809D02*
X111759048Y-55757619D01*
X111759048Y-55233809D02*
X111806667Y-55138571D01*
X111806667Y-55138571D02*
X111901905Y-55090952D01*
X111901905Y-55090952D02*
X112044762Y-55090952D01*
X112044762Y-55090952D02*
X112140001Y-55138571D01*
X112140001Y-55138571D02*
X112187620Y-55233809D01*
X112187620Y-55233809D02*
X112187620Y-55757619D01*
X112806667Y-55757619D02*
X112711429Y-55710000D01*
X112711429Y-55710000D02*
X112663810Y-55662380D01*
X112663810Y-55662380D02*
X112616191Y-55567142D01*
X112616191Y-55567142D02*
X112616191Y-55281428D01*
X112616191Y-55281428D02*
X112663810Y-55186190D01*
X112663810Y-55186190D02*
X112711429Y-55138571D01*
X112711429Y-55138571D02*
X112806667Y-55090952D01*
X112806667Y-55090952D02*
X112949524Y-55090952D01*
X112949524Y-55090952D02*
X113044762Y-55138571D01*
X113044762Y-55138571D02*
X113092381Y-55186190D01*
X113092381Y-55186190D02*
X113140000Y-55281428D01*
X113140000Y-55281428D02*
X113140000Y-55567142D01*
X113140000Y-55567142D02*
X113092381Y-55662380D01*
X113092381Y-55662380D02*
X113044762Y-55710000D01*
X113044762Y-55710000D02*
X112949524Y-55757619D01*
X112949524Y-55757619D02*
X112806667Y-55757619D01*
X113520953Y-55710000D02*
X113616191Y-55757619D01*
X113616191Y-55757619D02*
X113806667Y-55757619D01*
X113806667Y-55757619D02*
X113901905Y-55710000D01*
X113901905Y-55710000D02*
X113949524Y-55614761D01*
X113949524Y-55614761D02*
X113949524Y-55567142D01*
X113949524Y-55567142D02*
X113901905Y-55471904D01*
X113901905Y-55471904D02*
X113806667Y-55424285D01*
X113806667Y-55424285D02*
X113663810Y-55424285D01*
X113663810Y-55424285D02*
X113568572Y-55376666D01*
X113568572Y-55376666D02*
X113520953Y-55281428D01*
X113520953Y-55281428D02*
X113520953Y-55233809D01*
X113520953Y-55233809D02*
X113568572Y-55138571D01*
X113568572Y-55138571D02*
X113663810Y-55090952D01*
X113663810Y-55090952D02*
X113806667Y-55090952D01*
X113806667Y-55090952D02*
X113901905Y-55138571D01*
X114235239Y-55090952D02*
X114616191Y-55090952D01*
X114378096Y-54757619D02*
X114378096Y-55614761D01*
X114378096Y-55614761D02*
X114425715Y-55710000D01*
X114425715Y-55710000D02*
X114520953Y-55757619D01*
X114520953Y-55757619D02*
X114616191Y-55757619D01*
X115378096Y-55757619D02*
X115378096Y-55233809D01*
X115378096Y-55233809D02*
X115330477Y-55138571D01*
X115330477Y-55138571D02*
X115235239Y-55090952D01*
X115235239Y-55090952D02*
X115044763Y-55090952D01*
X115044763Y-55090952D02*
X114949525Y-55138571D01*
X115378096Y-55710000D02*
X115282858Y-55757619D01*
X115282858Y-55757619D02*
X115044763Y-55757619D01*
X115044763Y-55757619D02*
X114949525Y-55710000D01*
X114949525Y-55710000D02*
X114901906Y-55614761D01*
X114901906Y-55614761D02*
X114901906Y-55519523D01*
X114901906Y-55519523D02*
X114949525Y-55424285D01*
X114949525Y-55424285D02*
X115044763Y-55376666D01*
X115044763Y-55376666D02*
X115282858Y-55376666D01*
X115282858Y-55376666D02*
X115378096Y-55329047D01*
X115711430Y-55090952D02*
X116092382Y-55090952D01*
X115854287Y-54757619D02*
X115854287Y-55614761D01*
X115854287Y-55614761D02*
X115901906Y-55710000D01*
X115901906Y-55710000D02*
X115997144Y-55757619D01*
X115997144Y-55757619D02*
X116092382Y-55757619D01*
X117187621Y-55376666D02*
X117949526Y-55376666D01*
X119092383Y-55090952D02*
X119282859Y-55757619D01*
X119282859Y-55757619D02*
X119473335Y-55281428D01*
X119473335Y-55281428D02*
X119663811Y-55757619D01*
X119663811Y-55757619D02*
X119854287Y-55090952D01*
X120235240Y-55757619D02*
X120235240Y-55090952D01*
X120235240Y-54757619D02*
X120187621Y-54805238D01*
X120187621Y-54805238D02*
X120235240Y-54852857D01*
X120235240Y-54852857D02*
X120282859Y-54805238D01*
X120282859Y-54805238D02*
X120235240Y-54757619D01*
X120235240Y-54757619D02*
X120235240Y-54852857D01*
X120854287Y-55757619D02*
X120759049Y-55710000D01*
X120759049Y-55710000D02*
X120711430Y-55614761D01*
X120711430Y-55614761D02*
X120711430Y-54757619D01*
X121378097Y-55757619D02*
X121282859Y-55710000D01*
X121282859Y-55710000D02*
X121235240Y-55614761D01*
X121235240Y-55614761D02*
X121235240Y-54757619D01*
X121759050Y-55757619D02*
X121759050Y-55090952D01*
X121759050Y-54757619D02*
X121711431Y-54805238D01*
X121711431Y-54805238D02*
X121759050Y-54852857D01*
X121759050Y-54852857D02*
X121806669Y-54805238D01*
X121806669Y-54805238D02*
X121759050Y-54757619D01*
X121759050Y-54757619D02*
X121759050Y-54852857D01*
X122663811Y-55757619D02*
X122663811Y-55233809D01*
X122663811Y-55233809D02*
X122616192Y-55138571D01*
X122616192Y-55138571D02*
X122520954Y-55090952D01*
X122520954Y-55090952D02*
X122330478Y-55090952D01*
X122330478Y-55090952D02*
X122235240Y-55138571D01*
X122663811Y-55710000D02*
X122568573Y-55757619D01*
X122568573Y-55757619D02*
X122330478Y-55757619D01*
X122330478Y-55757619D02*
X122235240Y-55710000D01*
X122235240Y-55710000D02*
X122187621Y-55614761D01*
X122187621Y-55614761D02*
X122187621Y-55519523D01*
X122187621Y-55519523D02*
X122235240Y-55424285D01*
X122235240Y-55424285D02*
X122330478Y-55376666D01*
X122330478Y-55376666D02*
X122568573Y-55376666D01*
X122568573Y-55376666D02*
X122663811Y-55329047D01*
X123140002Y-55757619D02*
X123140002Y-55090952D01*
X123140002Y-55186190D02*
X123187621Y-55138571D01*
X123187621Y-55138571D02*
X123282859Y-55090952D01*
X123282859Y-55090952D02*
X123425716Y-55090952D01*
X123425716Y-55090952D02*
X123520954Y-55138571D01*
X123520954Y-55138571D02*
X123568573Y-55233809D01*
X123568573Y-55233809D02*
X123568573Y-55757619D01*
X123568573Y-55233809D02*
X123616192Y-55138571D01*
X123616192Y-55138571D02*
X123711430Y-55090952D01*
X123711430Y-55090952D02*
X123854287Y-55090952D01*
X123854287Y-55090952D02*
X123949526Y-55138571D01*
X123949526Y-55138571D02*
X123997145Y-55233809D01*
X123997145Y-55233809D02*
X123997145Y-55757619D01*
X124473335Y-55376666D02*
X125235240Y-55376666D01*
X125663811Y-55710000D02*
X125759049Y-55757619D01*
X125759049Y-55757619D02*
X125949525Y-55757619D01*
X125949525Y-55757619D02*
X126044763Y-55710000D01*
X126044763Y-55710000D02*
X126092382Y-55614761D01*
X126092382Y-55614761D02*
X126092382Y-55567142D01*
X126092382Y-55567142D02*
X126044763Y-55471904D01*
X126044763Y-55471904D02*
X125949525Y-55424285D01*
X125949525Y-55424285D02*
X125806668Y-55424285D01*
X125806668Y-55424285D02*
X125711430Y-55376666D01*
X125711430Y-55376666D02*
X125663811Y-55281428D01*
X125663811Y-55281428D02*
X125663811Y-55233809D01*
X125663811Y-55233809D02*
X125711430Y-55138571D01*
X125711430Y-55138571D02*
X125806668Y-55090952D01*
X125806668Y-55090952D02*
X125949525Y-55090952D01*
X125949525Y-55090952D02*
X126044763Y-55138571D01*
X126425716Y-55090952D02*
X126663811Y-55757619D01*
X126901906Y-55090952D02*
X126663811Y-55757619D01*
X126663811Y-55757619D02*
X126568573Y-55995714D01*
X126568573Y-55995714D02*
X126520954Y-56043333D01*
X126520954Y-56043333D02*
X126425716Y-56090952D01*
X128044764Y-55376666D02*
X128806669Y-55376666D01*
X129997145Y-54852857D02*
X130044764Y-54805238D01*
X130044764Y-54805238D02*
X130140002Y-54757619D01*
X130140002Y-54757619D02*
X130378097Y-54757619D01*
X130378097Y-54757619D02*
X130473335Y-54805238D01*
X130473335Y-54805238D02*
X130520954Y-54852857D01*
X130520954Y-54852857D02*
X130568573Y-54948095D01*
X130568573Y-54948095D02*
X130568573Y-55043333D01*
X130568573Y-55043333D02*
X130520954Y-55186190D01*
X130520954Y-55186190D02*
X129949526Y-55757619D01*
X129949526Y-55757619D02*
X130568573Y-55757619D01*
X131187621Y-54757619D02*
X131282859Y-54757619D01*
X131282859Y-54757619D02*
X131378097Y-54805238D01*
X131378097Y-54805238D02*
X131425716Y-54852857D01*
X131425716Y-54852857D02*
X131473335Y-54948095D01*
X131473335Y-54948095D02*
X131520954Y-55138571D01*
X131520954Y-55138571D02*
X131520954Y-55376666D01*
X131520954Y-55376666D02*
X131473335Y-55567142D01*
X131473335Y-55567142D02*
X131425716Y-55662380D01*
X131425716Y-55662380D02*
X131378097Y-55710000D01*
X131378097Y-55710000D02*
X131282859Y-55757619D01*
X131282859Y-55757619D02*
X131187621Y-55757619D01*
X131187621Y-55757619D02*
X131092383Y-55710000D01*
X131092383Y-55710000D02*
X131044764Y-55662380D01*
X131044764Y-55662380D02*
X130997145Y-55567142D01*
X130997145Y-55567142D02*
X130949526Y-55376666D01*
X130949526Y-55376666D02*
X130949526Y-55138571D01*
X130949526Y-55138571D02*
X130997145Y-54948095D01*
X130997145Y-54948095D02*
X131044764Y-54852857D01*
X131044764Y-54852857D02*
X131092383Y-54805238D01*
X131092383Y-54805238D02*
X131187621Y-54757619D01*
X131901907Y-54852857D02*
X131949526Y-54805238D01*
X131949526Y-54805238D02*
X132044764Y-54757619D01*
X132044764Y-54757619D02*
X132282859Y-54757619D01*
X132282859Y-54757619D02*
X132378097Y-54805238D01*
X132378097Y-54805238D02*
X132425716Y-54852857D01*
X132425716Y-54852857D02*
X132473335Y-54948095D01*
X132473335Y-54948095D02*
X132473335Y-55043333D01*
X132473335Y-55043333D02*
X132425716Y-55186190D01*
X132425716Y-55186190D02*
X131854288Y-55757619D01*
X131854288Y-55757619D02*
X132473335Y-55757619D01*
X133330478Y-55090952D02*
X133330478Y-55757619D01*
X133092383Y-54710000D02*
X132854288Y-55424285D01*
X132854288Y-55424285D02*
X133473335Y-55424285D01*
X134044764Y-54757619D02*
X134140002Y-54757619D01*
X134140002Y-54757619D02*
X134235240Y-54805238D01*
X134235240Y-54805238D02*
X134282859Y-54852857D01*
X134282859Y-54852857D02*
X134330478Y-54948095D01*
X134330478Y-54948095D02*
X134378097Y-55138571D01*
X134378097Y-55138571D02*
X134378097Y-55376666D01*
X134378097Y-55376666D02*
X134330478Y-55567142D01*
X134330478Y-55567142D02*
X134282859Y-55662380D01*
X134282859Y-55662380D02*
X134235240Y-55710000D01*
X134235240Y-55710000D02*
X134140002Y-55757619D01*
X134140002Y-55757619D02*
X134044764Y-55757619D01*
X134044764Y-55757619D02*
X133949526Y-55710000D01*
X133949526Y-55710000D02*
X133901907Y-55662380D01*
X133901907Y-55662380D02*
X133854288Y-55567142D01*
X133854288Y-55567142D02*
X133806669Y-55376666D01*
X133806669Y-55376666D02*
X133806669Y-55138571D01*
X133806669Y-55138571D02*
X133854288Y-54948095D01*
X133854288Y-54948095D02*
X133901907Y-54852857D01*
X133901907Y-54852857D02*
X133949526Y-54805238D01*
X133949526Y-54805238D02*
X134044764Y-54757619D01*
X134759050Y-54852857D02*
X134806669Y-54805238D01*
X134806669Y-54805238D02*
X134901907Y-54757619D01*
X134901907Y-54757619D02*
X135140002Y-54757619D01*
X135140002Y-54757619D02*
X135235240Y-54805238D01*
X135235240Y-54805238D02*
X135282859Y-54852857D01*
X135282859Y-54852857D02*
X135330478Y-54948095D01*
X135330478Y-54948095D02*
X135330478Y-55043333D01*
X135330478Y-55043333D02*
X135282859Y-55186190D01*
X135282859Y-55186190D02*
X134711431Y-55757619D01*
X134711431Y-55757619D02*
X135330478Y-55757619D01*
X135949526Y-54757619D02*
X136044764Y-54757619D01*
X136044764Y-54757619D02*
X136140002Y-54805238D01*
X136140002Y-54805238D02*
X136187621Y-54852857D01*
X136187621Y-54852857D02*
X136235240Y-54948095D01*
X136235240Y-54948095D02*
X136282859Y-55138571D01*
X136282859Y-55138571D02*
X136282859Y-55376666D01*
X136282859Y-55376666D02*
X136235240Y-55567142D01*
X136235240Y-55567142D02*
X136187621Y-55662380D01*
X136187621Y-55662380D02*
X136140002Y-55710000D01*
X136140002Y-55710000D02*
X136044764Y-55757619D01*
X136044764Y-55757619D02*
X135949526Y-55757619D01*
X135949526Y-55757619D02*
X135854288Y-55710000D01*
X135854288Y-55710000D02*
X135806669Y-55662380D01*
X135806669Y-55662380D02*
X135759050Y-55567142D01*
X135759050Y-55567142D02*
X135711431Y-55376666D01*
X135711431Y-55376666D02*
X135711431Y-55138571D01*
X135711431Y-55138571D02*
X135759050Y-54948095D01*
X135759050Y-54948095D02*
X135806669Y-54852857D01*
X135806669Y-54852857D02*
X135854288Y-54805238D01*
X135854288Y-54805238D02*
X135949526Y-54757619D01*
X137235240Y-55757619D02*
X136663812Y-55757619D01*
X136949526Y-55757619D02*
X136949526Y-54757619D01*
X136949526Y-54757619D02*
X136854288Y-54900476D01*
X136854288Y-54900476D02*
X136759050Y-54995714D01*
X136759050Y-54995714D02*
X136663812Y-55043333D01*
X137854288Y-54757619D02*
X137949526Y-54757619D01*
X137949526Y-54757619D02*
X138044764Y-54805238D01*
X138044764Y-54805238D02*
X138092383Y-54852857D01*
X138092383Y-54852857D02*
X138140002Y-54948095D01*
X138140002Y-54948095D02*
X138187621Y-55138571D01*
X138187621Y-55138571D02*
X138187621Y-55376666D01*
X138187621Y-55376666D02*
X138140002Y-55567142D01*
X138140002Y-55567142D02*
X138092383Y-55662380D01*
X138092383Y-55662380D02*
X138044764Y-55710000D01*
X138044764Y-55710000D02*
X137949526Y-55757619D01*
X137949526Y-55757619D02*
X137854288Y-55757619D01*
X137854288Y-55757619D02*
X137759050Y-55710000D01*
X137759050Y-55710000D02*
X137711431Y-55662380D01*
X137711431Y-55662380D02*
X137663812Y-55567142D01*
X137663812Y-55567142D02*
X137616193Y-55376666D01*
X137616193Y-55376666D02*
X137616193Y-55138571D01*
X137616193Y-55138571D02*
X137663812Y-54948095D01*
X137663812Y-54948095D02*
X137711431Y-54852857D01*
X137711431Y-54852857D02*
X137759050Y-54805238D01*
X137759050Y-54805238D02*
X137854288Y-54757619D01*
X139140002Y-55757619D02*
X138568574Y-55757619D01*
X138854288Y-55757619D02*
X138854288Y-54757619D01*
X138854288Y-54757619D02*
X138759050Y-54900476D01*
X138759050Y-54900476D02*
X138663812Y-54995714D01*
X138663812Y-54995714D02*
X138568574Y-55043333D01*
%TO.C,OK*%
X113704762Y-101892619D02*
X113895238Y-101892619D01*
X113895238Y-101892619D02*
X113990476Y-101940238D01*
X113990476Y-101940238D02*
X114085714Y-102035476D01*
X114085714Y-102035476D02*
X114133333Y-102225952D01*
X114133333Y-102225952D02*
X114133333Y-102559285D01*
X114133333Y-102559285D02*
X114085714Y-102749761D01*
X114085714Y-102749761D02*
X113990476Y-102845000D01*
X113990476Y-102845000D02*
X113895238Y-102892619D01*
X113895238Y-102892619D02*
X113704762Y-102892619D01*
X113704762Y-102892619D02*
X113609524Y-102845000D01*
X113609524Y-102845000D02*
X113514286Y-102749761D01*
X113514286Y-102749761D02*
X113466667Y-102559285D01*
X113466667Y-102559285D02*
X113466667Y-102225952D01*
X113466667Y-102225952D02*
X113514286Y-102035476D01*
X113514286Y-102035476D02*
X113609524Y-101940238D01*
X113609524Y-101940238D02*
X113704762Y-101892619D01*
X114561905Y-102892619D02*
X114561905Y-101892619D01*
X115133333Y-102892619D02*
X114704762Y-102321190D01*
X115133333Y-101892619D02*
X114561905Y-102464047D01*
%TO.C,Temp*%
X97382619Y-62793332D02*
X97382619Y-62221904D01*
X98382619Y-62507618D02*
X97382619Y-62507618D01*
X98335000Y-61507618D02*
X98382619Y-61602856D01*
X98382619Y-61602856D02*
X98382619Y-61793332D01*
X98382619Y-61793332D02*
X98335000Y-61888570D01*
X98335000Y-61888570D02*
X98239761Y-61936189D01*
X98239761Y-61936189D02*
X97858809Y-61936189D01*
X97858809Y-61936189D02*
X97763571Y-61888570D01*
X97763571Y-61888570D02*
X97715952Y-61793332D01*
X97715952Y-61793332D02*
X97715952Y-61602856D01*
X97715952Y-61602856D02*
X97763571Y-61507618D01*
X97763571Y-61507618D02*
X97858809Y-61459999D01*
X97858809Y-61459999D02*
X97954047Y-61459999D01*
X97954047Y-61459999D02*
X98049285Y-61936189D01*
X98382619Y-61031427D02*
X97715952Y-61031427D01*
X97811190Y-61031427D02*
X97763571Y-60983808D01*
X97763571Y-60983808D02*
X97715952Y-60888570D01*
X97715952Y-60888570D02*
X97715952Y-60745713D01*
X97715952Y-60745713D02*
X97763571Y-60650475D01*
X97763571Y-60650475D02*
X97858809Y-60602856D01*
X97858809Y-60602856D02*
X98382619Y-60602856D01*
X97858809Y-60602856D02*
X97763571Y-60555237D01*
X97763571Y-60555237D02*
X97715952Y-60459999D01*
X97715952Y-60459999D02*
X97715952Y-60317142D01*
X97715952Y-60317142D02*
X97763571Y-60221903D01*
X97763571Y-60221903D02*
X97858809Y-60174284D01*
X97858809Y-60174284D02*
X98382619Y-60174284D01*
X97715952Y-59698094D02*
X98715952Y-59698094D01*
X97763571Y-59698094D02*
X97715952Y-59602856D01*
X97715952Y-59602856D02*
X97715952Y-59412380D01*
X97715952Y-59412380D02*
X97763571Y-59317142D01*
X97763571Y-59317142D02*
X97811190Y-59269523D01*
X97811190Y-59269523D02*
X97906428Y-59221904D01*
X97906428Y-59221904D02*
X98192142Y-59221904D01*
X98192142Y-59221904D02*
X98287380Y-59269523D01*
X98287380Y-59269523D02*
X98335000Y-59317142D01*
X98335000Y-59317142D02*
X98382619Y-59412380D01*
X98382619Y-59412380D02*
X98382619Y-59602856D01*
X98382619Y-59602856D02*
X98335000Y-59698094D01*
%TO.C,5V*%
X93442619Y-73850476D02*
X93442619Y-74326666D01*
X93442619Y-74326666D02*
X93918809Y-74374285D01*
X93918809Y-74374285D02*
X93871190Y-74326666D01*
X93871190Y-74326666D02*
X93823571Y-74231428D01*
X93823571Y-74231428D02*
X93823571Y-73993333D01*
X93823571Y-73993333D02*
X93871190Y-73898095D01*
X93871190Y-73898095D02*
X93918809Y-73850476D01*
X93918809Y-73850476D02*
X94014047Y-73802857D01*
X94014047Y-73802857D02*
X94252142Y-73802857D01*
X94252142Y-73802857D02*
X94347380Y-73850476D01*
X94347380Y-73850476D02*
X94395000Y-73898095D01*
X94395000Y-73898095D02*
X94442619Y-73993333D01*
X94442619Y-73993333D02*
X94442619Y-74231428D01*
X94442619Y-74231428D02*
X94395000Y-74326666D01*
X94395000Y-74326666D02*
X94347380Y-74374285D01*
X93442619Y-73517142D02*
X94442619Y-73183809D01*
X94442619Y-73183809D02*
X93442619Y-72850476D01*
%TO.C,Temp*%
X95982619Y-66613332D02*
X95982619Y-66041904D01*
X96982619Y-66327618D02*
X95982619Y-66327618D01*
X96935000Y-65327618D02*
X96982619Y-65422856D01*
X96982619Y-65422856D02*
X96982619Y-65613332D01*
X96982619Y-65613332D02*
X96935000Y-65708570D01*
X96935000Y-65708570D02*
X96839761Y-65756189D01*
X96839761Y-65756189D02*
X96458809Y-65756189D01*
X96458809Y-65756189D02*
X96363571Y-65708570D01*
X96363571Y-65708570D02*
X96315952Y-65613332D01*
X96315952Y-65613332D02*
X96315952Y-65422856D01*
X96315952Y-65422856D02*
X96363571Y-65327618D01*
X96363571Y-65327618D02*
X96458809Y-65279999D01*
X96458809Y-65279999D02*
X96554047Y-65279999D01*
X96554047Y-65279999D02*
X96649285Y-65756189D01*
X96982619Y-64851427D02*
X96315952Y-64851427D01*
X96411190Y-64851427D02*
X96363571Y-64803808D01*
X96363571Y-64803808D02*
X96315952Y-64708570D01*
X96315952Y-64708570D02*
X96315952Y-64565713D01*
X96315952Y-64565713D02*
X96363571Y-64470475D01*
X96363571Y-64470475D02*
X96458809Y-64422856D01*
X96458809Y-64422856D02*
X96982619Y-64422856D01*
X96458809Y-64422856D02*
X96363571Y-64375237D01*
X96363571Y-64375237D02*
X96315952Y-64279999D01*
X96315952Y-64279999D02*
X96315952Y-64137142D01*
X96315952Y-64137142D02*
X96363571Y-64041903D01*
X96363571Y-64041903D02*
X96458809Y-63994284D01*
X96458809Y-63994284D02*
X96982619Y-63994284D01*
X96315952Y-63518094D02*
X97315952Y-63518094D01*
X96363571Y-63518094D02*
X96315952Y-63422856D01*
X96315952Y-63422856D02*
X96315952Y-63232380D01*
X96315952Y-63232380D02*
X96363571Y-63137142D01*
X96363571Y-63137142D02*
X96411190Y-63089523D01*
X96411190Y-63089523D02*
X96506428Y-63041904D01*
X96506428Y-63041904D02*
X96792142Y-63041904D01*
X96792142Y-63041904D02*
X96887380Y-63089523D01*
X96887380Y-63089523D02*
X96935000Y-63137142D01*
X96935000Y-63137142D02*
X96982619Y-63232380D01*
X96982619Y-63232380D02*
X96982619Y-63422856D01*
X96982619Y-63422856D02*
X96935000Y-63518094D01*
%TO.C,U*%
X124174286Y-101892619D02*
X124174286Y-102702142D01*
X124174286Y-102702142D02*
X124221905Y-102797380D01*
X124221905Y-102797380D02*
X124269524Y-102845000D01*
X124269524Y-102845000D02*
X124364762Y-102892619D01*
X124364762Y-102892619D02*
X124555238Y-102892619D01*
X124555238Y-102892619D02*
X124650476Y-102845000D01*
X124650476Y-102845000D02*
X124698095Y-102797380D01*
X124698095Y-102797380D02*
X124745714Y-102702142D01*
X124745714Y-102702142D02*
X124745714Y-101892619D01*
%TO.C,D*%
X134358095Y-102892619D02*
X134358095Y-101892619D01*
X134358095Y-101892619D02*
X134596190Y-101892619D01*
X134596190Y-101892619D02*
X134739047Y-101940238D01*
X134739047Y-101940238D02*
X134834285Y-102035476D01*
X134834285Y-102035476D02*
X134881904Y-102130714D01*
X134881904Y-102130714D02*
X134929523Y-102321190D01*
X134929523Y-102321190D02*
X134929523Y-102464047D01*
X134929523Y-102464047D02*
X134881904Y-102654523D01*
X134881904Y-102654523D02*
X134834285Y-102749761D01*
X134834285Y-102749761D02*
X134739047Y-102845000D01*
X134739047Y-102845000D02*
X134596190Y-102892619D01*
X134596190Y-102892619D02*
X134358095Y-102892619D01*
%TO.C,Screen*%
X111966666Y-61375000D02*
X112109523Y-61422619D01*
X112109523Y-61422619D02*
X112347618Y-61422619D01*
X112347618Y-61422619D02*
X112442856Y-61375000D01*
X112442856Y-61375000D02*
X112490475Y-61327380D01*
X112490475Y-61327380D02*
X112538094Y-61232142D01*
X112538094Y-61232142D02*
X112538094Y-61136904D01*
X112538094Y-61136904D02*
X112490475Y-61041666D01*
X112490475Y-61041666D02*
X112442856Y-60994047D01*
X112442856Y-60994047D02*
X112347618Y-60946428D01*
X112347618Y-60946428D02*
X112157142Y-60898809D01*
X112157142Y-60898809D02*
X112061904Y-60851190D01*
X112061904Y-60851190D02*
X112014285Y-60803571D01*
X112014285Y-60803571D02*
X111966666Y-60708333D01*
X111966666Y-60708333D02*
X111966666Y-60613095D01*
X111966666Y-60613095D02*
X112014285Y-60517857D01*
X112014285Y-60517857D02*
X112061904Y-60470238D01*
X112061904Y-60470238D02*
X112157142Y-60422619D01*
X112157142Y-60422619D02*
X112395237Y-60422619D01*
X112395237Y-60422619D02*
X112538094Y-60470238D01*
X113395237Y-61375000D02*
X113299999Y-61422619D01*
X113299999Y-61422619D02*
X113109523Y-61422619D01*
X113109523Y-61422619D02*
X113014285Y-61375000D01*
X113014285Y-61375000D02*
X112966666Y-61327380D01*
X112966666Y-61327380D02*
X112919047Y-61232142D01*
X112919047Y-61232142D02*
X112919047Y-60946428D01*
X112919047Y-60946428D02*
X112966666Y-60851190D01*
X112966666Y-60851190D02*
X113014285Y-60803571D01*
X113014285Y-60803571D02*
X113109523Y-60755952D01*
X113109523Y-60755952D02*
X113299999Y-60755952D01*
X113299999Y-60755952D02*
X113395237Y-60803571D01*
X113823809Y-61422619D02*
X113823809Y-60755952D01*
X113823809Y-60946428D02*
X113871428Y-60851190D01*
X113871428Y-60851190D02*
X113919047Y-60803571D01*
X113919047Y-60803571D02*
X114014285Y-60755952D01*
X114014285Y-60755952D02*
X114109523Y-60755952D01*
X114823809Y-61375000D02*
X114728571Y-61422619D01*
X114728571Y-61422619D02*
X114538095Y-61422619D01*
X114538095Y-61422619D02*
X114442857Y-61375000D01*
X114442857Y-61375000D02*
X114395238Y-61279761D01*
X114395238Y-61279761D02*
X114395238Y-60898809D01*
X114395238Y-60898809D02*
X114442857Y-60803571D01*
X114442857Y-60803571D02*
X114538095Y-60755952D01*
X114538095Y-60755952D02*
X114728571Y-60755952D01*
X114728571Y-60755952D02*
X114823809Y-60803571D01*
X114823809Y-60803571D02*
X114871428Y-60898809D01*
X114871428Y-60898809D02*
X114871428Y-60994047D01*
X114871428Y-60994047D02*
X114395238Y-61089285D01*
X115680952Y-61375000D02*
X115585714Y-61422619D01*
X115585714Y-61422619D02*
X115395238Y-61422619D01*
X115395238Y-61422619D02*
X115300000Y-61375000D01*
X115300000Y-61375000D02*
X115252381Y-61279761D01*
X115252381Y-61279761D02*
X115252381Y-60898809D01*
X115252381Y-60898809D02*
X115300000Y-60803571D01*
X115300000Y-60803571D02*
X115395238Y-60755952D01*
X115395238Y-60755952D02*
X115585714Y-60755952D01*
X115585714Y-60755952D02*
X115680952Y-60803571D01*
X115680952Y-60803571D02*
X115728571Y-60898809D01*
X115728571Y-60898809D02*
X115728571Y-60994047D01*
X115728571Y-60994047D02*
X115252381Y-61089285D01*
X116157143Y-60755952D02*
X116157143Y-61422619D01*
X116157143Y-60851190D02*
X116204762Y-60803571D01*
X116204762Y-60803571D02*
X116300000Y-60755952D01*
X116300000Y-60755952D02*
X116442857Y-60755952D01*
X116442857Y-60755952D02*
X116538095Y-60803571D01*
X116538095Y-60803571D02*
X116585714Y-60898809D01*
X116585714Y-60898809D02*
X116585714Y-61422619D01*
%TO.C,L*%
X94289523Y-102892619D02*
X93813333Y-102892619D01*
X93813333Y-102892619D02*
X93813333Y-101892619D01*
%TO.C,R*%
X104449523Y-102892619D02*
X104116190Y-102416428D01*
X103878095Y-102892619D02*
X103878095Y-101892619D01*
X103878095Y-101892619D02*
X104259047Y-101892619D01*
X104259047Y-101892619D02*
X104354285Y-101940238D01*
X104354285Y-101940238D02*
X104401904Y-101987857D01*
X104401904Y-101987857D02*
X104449523Y-102083095D01*
X104449523Y-102083095D02*
X104449523Y-102225952D01*
X104449523Y-102225952D02*
X104401904Y-102321190D01*
X104401904Y-102321190D02*
X104354285Y-102368809D01*
X104354285Y-102368809D02*
X104259047Y-102416428D01*
X104259047Y-102416428D02*
X103878095Y-102416428D01*
%TO.C,M*%
X113966667Y-95272619D02*
X113966667Y-94272619D01*
X113966667Y-94272619D02*
X114300000Y-94986904D01*
X114300000Y-94986904D02*
X114633333Y-94272619D01*
X114633333Y-94272619D02*
X114633333Y-95272619D01*
%TO.C,N/C Inputs*%
X94162619Y-95396190D02*
X93162619Y-95396190D01*
X93162619Y-95396190D02*
X94162619Y-94824762D01*
X94162619Y-94824762D02*
X93162619Y-94824762D01*
X93115000Y-93634286D02*
X94400714Y-94491428D01*
X94067380Y-92729524D02*
X94115000Y-92777143D01*
X94115000Y-92777143D02*
X94162619Y-92920000D01*
X94162619Y-92920000D02*
X94162619Y-93015238D01*
X94162619Y-93015238D02*
X94115000Y-93158095D01*
X94115000Y-93158095D02*
X94019761Y-93253333D01*
X94019761Y-93253333D02*
X93924523Y-93300952D01*
X93924523Y-93300952D02*
X93734047Y-93348571D01*
X93734047Y-93348571D02*
X93591190Y-93348571D01*
X93591190Y-93348571D02*
X93400714Y-93300952D01*
X93400714Y-93300952D02*
X93305476Y-93253333D01*
X93305476Y-93253333D02*
X93210238Y-93158095D01*
X93210238Y-93158095D02*
X93162619Y-93015238D01*
X93162619Y-93015238D02*
X93162619Y-92920000D01*
X93162619Y-92920000D02*
X93210238Y-92777143D01*
X93210238Y-92777143D02*
X93257857Y-92729524D01*
X94162619Y-91539047D02*
X93162619Y-91539047D01*
X93495952Y-91062857D02*
X94162619Y-91062857D01*
X93591190Y-91062857D02*
X93543571Y-91015238D01*
X93543571Y-91015238D02*
X93495952Y-90920000D01*
X93495952Y-90920000D02*
X93495952Y-90777143D01*
X93495952Y-90777143D02*
X93543571Y-90681905D01*
X93543571Y-90681905D02*
X93638809Y-90634286D01*
X93638809Y-90634286D02*
X94162619Y-90634286D01*
X93495952Y-90158095D02*
X94495952Y-90158095D01*
X93543571Y-90158095D02*
X93495952Y-90062857D01*
X93495952Y-90062857D02*
X93495952Y-89872381D01*
X93495952Y-89872381D02*
X93543571Y-89777143D01*
X93543571Y-89777143D02*
X93591190Y-89729524D01*
X93591190Y-89729524D02*
X93686428Y-89681905D01*
X93686428Y-89681905D02*
X93972142Y-89681905D01*
X93972142Y-89681905D02*
X94067380Y-89729524D01*
X94067380Y-89729524D02*
X94115000Y-89777143D01*
X94115000Y-89777143D02*
X94162619Y-89872381D01*
X94162619Y-89872381D02*
X94162619Y-90062857D01*
X94162619Y-90062857D02*
X94115000Y-90158095D01*
X93495952Y-88824762D02*
X94162619Y-88824762D01*
X93495952Y-89253333D02*
X94019761Y-89253333D01*
X94019761Y-89253333D02*
X94115000Y-89205714D01*
X94115000Y-89205714D02*
X94162619Y-89110476D01*
X94162619Y-89110476D02*
X94162619Y-88967619D01*
X94162619Y-88967619D02*
X94115000Y-88872381D01*
X94115000Y-88872381D02*
X94067380Y-88824762D01*
X93495952Y-88491428D02*
X93495952Y-88110476D01*
X93162619Y-88348571D02*
X94019761Y-88348571D01*
X94019761Y-88348571D02*
X94115000Y-88300952D01*
X94115000Y-88300952D02*
X94162619Y-88205714D01*
X94162619Y-88205714D02*
X94162619Y-88110476D01*
X94115000Y-87824761D02*
X94162619Y-87729523D01*
X94162619Y-87729523D02*
X94162619Y-87539047D01*
X94162619Y-87539047D02*
X94115000Y-87443809D01*
X94115000Y-87443809D02*
X94019761Y-87396190D01*
X94019761Y-87396190D02*
X93972142Y-87396190D01*
X93972142Y-87396190D02*
X93876904Y-87443809D01*
X93876904Y-87443809D02*
X93829285Y-87539047D01*
X93829285Y-87539047D02*
X93829285Y-87681904D01*
X93829285Y-87681904D02*
X93781666Y-87777142D01*
X93781666Y-87777142D02*
X93686428Y-87824761D01*
X93686428Y-87824761D02*
X93638809Y-87824761D01*
X93638809Y-87824761D02*
X93543571Y-87777142D01*
X93543571Y-87777142D02*
X93495952Y-87681904D01*
X93495952Y-87681904D02*
X93495952Y-87539047D01*
X93495952Y-87539047D02*
X93543571Y-87443809D01*
%TO.C,REF\u002A\u002A*%
X122382619Y-81343333D02*
X121906428Y-81676666D01*
X122382619Y-81914761D02*
X121382619Y-81914761D01*
X121382619Y-81914761D02*
X121382619Y-81533809D01*
X121382619Y-81533809D02*
X121430238Y-81438571D01*
X121430238Y-81438571D02*
X121477857Y-81390952D01*
X121477857Y-81390952D02*
X121573095Y-81343333D01*
X121573095Y-81343333D02*
X121715952Y-81343333D01*
X121715952Y-81343333D02*
X121811190Y-81390952D01*
X121811190Y-81390952D02*
X121858809Y-81438571D01*
X121858809Y-81438571D02*
X121906428Y-81533809D01*
X121906428Y-81533809D02*
X121906428Y-81914761D01*
X121858809Y-80914761D02*
X121858809Y-80581428D01*
X122382619Y-80438571D02*
X122382619Y-80914761D01*
X122382619Y-80914761D02*
X121382619Y-80914761D01*
X121382619Y-80914761D02*
X121382619Y-80438571D01*
X121858809Y-79676666D02*
X121858809Y-80009999D01*
X122382619Y-80009999D02*
X121382619Y-80009999D01*
X121382619Y-80009999D02*
X121382619Y-79533809D01*
X121382619Y-79009999D02*
X121620714Y-79009999D01*
X121525476Y-79248094D02*
X121620714Y-79009999D01*
X121620714Y-79009999D02*
X121525476Y-78771904D01*
X121811190Y-79152856D02*
X121620714Y-79009999D01*
X121620714Y-79009999D02*
X121811190Y-78867142D01*
X121382619Y-78248094D02*
X121620714Y-78248094D01*
X121525476Y-78486189D02*
X121620714Y-78248094D01*
X121620714Y-78248094D02*
X121525476Y-78009999D01*
X121811190Y-78390951D02*
X121620714Y-78248094D01*
X121620714Y-78248094D02*
X121811190Y-78105237D01*
X107553615Y-65859513D02*
X107526678Y-65778701D01*
X107526678Y-65778701D02*
X107445866Y-65697889D01*
X107445866Y-65697889D02*
X107338116Y-65644014D01*
X107338116Y-65644014D02*
X107230367Y-65644014D01*
X107230367Y-65644014D02*
X107149554Y-65670951D01*
X107149554Y-65670951D02*
X107014867Y-65751764D01*
X107014867Y-65751764D02*
X106934055Y-65832576D01*
X106934055Y-65832576D02*
X106853243Y-65967263D01*
X106853243Y-65967263D02*
X106826306Y-66048075D01*
X106826306Y-66048075D02*
X106826306Y-66155825D01*
X106826306Y-66155825D02*
X106880180Y-66263574D01*
X106880180Y-66263574D02*
X106934055Y-66317449D01*
X106934055Y-66317449D02*
X107041805Y-66371324D01*
X107041805Y-66371324D02*
X107095680Y-66371324D01*
X107095680Y-66371324D02*
X107284241Y-66182762D01*
X107284241Y-66182762D02*
X107176492Y-66075012D01*
X107284241Y-66667635D02*
X107849927Y-66101950D01*
X107849927Y-66101950D02*
X108065426Y-66317449D01*
X108065426Y-66317449D02*
X108092363Y-66398261D01*
X108092363Y-66398261D02*
X108092363Y-66452136D01*
X108092363Y-66452136D02*
X108065426Y-66532948D01*
X108065426Y-66532948D02*
X107984614Y-66613760D01*
X107984614Y-66613760D02*
X107903802Y-66640698D01*
X107903802Y-66640698D02*
X107849927Y-66640698D01*
X107849927Y-66640698D02*
X107769115Y-66613760D01*
X107769115Y-66613760D02*
X107553615Y-66398261D01*
X108146238Y-67529632D02*
X107822989Y-67206383D01*
X107984614Y-67368008D02*
X108550299Y-66802322D01*
X108550299Y-66802322D02*
X108415612Y-66829260D01*
X108415612Y-66829260D02*
X108307863Y-66829260D01*
X108307863Y-66829260D02*
X108227051Y-66802322D01*
X108873548Y-67233321D02*
X108927423Y-67233321D01*
X108927423Y-67233321D02*
X109008235Y-67260258D01*
X109008235Y-67260258D02*
X109142922Y-67394945D01*
X109142922Y-67394945D02*
X109169860Y-67475757D01*
X109169860Y-67475757D02*
X109169860Y-67529632D01*
X109169860Y-67529632D02*
X109142922Y-67610444D01*
X109142922Y-67610444D02*
X109089048Y-67664319D01*
X109089048Y-67664319D02*
X108981298Y-67718194D01*
X108981298Y-67718194D02*
X108334800Y-67718194D01*
X108334800Y-67718194D02*
X108684986Y-68068380D01*
X99933615Y-92113513D02*
X99906678Y-92032701D01*
X99906678Y-92032701D02*
X99825866Y-91951889D01*
X99825866Y-91951889D02*
X99718116Y-91898014D01*
X99718116Y-91898014D02*
X99610367Y-91898014D01*
X99610367Y-91898014D02*
X99529554Y-91924951D01*
X99529554Y-91924951D02*
X99394867Y-92005764D01*
X99394867Y-92005764D02*
X99314055Y-92086576D01*
X99314055Y-92086576D02*
X99233243Y-92221263D01*
X99233243Y-92221263D02*
X99206306Y-92302075D01*
X99206306Y-92302075D02*
X99206306Y-92409825D01*
X99206306Y-92409825D02*
X99260180Y-92517574D01*
X99260180Y-92517574D02*
X99314055Y-92571449D01*
X99314055Y-92571449D02*
X99421805Y-92625324D01*
X99421805Y-92625324D02*
X99475680Y-92625324D01*
X99475680Y-92625324D02*
X99664241Y-92436762D01*
X99664241Y-92436762D02*
X99556492Y-92329012D01*
X99664241Y-92921635D02*
X100229927Y-92355950D01*
X100229927Y-92355950D02*
X100445426Y-92571449D01*
X100445426Y-92571449D02*
X100472363Y-92652261D01*
X100472363Y-92652261D02*
X100472363Y-92706136D01*
X100472363Y-92706136D02*
X100445426Y-92786948D01*
X100445426Y-92786948D02*
X100364614Y-92867760D01*
X100364614Y-92867760D02*
X100283802Y-92894698D01*
X100283802Y-92894698D02*
X100229927Y-92894698D01*
X100229927Y-92894698D02*
X100149115Y-92867760D01*
X100149115Y-92867760D02*
X99933615Y-92652261D01*
X100526238Y-93783632D02*
X100202989Y-93460383D01*
X100364614Y-93622008D02*
X100930299Y-93056322D01*
X100930299Y-93056322D02*
X100795612Y-93083260D01*
X100795612Y-93083260D02*
X100687863Y-93083260D01*
X100687863Y-93083260D02*
X100607051Y-93056322D01*
X101280486Y-93406509D02*
X101657609Y-93783632D01*
X101657609Y-93783632D02*
X100849487Y-94106881D01*
X99933615Y-65959513D02*
X99906678Y-65878701D01*
X99906678Y-65878701D02*
X99825866Y-65797889D01*
X99825866Y-65797889D02*
X99718116Y-65744014D01*
X99718116Y-65744014D02*
X99610367Y-65744014D01*
X99610367Y-65744014D02*
X99529554Y-65770951D01*
X99529554Y-65770951D02*
X99394867Y-65851764D01*
X99394867Y-65851764D02*
X99314055Y-65932576D01*
X99314055Y-65932576D02*
X99233243Y-66067263D01*
X99233243Y-66067263D02*
X99206306Y-66148075D01*
X99206306Y-66148075D02*
X99206306Y-66255825D01*
X99206306Y-66255825D02*
X99260180Y-66363574D01*
X99260180Y-66363574D02*
X99314055Y-66417449D01*
X99314055Y-66417449D02*
X99421805Y-66471324D01*
X99421805Y-66471324D02*
X99475680Y-66471324D01*
X99475680Y-66471324D02*
X99664241Y-66282762D01*
X99664241Y-66282762D02*
X99556492Y-66175012D01*
X99664241Y-66767635D02*
X100229927Y-66201950D01*
X100229927Y-66201950D02*
X100445426Y-66417449D01*
X100445426Y-66417449D02*
X100472363Y-66498261D01*
X100472363Y-66498261D02*
X100472363Y-66552136D01*
X100472363Y-66552136D02*
X100445426Y-66632948D01*
X100445426Y-66632948D02*
X100364614Y-66713760D01*
X100364614Y-66713760D02*
X100283802Y-66740698D01*
X100283802Y-66740698D02*
X100229927Y-66740698D01*
X100229927Y-66740698D02*
X100149115Y-66713760D01*
X100149115Y-66713760D02*
X99933615Y-66498261D01*
X100526238Y-67629632D02*
X100202989Y-67306383D01*
X100364614Y-67468008D02*
X100930299Y-66902322D01*
X100930299Y-66902322D02*
X100795612Y-66929260D01*
X100795612Y-66929260D02*
X100687863Y-66929260D01*
X100687863Y-66929260D02*
X100607051Y-66902322D01*
X101388235Y-67737382D02*
X101011112Y-68114505D01*
X101469048Y-67387196D02*
X100930299Y-67656570D01*
X100930299Y-67656570D02*
X101280486Y-68006756D01*
X142844242Y-91936265D02*
X142467118Y-92690512D01*
X142467118Y-92690512D02*
X143221365Y-92313388D01*
X142844241Y-93013760D02*
X142898116Y-93121510D01*
X142898116Y-93121510D02*
X143032803Y-93256197D01*
X143032803Y-93256197D02*
X143113615Y-93283134D01*
X143113615Y-93283134D02*
X143167490Y-93283134D01*
X143167490Y-93283134D02*
X143248302Y-93256197D01*
X143248302Y-93256197D02*
X143302177Y-93202322D01*
X143302177Y-93202322D02*
X143329115Y-93121510D01*
X143329115Y-93121510D02*
X143329115Y-93067635D01*
X143329115Y-93067635D02*
X143302177Y-92986823D01*
X143302177Y-92986823D02*
X143221365Y-92852136D01*
X143221365Y-92852136D02*
X143194428Y-92771324D01*
X143194428Y-92771324D02*
X143194428Y-92717449D01*
X143194428Y-92717449D02*
X143221365Y-92636637D01*
X143221365Y-92636637D02*
X143275240Y-92582762D01*
X143275240Y-92582762D02*
X143356052Y-92555825D01*
X143356052Y-92555825D02*
X143409927Y-92555825D01*
X143409927Y-92555825D02*
X143490739Y-92582762D01*
X143490739Y-92582762D02*
X143625426Y-92717449D01*
X143625426Y-92717449D02*
X143679301Y-92825199D01*
X143760113Y-93444759D02*
X143490739Y-93714133D01*
X143867863Y-92959886D02*
X143760113Y-93444759D01*
X143760113Y-93444759D02*
X144244986Y-93337009D01*
X143867863Y-94037382D02*
X143921737Y-94145131D01*
X143921737Y-94145131D02*
X144056424Y-94279818D01*
X144056424Y-94279818D02*
X144137237Y-94306756D01*
X144137237Y-94306756D02*
X144191111Y-94306756D01*
X144191111Y-94306756D02*
X144271924Y-94279818D01*
X144271924Y-94279818D02*
X144325798Y-94225943D01*
X144325798Y-94225943D02*
X144352736Y-94145131D01*
X144352736Y-94145131D02*
X144352736Y-94091256D01*
X144352736Y-94091256D02*
X144325798Y-94010444D01*
X144325798Y-94010444D02*
X144244986Y-93875757D01*
X144244986Y-93875757D02*
X144218049Y-93794945D01*
X144218049Y-93794945D02*
X144218049Y-93741070D01*
X144218049Y-93741070D02*
X144244986Y-93660258D01*
X144244986Y-93660258D02*
X144298861Y-93606383D01*
X144298861Y-93606383D02*
X144379673Y-93579446D01*
X144379673Y-93579446D02*
X144433548Y-93579446D01*
X144433548Y-93579446D02*
X144514360Y-93606383D01*
X144514360Y-93606383D02*
X144649047Y-93741070D01*
X144649047Y-93741070D02*
X144702922Y-93848820D01*
X138302990Y-66428888D02*
X138276053Y-66348075D01*
X138276053Y-66348075D02*
X138195240Y-66267263D01*
X138195240Y-66267263D02*
X138087491Y-66213388D01*
X138087491Y-66213388D02*
X137979741Y-66213388D01*
X137979741Y-66213388D02*
X137898929Y-66240326D01*
X137898929Y-66240326D02*
X137764242Y-66321138D01*
X137764242Y-66321138D02*
X137683430Y-66401950D01*
X137683430Y-66401950D02*
X137602617Y-66536637D01*
X137602617Y-66536637D02*
X137575680Y-66617449D01*
X137575680Y-66617449D02*
X137575680Y-66725199D01*
X137575680Y-66725199D02*
X137629555Y-66832949D01*
X137629555Y-66832949D02*
X137683430Y-66886823D01*
X137683430Y-66886823D02*
X137791179Y-66940698D01*
X137791179Y-66940698D02*
X137845054Y-66940698D01*
X137845054Y-66940698D02*
X138033616Y-66752136D01*
X138033616Y-66752136D02*
X137925866Y-66644387D01*
X138033616Y-67237010D02*
X138599301Y-66671324D01*
X138599301Y-66671324D02*
X138814801Y-66886823D01*
X138814801Y-66886823D02*
X138841738Y-66967636D01*
X138841738Y-66967636D02*
X138841738Y-67021510D01*
X138841738Y-67021510D02*
X138814801Y-67102323D01*
X138814801Y-67102323D02*
X138733988Y-67183135D01*
X138733988Y-67183135D02*
X138653176Y-67210072D01*
X138653176Y-67210072D02*
X138599301Y-67210072D01*
X138599301Y-67210072D02*
X138518489Y-67183135D01*
X138518489Y-67183135D02*
X138302990Y-66967636D01*
X139084175Y-67263947D02*
X139138049Y-67263947D01*
X139138049Y-67263947D02*
X139218862Y-67290884D01*
X139218862Y-67290884D02*
X139353549Y-67425571D01*
X139353549Y-67425571D02*
X139380486Y-67506384D01*
X139380486Y-67506384D02*
X139380486Y-67560258D01*
X139380486Y-67560258D02*
X139353549Y-67641071D01*
X139353549Y-67641071D02*
X139299674Y-67694945D01*
X139299674Y-67694945D02*
X139191924Y-67748820D01*
X139191924Y-67748820D02*
X138545427Y-67748820D01*
X138545427Y-67748820D02*
X138895613Y-68099006D01*
X133222990Y-66528888D02*
X133196053Y-66448075D01*
X133196053Y-66448075D02*
X133115240Y-66367263D01*
X133115240Y-66367263D02*
X133007491Y-66313388D01*
X133007491Y-66313388D02*
X132899741Y-66313388D01*
X132899741Y-66313388D02*
X132818929Y-66340326D01*
X132818929Y-66340326D02*
X132684242Y-66421138D01*
X132684242Y-66421138D02*
X132603430Y-66501950D01*
X132603430Y-66501950D02*
X132522617Y-66636637D01*
X132522617Y-66636637D02*
X132495680Y-66717449D01*
X132495680Y-66717449D02*
X132495680Y-66825199D01*
X132495680Y-66825199D02*
X132549555Y-66932949D01*
X132549555Y-66932949D02*
X132603430Y-66986823D01*
X132603430Y-66986823D02*
X132711179Y-67040698D01*
X132711179Y-67040698D02*
X132765054Y-67040698D01*
X132765054Y-67040698D02*
X132953616Y-66852136D01*
X132953616Y-66852136D02*
X132845866Y-66744387D01*
X132953616Y-67337010D02*
X133519301Y-66771324D01*
X133519301Y-66771324D02*
X133734801Y-66986823D01*
X133734801Y-66986823D02*
X133761738Y-67067636D01*
X133761738Y-67067636D02*
X133761738Y-67121510D01*
X133761738Y-67121510D02*
X133734801Y-67202323D01*
X133734801Y-67202323D02*
X133653988Y-67283135D01*
X133653988Y-67283135D02*
X133573176Y-67310072D01*
X133573176Y-67310072D02*
X133519301Y-67310072D01*
X133519301Y-67310072D02*
X133438489Y-67283135D01*
X133438489Y-67283135D02*
X133222990Y-67067636D01*
X134138862Y-67768008D02*
X133761738Y-68145132D01*
X134219674Y-67417822D02*
X133680926Y-67687196D01*
X133680926Y-67687196D02*
X134031112Y-68037382D01*
X117982990Y-66528888D02*
X117956053Y-66448075D01*
X117956053Y-66448075D02*
X117875240Y-66367263D01*
X117875240Y-66367263D02*
X117767491Y-66313388D01*
X117767491Y-66313388D02*
X117659741Y-66313388D01*
X117659741Y-66313388D02*
X117578929Y-66340326D01*
X117578929Y-66340326D02*
X117444242Y-66421138D01*
X117444242Y-66421138D02*
X117363430Y-66501950D01*
X117363430Y-66501950D02*
X117282617Y-66636637D01*
X117282617Y-66636637D02*
X117255680Y-66717449D01*
X117255680Y-66717449D02*
X117255680Y-66825199D01*
X117255680Y-66825199D02*
X117309555Y-66932949D01*
X117309555Y-66932949D02*
X117363430Y-66986823D01*
X117363430Y-66986823D02*
X117471179Y-67040698D01*
X117471179Y-67040698D02*
X117525054Y-67040698D01*
X117525054Y-67040698D02*
X117713616Y-66852136D01*
X117713616Y-66852136D02*
X117605866Y-66744387D01*
X117713616Y-67337010D02*
X118279301Y-66771324D01*
X118279301Y-66771324D02*
X118494801Y-66986823D01*
X118494801Y-66986823D02*
X118521738Y-67067636D01*
X118521738Y-67067636D02*
X118521738Y-67121510D01*
X118521738Y-67121510D02*
X118494801Y-67202323D01*
X118494801Y-67202323D02*
X118413988Y-67283135D01*
X118413988Y-67283135D02*
X118333176Y-67310072D01*
X118333176Y-67310072D02*
X118279301Y-67310072D01*
X118279301Y-67310072D02*
X118198489Y-67283135D01*
X118198489Y-67283135D02*
X117982990Y-67067636D01*
X118306239Y-67929632D02*
X118413988Y-68037382D01*
X118413988Y-68037382D02*
X118494801Y-68064319D01*
X118494801Y-68064319D02*
X118548675Y-68064319D01*
X118548675Y-68064319D02*
X118683362Y-68037382D01*
X118683362Y-68037382D02*
X118818049Y-67956570D01*
X118818049Y-67956570D02*
X119033549Y-67741071D01*
X119033549Y-67741071D02*
X119060486Y-67660258D01*
X119060486Y-67660258D02*
X119060486Y-67606384D01*
X119060486Y-67606384D02*
X119033549Y-67525571D01*
X119033549Y-67525571D02*
X118925799Y-67417822D01*
X118925799Y-67417822D02*
X118844987Y-67390884D01*
X118844987Y-67390884D02*
X118791112Y-67390884D01*
X118791112Y-67390884D02*
X118710300Y-67417822D01*
X118710300Y-67417822D02*
X118575613Y-67552509D01*
X118575613Y-67552509D02*
X118548675Y-67633321D01*
X118548675Y-67633321D02*
X118548675Y-67687196D01*
X118548675Y-67687196D02*
X118575613Y-67768008D01*
X118575613Y-67768008D02*
X118683362Y-67875758D01*
X118683362Y-67875758D02*
X118764175Y-67902695D01*
X118764175Y-67902695D02*
X118818049Y-67902695D01*
X118818049Y-67902695D02*
X118898862Y-67875758D01*
X110093615Y-65859513D02*
X110066678Y-65778701D01*
X110066678Y-65778701D02*
X109985866Y-65697889D01*
X109985866Y-65697889D02*
X109878116Y-65644014D01*
X109878116Y-65644014D02*
X109770367Y-65644014D01*
X109770367Y-65644014D02*
X109689554Y-65670951D01*
X109689554Y-65670951D02*
X109554867Y-65751764D01*
X109554867Y-65751764D02*
X109474055Y-65832576D01*
X109474055Y-65832576D02*
X109393243Y-65967263D01*
X109393243Y-65967263D02*
X109366306Y-66048075D01*
X109366306Y-66048075D02*
X109366306Y-66155825D01*
X109366306Y-66155825D02*
X109420180Y-66263574D01*
X109420180Y-66263574D02*
X109474055Y-66317449D01*
X109474055Y-66317449D02*
X109581805Y-66371324D01*
X109581805Y-66371324D02*
X109635680Y-66371324D01*
X109635680Y-66371324D02*
X109824241Y-66182762D01*
X109824241Y-66182762D02*
X109716492Y-66075012D01*
X109824241Y-66667635D02*
X110389927Y-66101950D01*
X110389927Y-66101950D02*
X110605426Y-66317449D01*
X110605426Y-66317449D02*
X110632363Y-66398261D01*
X110632363Y-66398261D02*
X110632363Y-66452136D01*
X110632363Y-66452136D02*
X110605426Y-66532948D01*
X110605426Y-66532948D02*
X110524614Y-66613760D01*
X110524614Y-66613760D02*
X110443802Y-66640698D01*
X110443802Y-66640698D02*
X110389927Y-66640698D01*
X110389927Y-66640698D02*
X110309115Y-66613760D01*
X110309115Y-66613760D02*
X110093615Y-66398261D01*
X110686238Y-67529632D02*
X110362989Y-67206383D01*
X110524614Y-67368008D02*
X111090299Y-66802322D01*
X111090299Y-66802322D02*
X110955612Y-66829260D01*
X110955612Y-66829260D02*
X110847863Y-66829260D01*
X110847863Y-66829260D02*
X110767051Y-66802322D01*
X111224986Y-68068380D02*
X110901738Y-67745131D01*
X111063362Y-67906756D02*
X111629048Y-67341070D01*
X111629048Y-67341070D02*
X111494361Y-67368008D01*
X111494361Y-67368008D02*
X111386611Y-67368008D01*
X111386611Y-67368008D02*
X111305799Y-67341070D01*
X107553615Y-92113513D02*
X107526678Y-92032701D01*
X107526678Y-92032701D02*
X107445866Y-91951889D01*
X107445866Y-91951889D02*
X107338116Y-91898014D01*
X107338116Y-91898014D02*
X107230367Y-91898014D01*
X107230367Y-91898014D02*
X107149554Y-91924951D01*
X107149554Y-91924951D02*
X107014867Y-92005764D01*
X107014867Y-92005764D02*
X106934055Y-92086576D01*
X106934055Y-92086576D02*
X106853243Y-92221263D01*
X106853243Y-92221263D02*
X106826306Y-92302075D01*
X106826306Y-92302075D02*
X106826306Y-92409825D01*
X106826306Y-92409825D02*
X106880180Y-92517574D01*
X106880180Y-92517574D02*
X106934055Y-92571449D01*
X106934055Y-92571449D02*
X107041805Y-92625324D01*
X107041805Y-92625324D02*
X107095680Y-92625324D01*
X107095680Y-92625324D02*
X107284241Y-92436762D01*
X107284241Y-92436762D02*
X107176492Y-92329012D01*
X107284241Y-92921635D02*
X107849927Y-92355950D01*
X107849927Y-92355950D02*
X108065426Y-92571449D01*
X108065426Y-92571449D02*
X108092363Y-92652261D01*
X108092363Y-92652261D02*
X108092363Y-92706136D01*
X108092363Y-92706136D02*
X108065426Y-92786948D01*
X108065426Y-92786948D02*
X107984614Y-92867760D01*
X107984614Y-92867760D02*
X107903802Y-92894698D01*
X107903802Y-92894698D02*
X107849927Y-92894698D01*
X107849927Y-92894698D02*
X107769115Y-92867760D01*
X107769115Y-92867760D02*
X107553615Y-92652261D01*
X108146238Y-93783632D02*
X107822989Y-93460383D01*
X107984614Y-93622008D02*
X108550299Y-93056322D01*
X108550299Y-93056322D02*
X108415612Y-93083260D01*
X108415612Y-93083260D02*
X108307863Y-93083260D01*
X108307863Y-93083260D02*
X108227051Y-93056322D01*
X108415612Y-94053006D02*
X108523362Y-94160756D01*
X108523362Y-94160756D02*
X108604174Y-94187693D01*
X108604174Y-94187693D02*
X108658049Y-94187693D01*
X108658049Y-94187693D02*
X108792736Y-94160756D01*
X108792736Y-94160756D02*
X108927423Y-94079944D01*
X108927423Y-94079944D02*
X109142922Y-93864444D01*
X109142922Y-93864444D02*
X109169860Y-93783632D01*
X109169860Y-93783632D02*
X109169860Y-93729757D01*
X109169860Y-93729757D02*
X109142922Y-93648945D01*
X109142922Y-93648945D02*
X109035173Y-93541196D01*
X109035173Y-93541196D02*
X108954361Y-93514258D01*
X108954361Y-93514258D02*
X108900486Y-93514258D01*
X108900486Y-93514258D02*
X108819673Y-93541196D01*
X108819673Y-93541196D02*
X108684986Y-93675883D01*
X108684986Y-93675883D02*
X108658049Y-93756695D01*
X108658049Y-93756695D02*
X108658049Y-93810570D01*
X108658049Y-93810570D02*
X108684986Y-93891382D01*
X108684986Y-93891382D02*
X108792736Y-93999131D01*
X108792736Y-93999131D02*
X108873548Y-94026069D01*
X108873548Y-94026069D02*
X108927423Y-94026069D01*
X108927423Y-94026069D02*
X109008235Y-93999131D01*
X140816053Y-92101950D02*
X140789115Y-92021138D01*
X140789115Y-92021138D02*
X140708303Y-91940326D01*
X140708303Y-91940326D02*
X140600553Y-91886451D01*
X140600553Y-91886451D02*
X140492804Y-91886451D01*
X140492804Y-91886451D02*
X140411992Y-91913389D01*
X140411992Y-91913389D02*
X140277305Y-91994201D01*
X140277305Y-91994201D02*
X140196492Y-92075013D01*
X140196492Y-92075013D02*
X140115680Y-92209700D01*
X140115680Y-92209700D02*
X140088743Y-92290512D01*
X140088743Y-92290512D02*
X140088743Y-92398262D01*
X140088743Y-92398262D02*
X140142618Y-92506011D01*
X140142618Y-92506011D02*
X140196492Y-92559886D01*
X140196492Y-92559886D02*
X140304242Y-92613761D01*
X140304242Y-92613761D02*
X140358117Y-92613761D01*
X140358117Y-92613761D02*
X140546679Y-92425199D01*
X140546679Y-92425199D02*
X140438929Y-92317450D01*
X140546679Y-92910072D02*
X141112364Y-92344387D01*
X141112364Y-92344387D02*
X140869927Y-93233321D01*
X140869927Y-93233321D02*
X141435613Y-92667636D01*
X141139301Y-93502695D02*
X141704987Y-92937010D01*
X141704987Y-92937010D02*
X141839674Y-93071697D01*
X141839674Y-93071697D02*
X141893549Y-93179446D01*
X141893549Y-93179446D02*
X141893549Y-93287196D01*
X141893549Y-93287196D02*
X141866611Y-93368008D01*
X141866611Y-93368008D02*
X141785799Y-93502695D01*
X141785799Y-93502695D02*
X141704987Y-93583507D01*
X141704987Y-93583507D02*
X141570300Y-93664319D01*
X141570300Y-93664319D02*
X141489488Y-93691257D01*
X141489488Y-93691257D02*
X141381738Y-93691257D01*
X141381738Y-93691257D02*
X141273988Y-93637382D01*
X141273988Y-93637382D02*
X141139301Y-93502695D01*
X120522990Y-66528888D02*
X120496053Y-66448075D01*
X120496053Y-66448075D02*
X120415240Y-66367263D01*
X120415240Y-66367263D02*
X120307491Y-66313388D01*
X120307491Y-66313388D02*
X120199741Y-66313388D01*
X120199741Y-66313388D02*
X120118929Y-66340326D01*
X120118929Y-66340326D02*
X119984242Y-66421138D01*
X119984242Y-66421138D02*
X119903430Y-66501950D01*
X119903430Y-66501950D02*
X119822617Y-66636637D01*
X119822617Y-66636637D02*
X119795680Y-66717449D01*
X119795680Y-66717449D02*
X119795680Y-66825199D01*
X119795680Y-66825199D02*
X119849555Y-66932949D01*
X119849555Y-66932949D02*
X119903430Y-66986823D01*
X119903430Y-66986823D02*
X120011179Y-67040698D01*
X120011179Y-67040698D02*
X120065054Y-67040698D01*
X120065054Y-67040698D02*
X120253616Y-66852136D01*
X120253616Y-66852136D02*
X120145866Y-66744387D01*
X120253616Y-67337010D02*
X120819301Y-66771324D01*
X120819301Y-66771324D02*
X121034801Y-66986823D01*
X121034801Y-66986823D02*
X121061738Y-67067636D01*
X121061738Y-67067636D02*
X121061738Y-67121510D01*
X121061738Y-67121510D02*
X121034801Y-67202323D01*
X121034801Y-67202323D02*
X120953988Y-67283135D01*
X120953988Y-67283135D02*
X120873176Y-67310072D01*
X120873176Y-67310072D02*
X120819301Y-67310072D01*
X120819301Y-67310072D02*
X120738489Y-67283135D01*
X120738489Y-67283135D02*
X120522990Y-67067636D01*
X121223362Y-67660258D02*
X121196425Y-67579446D01*
X121196425Y-67579446D02*
X121196425Y-67525571D01*
X121196425Y-67525571D02*
X121223362Y-67444759D01*
X121223362Y-67444759D02*
X121250300Y-67417822D01*
X121250300Y-67417822D02*
X121331112Y-67390884D01*
X121331112Y-67390884D02*
X121384987Y-67390884D01*
X121384987Y-67390884D02*
X121465799Y-67417822D01*
X121465799Y-67417822D02*
X121573549Y-67525571D01*
X121573549Y-67525571D02*
X121600486Y-67606384D01*
X121600486Y-67606384D02*
X121600486Y-67660258D01*
X121600486Y-67660258D02*
X121573549Y-67741071D01*
X121573549Y-67741071D02*
X121546611Y-67768008D01*
X121546611Y-67768008D02*
X121465799Y-67794945D01*
X121465799Y-67794945D02*
X121411924Y-67794945D01*
X121411924Y-67794945D02*
X121331112Y-67768008D01*
X121331112Y-67768008D02*
X121223362Y-67660258D01*
X121223362Y-67660258D02*
X121142550Y-67633321D01*
X121142550Y-67633321D02*
X121088675Y-67633321D01*
X121088675Y-67633321D02*
X121007863Y-67660258D01*
X121007863Y-67660258D02*
X120900114Y-67768008D01*
X120900114Y-67768008D02*
X120873176Y-67848820D01*
X120873176Y-67848820D02*
X120873176Y-67902695D01*
X120873176Y-67902695D02*
X120900114Y-67983507D01*
X120900114Y-67983507D02*
X121007863Y-68091257D01*
X121007863Y-68091257D02*
X121088675Y-68118194D01*
X121088675Y-68118194D02*
X121142550Y-68118194D01*
X121142550Y-68118194D02*
X121223362Y-68091257D01*
X121223362Y-68091257D02*
X121331112Y-67983507D01*
X121331112Y-67983507D02*
X121358049Y-67902695D01*
X121358049Y-67902695D02*
X121358049Y-67848820D01*
X121358049Y-67848820D02*
X121331112Y-67768008D01*
X145922990Y-66528888D02*
X145896053Y-66448075D01*
X145896053Y-66448075D02*
X145815240Y-66367263D01*
X145815240Y-66367263D02*
X145707491Y-66313388D01*
X145707491Y-66313388D02*
X145599741Y-66313388D01*
X145599741Y-66313388D02*
X145518929Y-66340326D01*
X145518929Y-66340326D02*
X145384242Y-66421138D01*
X145384242Y-66421138D02*
X145303430Y-66501950D01*
X145303430Y-66501950D02*
X145222617Y-66636637D01*
X145222617Y-66636637D02*
X145195680Y-66717449D01*
X145195680Y-66717449D02*
X145195680Y-66825199D01*
X145195680Y-66825199D02*
X145249555Y-66932949D01*
X145249555Y-66932949D02*
X145303430Y-66986823D01*
X145303430Y-66986823D02*
X145411179Y-67040698D01*
X145411179Y-67040698D02*
X145465054Y-67040698D01*
X145465054Y-67040698D02*
X145653616Y-66852136D01*
X145653616Y-66852136D02*
X145545866Y-66744387D01*
X145653616Y-67337010D02*
X146219301Y-66771324D01*
X146219301Y-66771324D02*
X146434801Y-66986823D01*
X146434801Y-66986823D02*
X146461738Y-67067636D01*
X146461738Y-67067636D02*
X146461738Y-67121510D01*
X146461738Y-67121510D02*
X146434801Y-67202323D01*
X146434801Y-67202323D02*
X146353988Y-67283135D01*
X146353988Y-67283135D02*
X146273176Y-67310072D01*
X146273176Y-67310072D02*
X146219301Y-67310072D01*
X146219301Y-67310072D02*
X146138489Y-67283135D01*
X146138489Y-67283135D02*
X145922990Y-67067636D01*
X146892736Y-67444759D02*
X146946611Y-67498634D01*
X146946611Y-67498634D02*
X146973549Y-67579446D01*
X146973549Y-67579446D02*
X146973549Y-67633321D01*
X146973549Y-67633321D02*
X146946611Y-67714133D01*
X146946611Y-67714133D02*
X146865799Y-67848820D01*
X146865799Y-67848820D02*
X146731112Y-67983507D01*
X146731112Y-67983507D02*
X146596425Y-68064319D01*
X146596425Y-68064319D02*
X146515613Y-68091257D01*
X146515613Y-68091257D02*
X146461738Y-68091257D01*
X146461738Y-68091257D02*
X146380926Y-68064319D01*
X146380926Y-68064319D02*
X146327051Y-68010445D01*
X146327051Y-68010445D02*
X146300114Y-67929632D01*
X146300114Y-67929632D02*
X146300114Y-67875758D01*
X146300114Y-67875758D02*
X146327051Y-67794945D01*
X146327051Y-67794945D02*
X146407863Y-67660258D01*
X146407863Y-67660258D02*
X146542550Y-67525571D01*
X146542550Y-67525571D02*
X146677237Y-67444759D01*
X146677237Y-67444759D02*
X146758049Y-67417822D01*
X146758049Y-67417822D02*
X146811924Y-67417822D01*
X146811924Y-67417822D02*
X146892736Y-67444759D01*
X97393615Y-92113513D02*
X97366678Y-92032701D01*
X97366678Y-92032701D02*
X97285866Y-91951889D01*
X97285866Y-91951889D02*
X97178116Y-91898014D01*
X97178116Y-91898014D02*
X97070367Y-91898014D01*
X97070367Y-91898014D02*
X96989554Y-91924951D01*
X96989554Y-91924951D02*
X96854867Y-92005764D01*
X96854867Y-92005764D02*
X96774055Y-92086576D01*
X96774055Y-92086576D02*
X96693243Y-92221263D01*
X96693243Y-92221263D02*
X96666306Y-92302075D01*
X96666306Y-92302075D02*
X96666306Y-92409825D01*
X96666306Y-92409825D02*
X96720180Y-92517574D01*
X96720180Y-92517574D02*
X96774055Y-92571449D01*
X96774055Y-92571449D02*
X96881805Y-92625324D01*
X96881805Y-92625324D02*
X96935680Y-92625324D01*
X96935680Y-92625324D02*
X97124241Y-92436762D01*
X97124241Y-92436762D02*
X97016492Y-92329012D01*
X97124241Y-92921635D02*
X97689927Y-92355950D01*
X97689927Y-92355950D02*
X97905426Y-92571449D01*
X97905426Y-92571449D02*
X97932363Y-92652261D01*
X97932363Y-92652261D02*
X97932363Y-92706136D01*
X97932363Y-92706136D02*
X97905426Y-92786948D01*
X97905426Y-92786948D02*
X97824614Y-92867760D01*
X97824614Y-92867760D02*
X97743802Y-92894698D01*
X97743802Y-92894698D02*
X97689927Y-92894698D01*
X97689927Y-92894698D02*
X97609115Y-92867760D01*
X97609115Y-92867760D02*
X97393615Y-92652261D01*
X97986238Y-93783632D02*
X97662989Y-93460383D01*
X97824614Y-93622008D02*
X98390299Y-93056322D01*
X98390299Y-93056322D02*
X98255612Y-93083260D01*
X98255612Y-93083260D02*
X98147863Y-93083260D01*
X98147863Y-93083260D02*
X98067051Y-93056322D01*
X99036797Y-93702820D02*
X98929048Y-93595070D01*
X98929048Y-93595070D02*
X98848235Y-93568133D01*
X98848235Y-93568133D02*
X98794361Y-93568133D01*
X98794361Y-93568133D02*
X98659673Y-93595070D01*
X98659673Y-93595070D02*
X98524986Y-93675883D01*
X98524986Y-93675883D02*
X98309487Y-93891382D01*
X98309487Y-93891382D02*
X98282550Y-93972194D01*
X98282550Y-93972194D02*
X98282550Y-94026069D01*
X98282550Y-94026069D02*
X98309487Y-94106881D01*
X98309487Y-94106881D02*
X98417237Y-94214631D01*
X98417237Y-94214631D02*
X98498049Y-94241568D01*
X98498049Y-94241568D02*
X98551924Y-94241568D01*
X98551924Y-94241568D02*
X98632736Y-94214631D01*
X98632736Y-94214631D02*
X98767423Y-94079944D01*
X98767423Y-94079944D02*
X98794361Y-93999131D01*
X98794361Y-93999131D02*
X98794361Y-93945257D01*
X98794361Y-93945257D02*
X98767423Y-93864444D01*
X98767423Y-93864444D02*
X98659673Y-93756695D01*
X98659673Y-93756695D02*
X98578861Y-93729757D01*
X98578861Y-93729757D02*
X98524986Y-93729757D01*
X98524986Y-93729757D02*
X98444174Y-93756695D01*
X102716053Y-92101950D02*
X102689115Y-92021138D01*
X102689115Y-92021138D02*
X102608303Y-91940326D01*
X102608303Y-91940326D02*
X102500553Y-91886451D01*
X102500553Y-91886451D02*
X102392804Y-91886451D01*
X102392804Y-91886451D02*
X102311992Y-91913389D01*
X102311992Y-91913389D02*
X102177305Y-91994201D01*
X102177305Y-91994201D02*
X102096492Y-92075013D01*
X102096492Y-92075013D02*
X102015680Y-92209700D01*
X102015680Y-92209700D02*
X101988743Y-92290512D01*
X101988743Y-92290512D02*
X101988743Y-92398262D01*
X101988743Y-92398262D02*
X102042618Y-92506011D01*
X102042618Y-92506011D02*
X102096492Y-92559886D01*
X102096492Y-92559886D02*
X102204242Y-92613761D01*
X102204242Y-92613761D02*
X102258117Y-92613761D01*
X102258117Y-92613761D02*
X102446679Y-92425199D01*
X102446679Y-92425199D02*
X102338929Y-92317450D01*
X102446679Y-92910072D02*
X103012364Y-92344387D01*
X103012364Y-92344387D02*
X102769927Y-93233321D01*
X102769927Y-93233321D02*
X103335613Y-92667636D01*
X103039301Y-93502695D02*
X103604987Y-92937010D01*
X103604987Y-92937010D02*
X103739674Y-93071697D01*
X103739674Y-93071697D02*
X103793549Y-93179446D01*
X103793549Y-93179446D02*
X103793549Y-93287196D01*
X103793549Y-93287196D02*
X103766611Y-93368008D01*
X103766611Y-93368008D02*
X103685799Y-93502695D01*
X103685799Y-93502695D02*
X103604987Y-93583507D01*
X103604987Y-93583507D02*
X103470300Y-93664319D01*
X103470300Y-93664319D02*
X103389488Y-93691257D01*
X103389488Y-93691257D02*
X103281738Y-93691257D01*
X103281738Y-93691257D02*
X103173988Y-93637382D01*
X103173988Y-93637382D02*
X103039301Y-93502695D01*
X130682990Y-66528888D02*
X130656053Y-66448075D01*
X130656053Y-66448075D02*
X130575240Y-66367263D01*
X130575240Y-66367263D02*
X130467491Y-66313388D01*
X130467491Y-66313388D02*
X130359741Y-66313388D01*
X130359741Y-66313388D02*
X130278929Y-66340326D01*
X130278929Y-66340326D02*
X130144242Y-66421138D01*
X130144242Y-66421138D02*
X130063430Y-66501950D01*
X130063430Y-66501950D02*
X129982617Y-66636637D01*
X129982617Y-66636637D02*
X129955680Y-66717449D01*
X129955680Y-66717449D02*
X129955680Y-66825199D01*
X129955680Y-66825199D02*
X130009555Y-66932949D01*
X130009555Y-66932949D02*
X130063430Y-66986823D01*
X130063430Y-66986823D02*
X130171179Y-67040698D01*
X130171179Y-67040698D02*
X130225054Y-67040698D01*
X130225054Y-67040698D02*
X130413616Y-66852136D01*
X130413616Y-66852136D02*
X130305866Y-66744387D01*
X130413616Y-67337010D02*
X130979301Y-66771324D01*
X130979301Y-66771324D02*
X131194801Y-66986823D01*
X131194801Y-66986823D02*
X131221738Y-67067636D01*
X131221738Y-67067636D02*
X131221738Y-67121510D01*
X131221738Y-67121510D02*
X131194801Y-67202323D01*
X131194801Y-67202323D02*
X131113988Y-67283135D01*
X131113988Y-67283135D02*
X131033176Y-67310072D01*
X131033176Y-67310072D02*
X130979301Y-67310072D01*
X130979301Y-67310072D02*
X130898489Y-67283135D01*
X130898489Y-67283135D02*
X130682990Y-67067636D01*
X131814361Y-67606384D02*
X131544987Y-67337010D01*
X131544987Y-67337010D02*
X131248675Y-67579446D01*
X131248675Y-67579446D02*
X131302550Y-67579446D01*
X131302550Y-67579446D02*
X131383362Y-67606384D01*
X131383362Y-67606384D02*
X131518049Y-67741071D01*
X131518049Y-67741071D02*
X131544987Y-67821883D01*
X131544987Y-67821883D02*
X131544987Y-67875758D01*
X131544987Y-67875758D02*
X131518049Y-67956570D01*
X131518049Y-67956570D02*
X131383362Y-68091257D01*
X131383362Y-68091257D02*
X131302550Y-68118194D01*
X131302550Y-68118194D02*
X131248675Y-68118194D01*
X131248675Y-68118194D02*
X131167863Y-68091257D01*
X131167863Y-68091257D02*
X131033176Y-67956570D01*
X131033176Y-67956570D02*
X131006239Y-67875758D01*
X131006239Y-67875758D02*
X131006239Y-67821883D01*
X115416053Y-66501950D02*
X115389115Y-66421138D01*
X115389115Y-66421138D02*
X115308303Y-66340326D01*
X115308303Y-66340326D02*
X115200553Y-66286451D01*
X115200553Y-66286451D02*
X115092804Y-66286451D01*
X115092804Y-66286451D02*
X115011992Y-66313389D01*
X115011992Y-66313389D02*
X114877305Y-66394201D01*
X114877305Y-66394201D02*
X114796492Y-66475013D01*
X114796492Y-66475013D02*
X114715680Y-66609700D01*
X114715680Y-66609700D02*
X114688743Y-66690512D01*
X114688743Y-66690512D02*
X114688743Y-66798262D01*
X114688743Y-66798262D02*
X114742618Y-66906011D01*
X114742618Y-66906011D02*
X114796492Y-66959886D01*
X114796492Y-66959886D02*
X114904242Y-67013761D01*
X114904242Y-67013761D02*
X114958117Y-67013761D01*
X114958117Y-67013761D02*
X115146679Y-66825199D01*
X115146679Y-66825199D02*
X115038929Y-66717450D01*
X115146679Y-67310072D02*
X115712364Y-66744387D01*
X115712364Y-66744387D02*
X115469927Y-67633321D01*
X115469927Y-67633321D02*
X116035613Y-67067636D01*
X115739301Y-67902695D02*
X116304987Y-67337010D01*
X116304987Y-67337010D02*
X116439674Y-67471697D01*
X116439674Y-67471697D02*
X116493549Y-67579446D01*
X116493549Y-67579446D02*
X116493549Y-67687196D01*
X116493549Y-67687196D02*
X116466611Y-67768008D01*
X116466611Y-67768008D02*
X116385799Y-67902695D01*
X116385799Y-67902695D02*
X116304987Y-67983507D01*
X116304987Y-67983507D02*
X116170300Y-68064319D01*
X116170300Y-68064319D02*
X116089488Y-68091257D01*
X116089488Y-68091257D02*
X115981738Y-68091257D01*
X115981738Y-68091257D02*
X115873988Y-68037382D01*
X115873988Y-68037382D02*
X115739301Y-67902695D01*
X122793615Y-92113513D02*
X122766678Y-92032701D01*
X122766678Y-92032701D02*
X122685866Y-91951889D01*
X122685866Y-91951889D02*
X122578116Y-91898014D01*
X122578116Y-91898014D02*
X122470367Y-91898014D01*
X122470367Y-91898014D02*
X122389554Y-91924951D01*
X122389554Y-91924951D02*
X122254867Y-92005764D01*
X122254867Y-92005764D02*
X122174055Y-92086576D01*
X122174055Y-92086576D02*
X122093243Y-92221263D01*
X122093243Y-92221263D02*
X122066306Y-92302075D01*
X122066306Y-92302075D02*
X122066306Y-92409825D01*
X122066306Y-92409825D02*
X122120180Y-92517574D01*
X122120180Y-92517574D02*
X122174055Y-92571449D01*
X122174055Y-92571449D02*
X122281805Y-92625324D01*
X122281805Y-92625324D02*
X122335680Y-92625324D01*
X122335680Y-92625324D02*
X122524241Y-92436762D01*
X122524241Y-92436762D02*
X122416492Y-92329012D01*
X122524241Y-92921635D02*
X123089927Y-92355950D01*
X123089927Y-92355950D02*
X123305426Y-92571449D01*
X123305426Y-92571449D02*
X123332363Y-92652261D01*
X123332363Y-92652261D02*
X123332363Y-92706136D01*
X123332363Y-92706136D02*
X123305426Y-92786948D01*
X123305426Y-92786948D02*
X123224614Y-92867760D01*
X123224614Y-92867760D02*
X123143802Y-92894698D01*
X123143802Y-92894698D02*
X123089927Y-92894698D01*
X123089927Y-92894698D02*
X123009115Y-92867760D01*
X123009115Y-92867760D02*
X122793615Y-92652261D01*
X123574800Y-92948573D02*
X123628675Y-92948573D01*
X123628675Y-92948573D02*
X123709487Y-92975510D01*
X123709487Y-92975510D02*
X123844174Y-93110197D01*
X123844174Y-93110197D02*
X123871112Y-93191009D01*
X123871112Y-93191009D02*
X123871112Y-93244884D01*
X123871112Y-93244884D02*
X123844174Y-93325696D01*
X123844174Y-93325696D02*
X123790299Y-93379571D01*
X123790299Y-93379571D02*
X123682550Y-93433446D01*
X123682550Y-93433446D02*
X123036052Y-93433446D01*
X123036052Y-93433446D02*
X123386238Y-93783632D01*
X124436797Y-93702820D02*
X124329048Y-93595070D01*
X124329048Y-93595070D02*
X124248235Y-93568133D01*
X124248235Y-93568133D02*
X124194361Y-93568133D01*
X124194361Y-93568133D02*
X124059673Y-93595070D01*
X124059673Y-93595070D02*
X123924986Y-93675883D01*
X123924986Y-93675883D02*
X123709487Y-93891382D01*
X123709487Y-93891382D02*
X123682550Y-93972194D01*
X123682550Y-93972194D02*
X123682550Y-94026069D01*
X123682550Y-94026069D02*
X123709487Y-94106881D01*
X123709487Y-94106881D02*
X123817237Y-94214631D01*
X123817237Y-94214631D02*
X123898049Y-94241568D01*
X123898049Y-94241568D02*
X123951924Y-94241568D01*
X123951924Y-94241568D02*
X124032736Y-94214631D01*
X124032736Y-94214631D02*
X124167423Y-94079944D01*
X124167423Y-94079944D02*
X124194361Y-93999131D01*
X124194361Y-93999131D02*
X124194361Y-93945257D01*
X124194361Y-93945257D02*
X124167423Y-93864444D01*
X124167423Y-93864444D02*
X124059673Y-93756695D01*
X124059673Y-93756695D02*
X123978861Y-93729757D01*
X123978861Y-93729757D02*
X123924986Y-93729757D01*
X123924986Y-93729757D02*
X123844174Y-93756695D01*
X119970773Y-92854167D02*
X120051585Y-92396231D01*
X119647524Y-92530918D02*
X120213210Y-91965233D01*
X120213210Y-91965233D02*
X120428709Y-92180732D01*
X120428709Y-92180732D02*
X120455646Y-92261544D01*
X120455646Y-92261544D02*
X120455646Y-92315419D01*
X120455646Y-92315419D02*
X120428709Y-92396231D01*
X120428709Y-92396231D02*
X120347897Y-92477043D01*
X120347897Y-92477043D02*
X120267085Y-92503981D01*
X120267085Y-92503981D02*
X120213210Y-92503981D01*
X120213210Y-92503981D02*
X120132398Y-92477043D01*
X120132398Y-92477043D02*
X119916898Y-92261544D01*
X120778895Y-92530918D02*
X120320959Y-92988854D01*
X120320959Y-92988854D02*
X120294022Y-93069666D01*
X120294022Y-93069666D02*
X120294022Y-93123541D01*
X120294022Y-93123541D02*
X120320959Y-93204353D01*
X120320959Y-93204353D02*
X120428709Y-93312103D01*
X120428709Y-93312103D02*
X120509521Y-93339040D01*
X120509521Y-93339040D02*
X120563396Y-93339040D01*
X120563396Y-93339040D02*
X120644208Y-93312103D01*
X120644208Y-93312103D02*
X121102144Y-92854167D01*
X120805832Y-93689226D02*
X121371518Y-93123541D01*
X121371518Y-93123541D02*
X121129081Y-94012475D01*
X121129081Y-94012475D02*
X121694767Y-93446789D01*
X105013615Y-66005513D02*
X104986678Y-65924701D01*
X104986678Y-65924701D02*
X104905866Y-65843889D01*
X104905866Y-65843889D02*
X104798116Y-65790014D01*
X104798116Y-65790014D02*
X104690367Y-65790014D01*
X104690367Y-65790014D02*
X104609554Y-65816951D01*
X104609554Y-65816951D02*
X104474867Y-65897764D01*
X104474867Y-65897764D02*
X104394055Y-65978576D01*
X104394055Y-65978576D02*
X104313243Y-66113263D01*
X104313243Y-66113263D02*
X104286306Y-66194075D01*
X104286306Y-66194075D02*
X104286306Y-66301825D01*
X104286306Y-66301825D02*
X104340180Y-66409574D01*
X104340180Y-66409574D02*
X104394055Y-66463449D01*
X104394055Y-66463449D02*
X104501805Y-66517324D01*
X104501805Y-66517324D02*
X104555680Y-66517324D01*
X104555680Y-66517324D02*
X104744241Y-66328762D01*
X104744241Y-66328762D02*
X104636492Y-66221012D01*
X104744241Y-66813635D02*
X105309927Y-66247950D01*
X105309927Y-66247950D02*
X105525426Y-66463449D01*
X105525426Y-66463449D02*
X105552363Y-66544261D01*
X105552363Y-66544261D02*
X105552363Y-66598136D01*
X105552363Y-66598136D02*
X105525426Y-66678948D01*
X105525426Y-66678948D02*
X105444614Y-66759760D01*
X105444614Y-66759760D02*
X105363802Y-66786698D01*
X105363802Y-66786698D02*
X105309927Y-66786698D01*
X105309927Y-66786698D02*
X105229115Y-66759760D01*
X105229115Y-66759760D02*
X105013615Y-66544261D01*
X105606238Y-67675632D02*
X105282989Y-67352383D01*
X105444614Y-67514008D02*
X106010299Y-66948322D01*
X106010299Y-66948322D02*
X105875612Y-66975260D01*
X105875612Y-66975260D02*
X105767863Y-66975260D01*
X105767863Y-66975260D02*
X105687051Y-66948322D01*
X106360486Y-67298509D02*
X106710672Y-67648695D01*
X106710672Y-67648695D02*
X106306611Y-67675632D01*
X106306611Y-67675632D02*
X106387423Y-67756444D01*
X106387423Y-67756444D02*
X106414361Y-67837257D01*
X106414361Y-67837257D02*
X106414361Y-67891131D01*
X106414361Y-67891131D02*
X106387423Y-67971944D01*
X106387423Y-67971944D02*
X106252736Y-68106631D01*
X106252736Y-68106631D02*
X106171924Y-68133568D01*
X106171924Y-68133568D02*
X106118049Y-68133568D01*
X106118049Y-68133568D02*
X106037237Y-68106631D01*
X106037237Y-68106631D02*
X105875612Y-67945006D01*
X105875612Y-67945006D02*
X105848675Y-67864194D01*
X105848675Y-67864194D02*
X105848675Y-67810319D01*
X112623615Y-92113513D02*
X112596678Y-92032701D01*
X112596678Y-92032701D02*
X112515866Y-91951889D01*
X112515866Y-91951889D02*
X112408116Y-91898014D01*
X112408116Y-91898014D02*
X112300367Y-91898014D01*
X112300367Y-91898014D02*
X112219554Y-91924951D01*
X112219554Y-91924951D02*
X112084867Y-92005764D01*
X112084867Y-92005764D02*
X112004055Y-92086576D01*
X112004055Y-92086576D02*
X111923243Y-92221263D01*
X111923243Y-92221263D02*
X111896306Y-92302075D01*
X111896306Y-92302075D02*
X111896306Y-92409825D01*
X111896306Y-92409825D02*
X111950180Y-92517574D01*
X111950180Y-92517574D02*
X112004055Y-92571449D01*
X112004055Y-92571449D02*
X112111805Y-92625324D01*
X112111805Y-92625324D02*
X112165680Y-92625324D01*
X112165680Y-92625324D02*
X112354241Y-92436762D01*
X112354241Y-92436762D02*
X112246492Y-92329012D01*
X112354241Y-92921635D02*
X112919927Y-92355950D01*
X112919927Y-92355950D02*
X113135426Y-92571449D01*
X113135426Y-92571449D02*
X113162363Y-92652261D01*
X113162363Y-92652261D02*
X113162363Y-92706136D01*
X113162363Y-92706136D02*
X113135426Y-92786948D01*
X113135426Y-92786948D02*
X113054614Y-92867760D01*
X113054614Y-92867760D02*
X112973802Y-92894698D01*
X112973802Y-92894698D02*
X112919927Y-92894698D01*
X112919927Y-92894698D02*
X112839115Y-92867760D01*
X112839115Y-92867760D02*
X112623615Y-92652261D01*
X113404800Y-92948573D02*
X113458675Y-92948573D01*
X113458675Y-92948573D02*
X113539487Y-92975510D01*
X113539487Y-92975510D02*
X113674174Y-93110197D01*
X113674174Y-93110197D02*
X113701112Y-93191009D01*
X113701112Y-93191009D02*
X113701112Y-93244884D01*
X113701112Y-93244884D02*
X113674174Y-93325696D01*
X113674174Y-93325696D02*
X113620299Y-93379571D01*
X113620299Y-93379571D02*
X113512550Y-93433446D01*
X113512550Y-93433446D02*
X112866052Y-93433446D01*
X112866052Y-93433446D02*
X113216238Y-93783632D01*
X113754986Y-94322380D02*
X113431738Y-93999131D01*
X113593362Y-94160756D02*
X114159048Y-93595070D01*
X114159048Y-93595070D02*
X114024361Y-93622008D01*
X114024361Y-93622008D02*
X113916611Y-93622008D01*
X113916611Y-93622008D02*
X113835799Y-93595070D01*
X145386898Y-91968921D02*
X145009775Y-92723168D01*
X145009775Y-92723168D02*
X145764022Y-92346045D01*
X145871771Y-92992542D02*
X145925646Y-93100292D01*
X145925646Y-93100292D02*
X145925646Y-93154167D01*
X145925646Y-93154167D02*
X145898709Y-93234979D01*
X145898709Y-93234979D02*
X145817896Y-93315791D01*
X145817896Y-93315791D02*
X145737084Y-93342728D01*
X145737084Y-93342728D02*
X145683209Y-93342728D01*
X145683209Y-93342728D02*
X145602397Y-93315791D01*
X145602397Y-93315791D02*
X145386898Y-93100292D01*
X145386898Y-93100292D02*
X145952583Y-92534606D01*
X145952583Y-92534606D02*
X146141145Y-92723168D01*
X146141145Y-92723168D02*
X146168083Y-92803980D01*
X146168083Y-92803980D02*
X146168083Y-92857855D01*
X146168083Y-92857855D02*
X146141145Y-92938667D01*
X146141145Y-92938667D02*
X146087270Y-92992542D01*
X146087270Y-92992542D02*
X146006458Y-93019480D01*
X146006458Y-93019480D02*
X145952583Y-93019480D01*
X145952583Y-93019480D02*
X145871771Y-92992542D01*
X145871771Y-92992542D02*
X145683209Y-92803980D01*
X146518269Y-93100292D02*
X146060333Y-93558228D01*
X146060333Y-93558228D02*
X146033396Y-93639040D01*
X146033396Y-93639040D02*
X146033396Y-93692915D01*
X146033396Y-93692915D02*
X146060333Y-93773727D01*
X146060333Y-93773727D02*
X146168083Y-93881476D01*
X146168083Y-93881476D02*
X146248895Y-93908414D01*
X146248895Y-93908414D02*
X146302770Y-93908414D01*
X146302770Y-93908414D02*
X146383582Y-93881476D01*
X146383582Y-93881476D02*
X146841518Y-93423541D01*
X146545206Y-94204725D02*
X146599081Y-94312475D01*
X146599081Y-94312475D02*
X146733768Y-94447162D01*
X146733768Y-94447162D02*
X146814580Y-94474099D01*
X146814580Y-94474099D02*
X146868455Y-94474099D01*
X146868455Y-94474099D02*
X146949267Y-94447162D01*
X146949267Y-94447162D02*
X147003142Y-94393287D01*
X147003142Y-94393287D02*
X147030079Y-94312475D01*
X147030079Y-94312475D02*
X147030079Y-94258600D01*
X147030079Y-94258600D02*
X147003142Y-94177788D01*
X147003142Y-94177788D02*
X146922330Y-94043101D01*
X146922330Y-94043101D02*
X146895392Y-93962288D01*
X146895392Y-93962288D02*
X146895392Y-93908414D01*
X146895392Y-93908414D02*
X146922330Y-93827601D01*
X146922330Y-93827601D02*
X146976205Y-93773727D01*
X146976205Y-93773727D02*
X147057017Y-93746789D01*
X147057017Y-93746789D02*
X147110892Y-93746789D01*
X147110892Y-93746789D02*
X147191704Y-93773727D01*
X147191704Y-93773727D02*
X147326391Y-93908414D01*
X147326391Y-93908414D02*
X147380266Y-94016163D01*
X102716053Y-66501950D02*
X102689115Y-66421138D01*
X102689115Y-66421138D02*
X102608303Y-66340326D01*
X102608303Y-66340326D02*
X102500553Y-66286451D01*
X102500553Y-66286451D02*
X102392804Y-66286451D01*
X102392804Y-66286451D02*
X102311992Y-66313389D01*
X102311992Y-66313389D02*
X102177305Y-66394201D01*
X102177305Y-66394201D02*
X102096492Y-66475013D01*
X102096492Y-66475013D02*
X102015680Y-66609700D01*
X102015680Y-66609700D02*
X101988743Y-66690512D01*
X101988743Y-66690512D02*
X101988743Y-66798262D01*
X101988743Y-66798262D02*
X102042618Y-66906011D01*
X102042618Y-66906011D02*
X102096492Y-66959886D01*
X102096492Y-66959886D02*
X102204242Y-67013761D01*
X102204242Y-67013761D02*
X102258117Y-67013761D01*
X102258117Y-67013761D02*
X102446679Y-66825199D01*
X102446679Y-66825199D02*
X102338929Y-66717450D01*
X102446679Y-67310072D02*
X103012364Y-66744387D01*
X103012364Y-66744387D02*
X102769927Y-67633321D01*
X102769927Y-67633321D02*
X103335613Y-67067636D01*
X103039301Y-67902695D02*
X103604987Y-67337010D01*
X103604987Y-67337010D02*
X103739674Y-67471697D01*
X103739674Y-67471697D02*
X103793549Y-67579446D01*
X103793549Y-67579446D02*
X103793549Y-67687196D01*
X103793549Y-67687196D02*
X103766611Y-67768008D01*
X103766611Y-67768008D02*
X103685799Y-67902695D01*
X103685799Y-67902695D02*
X103604987Y-67983507D01*
X103604987Y-67983507D02*
X103470300Y-68064319D01*
X103470300Y-68064319D02*
X103389488Y-68091257D01*
X103389488Y-68091257D02*
X103281738Y-68091257D01*
X103281738Y-68091257D02*
X103173988Y-68037382D01*
X103173988Y-68037382D02*
X103039301Y-67902695D01*
X135762990Y-66528888D02*
X135736053Y-66448075D01*
X135736053Y-66448075D02*
X135655240Y-66367263D01*
X135655240Y-66367263D02*
X135547491Y-66313388D01*
X135547491Y-66313388D02*
X135439741Y-66313388D01*
X135439741Y-66313388D02*
X135358929Y-66340326D01*
X135358929Y-66340326D02*
X135224242Y-66421138D01*
X135224242Y-66421138D02*
X135143430Y-66501950D01*
X135143430Y-66501950D02*
X135062617Y-66636637D01*
X135062617Y-66636637D02*
X135035680Y-66717449D01*
X135035680Y-66717449D02*
X135035680Y-66825199D01*
X135035680Y-66825199D02*
X135089555Y-66932949D01*
X135089555Y-66932949D02*
X135143430Y-66986823D01*
X135143430Y-66986823D02*
X135251179Y-67040698D01*
X135251179Y-67040698D02*
X135305054Y-67040698D01*
X135305054Y-67040698D02*
X135493616Y-66852136D01*
X135493616Y-66852136D02*
X135385866Y-66744387D01*
X135493616Y-67337010D02*
X136059301Y-66771324D01*
X136059301Y-66771324D02*
X136274801Y-66986823D01*
X136274801Y-66986823D02*
X136301738Y-67067636D01*
X136301738Y-67067636D02*
X136301738Y-67121510D01*
X136301738Y-67121510D02*
X136274801Y-67202323D01*
X136274801Y-67202323D02*
X136193988Y-67283135D01*
X136193988Y-67283135D02*
X136113176Y-67310072D01*
X136113176Y-67310072D02*
X136059301Y-67310072D01*
X136059301Y-67310072D02*
X135978489Y-67283135D01*
X135978489Y-67283135D02*
X135762990Y-67067636D01*
X136571112Y-67283135D02*
X136921298Y-67633321D01*
X136921298Y-67633321D02*
X136517237Y-67660258D01*
X136517237Y-67660258D02*
X136598049Y-67741071D01*
X136598049Y-67741071D02*
X136624987Y-67821883D01*
X136624987Y-67821883D02*
X136624987Y-67875758D01*
X136624987Y-67875758D02*
X136598049Y-67956570D01*
X136598049Y-67956570D02*
X136463362Y-68091257D01*
X136463362Y-68091257D02*
X136382550Y-68118194D01*
X136382550Y-68118194D02*
X136328675Y-68118194D01*
X136328675Y-68118194D02*
X136247863Y-68091257D01*
X136247863Y-68091257D02*
X136086239Y-67929632D01*
X136086239Y-67929632D02*
X136059301Y-67848820D01*
X136059301Y-67848820D02*
X136059301Y-67794945D01*
X130667615Y-92113513D02*
X130640678Y-92032701D01*
X130640678Y-92032701D02*
X130559866Y-91951889D01*
X130559866Y-91951889D02*
X130452116Y-91898014D01*
X130452116Y-91898014D02*
X130344367Y-91898014D01*
X130344367Y-91898014D02*
X130263554Y-91924951D01*
X130263554Y-91924951D02*
X130128867Y-92005764D01*
X130128867Y-92005764D02*
X130048055Y-92086576D01*
X130048055Y-92086576D02*
X129967243Y-92221263D01*
X129967243Y-92221263D02*
X129940306Y-92302075D01*
X129940306Y-92302075D02*
X129940306Y-92409825D01*
X129940306Y-92409825D02*
X129994180Y-92517574D01*
X129994180Y-92517574D02*
X130048055Y-92571449D01*
X130048055Y-92571449D02*
X130155805Y-92625324D01*
X130155805Y-92625324D02*
X130209680Y-92625324D01*
X130209680Y-92625324D02*
X130398241Y-92436762D01*
X130398241Y-92436762D02*
X130290492Y-92329012D01*
X130398241Y-92921635D02*
X130963927Y-92355950D01*
X130963927Y-92355950D02*
X131179426Y-92571449D01*
X131179426Y-92571449D02*
X131206363Y-92652261D01*
X131206363Y-92652261D02*
X131206363Y-92706136D01*
X131206363Y-92706136D02*
X131179426Y-92786948D01*
X131179426Y-92786948D02*
X131098614Y-92867760D01*
X131098614Y-92867760D02*
X131017802Y-92894698D01*
X131017802Y-92894698D02*
X130963927Y-92894698D01*
X130963927Y-92894698D02*
X130883115Y-92867760D01*
X130883115Y-92867760D02*
X130667615Y-92652261D01*
X131448800Y-92948573D02*
X131502675Y-92948573D01*
X131502675Y-92948573D02*
X131583487Y-92975510D01*
X131583487Y-92975510D02*
X131718174Y-93110197D01*
X131718174Y-93110197D02*
X131745112Y-93191009D01*
X131745112Y-93191009D02*
X131745112Y-93244884D01*
X131745112Y-93244884D02*
X131718174Y-93325696D01*
X131718174Y-93325696D02*
X131664299Y-93379571D01*
X131664299Y-93379571D02*
X131556550Y-93433446D01*
X131556550Y-93433446D02*
X130910052Y-93433446D01*
X130910052Y-93433446D02*
X131260238Y-93783632D01*
X131906736Y-93783632D02*
X131879799Y-93702820D01*
X131879799Y-93702820D02*
X131879799Y-93648945D01*
X131879799Y-93648945D02*
X131906736Y-93568133D01*
X131906736Y-93568133D02*
X131933673Y-93541196D01*
X131933673Y-93541196D02*
X132014486Y-93514258D01*
X132014486Y-93514258D02*
X132068361Y-93514258D01*
X132068361Y-93514258D02*
X132149173Y-93541196D01*
X132149173Y-93541196D02*
X132256922Y-93648945D01*
X132256922Y-93648945D02*
X132283860Y-93729757D01*
X132283860Y-93729757D02*
X132283860Y-93783632D01*
X132283860Y-93783632D02*
X132256922Y-93864444D01*
X132256922Y-93864444D02*
X132229985Y-93891382D01*
X132229985Y-93891382D02*
X132149173Y-93918319D01*
X132149173Y-93918319D02*
X132095298Y-93918319D01*
X132095298Y-93918319D02*
X132014486Y-93891382D01*
X132014486Y-93891382D02*
X131906736Y-93783632D01*
X131906736Y-93783632D02*
X131825924Y-93756695D01*
X131825924Y-93756695D02*
X131772049Y-93756695D01*
X131772049Y-93756695D02*
X131691237Y-93783632D01*
X131691237Y-93783632D02*
X131583487Y-93891382D01*
X131583487Y-93891382D02*
X131556550Y-93972194D01*
X131556550Y-93972194D02*
X131556550Y-94026069D01*
X131556550Y-94026069D02*
X131583487Y-94106881D01*
X131583487Y-94106881D02*
X131691237Y-94214631D01*
X131691237Y-94214631D02*
X131772049Y-94241568D01*
X131772049Y-94241568D02*
X131825924Y-94241568D01*
X131825924Y-94241568D02*
X131906736Y-94214631D01*
X131906736Y-94214631D02*
X132014486Y-94106881D01*
X132014486Y-94106881D02*
X132041423Y-94026069D01*
X132041423Y-94026069D02*
X132041423Y-93972194D01*
X132041423Y-93972194D02*
X132014486Y-93891382D01*
X112633615Y-66005513D02*
X112606678Y-65924701D01*
X112606678Y-65924701D02*
X112525866Y-65843889D01*
X112525866Y-65843889D02*
X112418116Y-65790014D01*
X112418116Y-65790014D02*
X112310367Y-65790014D01*
X112310367Y-65790014D02*
X112229554Y-65816951D01*
X112229554Y-65816951D02*
X112094867Y-65897764D01*
X112094867Y-65897764D02*
X112014055Y-65978576D01*
X112014055Y-65978576D02*
X111933243Y-66113263D01*
X111933243Y-66113263D02*
X111906306Y-66194075D01*
X111906306Y-66194075D02*
X111906306Y-66301825D01*
X111906306Y-66301825D02*
X111960180Y-66409574D01*
X111960180Y-66409574D02*
X112014055Y-66463449D01*
X112014055Y-66463449D02*
X112121805Y-66517324D01*
X112121805Y-66517324D02*
X112175680Y-66517324D01*
X112175680Y-66517324D02*
X112364241Y-66328762D01*
X112364241Y-66328762D02*
X112256492Y-66221012D01*
X112364241Y-66813635D02*
X112929927Y-66247950D01*
X112929927Y-66247950D02*
X113145426Y-66463449D01*
X113145426Y-66463449D02*
X113172363Y-66544261D01*
X113172363Y-66544261D02*
X113172363Y-66598136D01*
X113172363Y-66598136D02*
X113145426Y-66678948D01*
X113145426Y-66678948D02*
X113064614Y-66759760D01*
X113064614Y-66759760D02*
X112983802Y-66786698D01*
X112983802Y-66786698D02*
X112929927Y-66786698D01*
X112929927Y-66786698D02*
X112849115Y-66759760D01*
X112849115Y-66759760D02*
X112633615Y-66544261D01*
X113226238Y-67675632D02*
X112902989Y-67352383D01*
X113064614Y-67514008D02*
X113630299Y-66948322D01*
X113630299Y-66948322D02*
X113495612Y-66975260D01*
X113495612Y-66975260D02*
X113387863Y-66975260D01*
X113387863Y-66975260D02*
X113307051Y-66948322D01*
X114142110Y-67460133D02*
X114195985Y-67514008D01*
X114195985Y-67514008D02*
X114222922Y-67594820D01*
X114222922Y-67594820D02*
X114222922Y-67648695D01*
X114222922Y-67648695D02*
X114195985Y-67729507D01*
X114195985Y-67729507D02*
X114115173Y-67864194D01*
X114115173Y-67864194D02*
X113980486Y-67998881D01*
X113980486Y-67998881D02*
X113845799Y-68079693D01*
X113845799Y-68079693D02*
X113764986Y-68106631D01*
X113764986Y-68106631D02*
X113711112Y-68106631D01*
X113711112Y-68106631D02*
X113630299Y-68079693D01*
X113630299Y-68079693D02*
X113576425Y-68025818D01*
X113576425Y-68025818D02*
X113549487Y-67945006D01*
X113549487Y-67945006D02*
X113549487Y-67891131D01*
X113549487Y-67891131D02*
X113576425Y-67810319D01*
X113576425Y-67810319D02*
X113657237Y-67675632D01*
X113657237Y-67675632D02*
X113791924Y-67540945D01*
X113791924Y-67540945D02*
X113926611Y-67460133D01*
X113926611Y-67460133D02*
X114007423Y-67433196D01*
X114007423Y-67433196D02*
X114061298Y-67433196D01*
X114061298Y-67433196D02*
X114142110Y-67460133D01*
X140816053Y-66501950D02*
X140789115Y-66421138D01*
X140789115Y-66421138D02*
X140708303Y-66340326D01*
X140708303Y-66340326D02*
X140600553Y-66286451D01*
X140600553Y-66286451D02*
X140492804Y-66286451D01*
X140492804Y-66286451D02*
X140411992Y-66313389D01*
X140411992Y-66313389D02*
X140277305Y-66394201D01*
X140277305Y-66394201D02*
X140196492Y-66475013D01*
X140196492Y-66475013D02*
X140115680Y-66609700D01*
X140115680Y-66609700D02*
X140088743Y-66690512D01*
X140088743Y-66690512D02*
X140088743Y-66798262D01*
X140088743Y-66798262D02*
X140142618Y-66906011D01*
X140142618Y-66906011D02*
X140196492Y-66959886D01*
X140196492Y-66959886D02*
X140304242Y-67013761D01*
X140304242Y-67013761D02*
X140358117Y-67013761D01*
X140358117Y-67013761D02*
X140546679Y-66825199D01*
X140546679Y-66825199D02*
X140438929Y-66717450D01*
X140546679Y-67310072D02*
X141112364Y-66744387D01*
X141112364Y-66744387D02*
X140869927Y-67633321D01*
X140869927Y-67633321D02*
X141435613Y-67067636D01*
X141139301Y-67902695D02*
X141704987Y-67337010D01*
X141704987Y-67337010D02*
X141839674Y-67471697D01*
X141839674Y-67471697D02*
X141893549Y-67579446D01*
X141893549Y-67579446D02*
X141893549Y-67687196D01*
X141893549Y-67687196D02*
X141866611Y-67768008D01*
X141866611Y-67768008D02*
X141785799Y-67902695D01*
X141785799Y-67902695D02*
X141704987Y-67983507D01*
X141704987Y-67983507D02*
X141570300Y-68064319D01*
X141570300Y-68064319D02*
X141489488Y-68091257D01*
X141489488Y-68091257D02*
X141381738Y-68091257D01*
X141381738Y-68091257D02*
X141273988Y-68037382D01*
X141273988Y-68037382D02*
X141139301Y-67902695D01*
X105013615Y-92113513D02*
X104986678Y-92032701D01*
X104986678Y-92032701D02*
X104905866Y-91951889D01*
X104905866Y-91951889D02*
X104798116Y-91898014D01*
X104798116Y-91898014D02*
X104690367Y-91898014D01*
X104690367Y-91898014D02*
X104609554Y-91924951D01*
X104609554Y-91924951D02*
X104474867Y-92005764D01*
X104474867Y-92005764D02*
X104394055Y-92086576D01*
X104394055Y-92086576D02*
X104313243Y-92221263D01*
X104313243Y-92221263D02*
X104286306Y-92302075D01*
X104286306Y-92302075D02*
X104286306Y-92409825D01*
X104286306Y-92409825D02*
X104340180Y-92517574D01*
X104340180Y-92517574D02*
X104394055Y-92571449D01*
X104394055Y-92571449D02*
X104501805Y-92625324D01*
X104501805Y-92625324D02*
X104555680Y-92625324D01*
X104555680Y-92625324D02*
X104744241Y-92436762D01*
X104744241Y-92436762D02*
X104636492Y-92329012D01*
X104744241Y-92921635D02*
X105309927Y-92355950D01*
X105309927Y-92355950D02*
X105525426Y-92571449D01*
X105525426Y-92571449D02*
X105552363Y-92652261D01*
X105552363Y-92652261D02*
X105552363Y-92706136D01*
X105552363Y-92706136D02*
X105525426Y-92786948D01*
X105525426Y-92786948D02*
X105444614Y-92867760D01*
X105444614Y-92867760D02*
X105363802Y-92894698D01*
X105363802Y-92894698D02*
X105309927Y-92894698D01*
X105309927Y-92894698D02*
X105229115Y-92867760D01*
X105229115Y-92867760D02*
X105013615Y-92652261D01*
X105606238Y-93783632D02*
X105282989Y-93460383D01*
X105444614Y-93622008D02*
X106010299Y-93056322D01*
X106010299Y-93056322D02*
X105875612Y-93083260D01*
X105875612Y-93083260D02*
X105767863Y-93083260D01*
X105767863Y-93083260D02*
X105687051Y-93056322D01*
X106252736Y-93783632D02*
X106225799Y-93702820D01*
X106225799Y-93702820D02*
X106225799Y-93648945D01*
X106225799Y-93648945D02*
X106252736Y-93568133D01*
X106252736Y-93568133D02*
X106279673Y-93541196D01*
X106279673Y-93541196D02*
X106360486Y-93514258D01*
X106360486Y-93514258D02*
X106414361Y-93514258D01*
X106414361Y-93514258D02*
X106495173Y-93541196D01*
X106495173Y-93541196D02*
X106602922Y-93648945D01*
X106602922Y-93648945D02*
X106629860Y-93729757D01*
X106629860Y-93729757D02*
X106629860Y-93783632D01*
X106629860Y-93783632D02*
X106602922Y-93864444D01*
X106602922Y-93864444D02*
X106575985Y-93891382D01*
X106575985Y-93891382D02*
X106495173Y-93918319D01*
X106495173Y-93918319D02*
X106441298Y-93918319D01*
X106441298Y-93918319D02*
X106360486Y-93891382D01*
X106360486Y-93891382D02*
X106252736Y-93783632D01*
X106252736Y-93783632D02*
X106171924Y-93756695D01*
X106171924Y-93756695D02*
X106118049Y-93756695D01*
X106118049Y-93756695D02*
X106037237Y-93783632D01*
X106037237Y-93783632D02*
X105929487Y-93891382D01*
X105929487Y-93891382D02*
X105902550Y-93972194D01*
X105902550Y-93972194D02*
X105902550Y-94026069D01*
X105902550Y-94026069D02*
X105929487Y-94106881D01*
X105929487Y-94106881D02*
X106037237Y-94214631D01*
X106037237Y-94214631D02*
X106118049Y-94241568D01*
X106118049Y-94241568D02*
X106171924Y-94241568D01*
X106171924Y-94241568D02*
X106252736Y-94214631D01*
X106252736Y-94214631D02*
X106360486Y-94106881D01*
X106360486Y-94106881D02*
X106387423Y-94026069D01*
X106387423Y-94026069D02*
X106387423Y-93972194D01*
X106387423Y-93972194D02*
X106360486Y-93891382D01*
X110093615Y-92113513D02*
X110066678Y-92032701D01*
X110066678Y-92032701D02*
X109985866Y-91951889D01*
X109985866Y-91951889D02*
X109878116Y-91898014D01*
X109878116Y-91898014D02*
X109770367Y-91898014D01*
X109770367Y-91898014D02*
X109689554Y-91924951D01*
X109689554Y-91924951D02*
X109554867Y-92005764D01*
X109554867Y-92005764D02*
X109474055Y-92086576D01*
X109474055Y-92086576D02*
X109393243Y-92221263D01*
X109393243Y-92221263D02*
X109366306Y-92302075D01*
X109366306Y-92302075D02*
X109366306Y-92409825D01*
X109366306Y-92409825D02*
X109420180Y-92517574D01*
X109420180Y-92517574D02*
X109474055Y-92571449D01*
X109474055Y-92571449D02*
X109581805Y-92625324D01*
X109581805Y-92625324D02*
X109635680Y-92625324D01*
X109635680Y-92625324D02*
X109824241Y-92436762D01*
X109824241Y-92436762D02*
X109716492Y-92329012D01*
X109824241Y-92921635D02*
X110389927Y-92355950D01*
X110389927Y-92355950D02*
X110605426Y-92571449D01*
X110605426Y-92571449D02*
X110632363Y-92652261D01*
X110632363Y-92652261D02*
X110632363Y-92706136D01*
X110632363Y-92706136D02*
X110605426Y-92786948D01*
X110605426Y-92786948D02*
X110524614Y-92867760D01*
X110524614Y-92867760D02*
X110443802Y-92894698D01*
X110443802Y-92894698D02*
X110389927Y-92894698D01*
X110389927Y-92894698D02*
X110309115Y-92867760D01*
X110309115Y-92867760D02*
X110093615Y-92652261D01*
X110874800Y-92948573D02*
X110928675Y-92948573D01*
X110928675Y-92948573D02*
X111009487Y-92975510D01*
X111009487Y-92975510D02*
X111144174Y-93110197D01*
X111144174Y-93110197D02*
X111171112Y-93191009D01*
X111171112Y-93191009D02*
X111171112Y-93244884D01*
X111171112Y-93244884D02*
X111144174Y-93325696D01*
X111144174Y-93325696D02*
X111090299Y-93379571D01*
X111090299Y-93379571D02*
X110982550Y-93433446D01*
X110982550Y-93433446D02*
X110336052Y-93433446D01*
X110336052Y-93433446D02*
X110686238Y-93783632D01*
X111602110Y-93568133D02*
X111655985Y-93622008D01*
X111655985Y-93622008D02*
X111682922Y-93702820D01*
X111682922Y-93702820D02*
X111682922Y-93756695D01*
X111682922Y-93756695D02*
X111655985Y-93837507D01*
X111655985Y-93837507D02*
X111575173Y-93972194D01*
X111575173Y-93972194D02*
X111440486Y-94106881D01*
X111440486Y-94106881D02*
X111305799Y-94187693D01*
X111305799Y-94187693D02*
X111224986Y-94214631D01*
X111224986Y-94214631D02*
X111171112Y-94214631D01*
X111171112Y-94214631D02*
X111090299Y-94187693D01*
X111090299Y-94187693D02*
X111036425Y-94133818D01*
X111036425Y-94133818D02*
X111009487Y-94053006D01*
X111009487Y-94053006D02*
X111009487Y-93999131D01*
X111009487Y-93999131D02*
X111036425Y-93918319D01*
X111036425Y-93918319D02*
X111117237Y-93783632D01*
X111117237Y-93783632D02*
X111251924Y-93648945D01*
X111251924Y-93648945D02*
X111386611Y-93568133D01*
X111386611Y-93568133D02*
X111467423Y-93541196D01*
X111467423Y-93541196D02*
X111521298Y-93541196D01*
X111521298Y-93541196D02*
X111602110Y-93568133D01*
X143392990Y-66428888D02*
X143366053Y-66348075D01*
X143366053Y-66348075D02*
X143285240Y-66267263D01*
X143285240Y-66267263D02*
X143177491Y-66213388D01*
X143177491Y-66213388D02*
X143069741Y-66213388D01*
X143069741Y-66213388D02*
X142988929Y-66240326D01*
X142988929Y-66240326D02*
X142854242Y-66321138D01*
X142854242Y-66321138D02*
X142773430Y-66401950D01*
X142773430Y-66401950D02*
X142692617Y-66536637D01*
X142692617Y-66536637D02*
X142665680Y-66617449D01*
X142665680Y-66617449D02*
X142665680Y-66725199D01*
X142665680Y-66725199D02*
X142719555Y-66832949D01*
X142719555Y-66832949D02*
X142773430Y-66886823D01*
X142773430Y-66886823D02*
X142881179Y-66940698D01*
X142881179Y-66940698D02*
X142935054Y-66940698D01*
X142935054Y-66940698D02*
X143123616Y-66752136D01*
X143123616Y-66752136D02*
X143015866Y-66644387D01*
X143123616Y-67237010D02*
X143689301Y-66671324D01*
X143689301Y-66671324D02*
X143904801Y-66886823D01*
X143904801Y-66886823D02*
X143931738Y-66967636D01*
X143931738Y-66967636D02*
X143931738Y-67021510D01*
X143931738Y-67021510D02*
X143904801Y-67102323D01*
X143904801Y-67102323D02*
X143823988Y-67183135D01*
X143823988Y-67183135D02*
X143743176Y-67210072D01*
X143743176Y-67210072D02*
X143689301Y-67210072D01*
X143689301Y-67210072D02*
X143608489Y-67183135D01*
X143608489Y-67183135D02*
X143392990Y-66967636D01*
X143985613Y-68099006D02*
X143662364Y-67775758D01*
X143823988Y-67937382D02*
X144389674Y-67371697D01*
X144389674Y-67371697D02*
X144254987Y-67398634D01*
X144254987Y-67398634D02*
X144147237Y-67398634D01*
X144147237Y-67398634D02*
X144066425Y-67371697D01*
X123092990Y-66628888D02*
X123066053Y-66548075D01*
X123066053Y-66548075D02*
X122985240Y-66467263D01*
X122985240Y-66467263D02*
X122877491Y-66413388D01*
X122877491Y-66413388D02*
X122769741Y-66413388D01*
X122769741Y-66413388D02*
X122688929Y-66440326D01*
X122688929Y-66440326D02*
X122554242Y-66521138D01*
X122554242Y-66521138D02*
X122473430Y-66601950D01*
X122473430Y-66601950D02*
X122392617Y-66736637D01*
X122392617Y-66736637D02*
X122365680Y-66817449D01*
X122365680Y-66817449D02*
X122365680Y-66925199D01*
X122365680Y-66925199D02*
X122419555Y-67032949D01*
X122419555Y-67032949D02*
X122473430Y-67086823D01*
X122473430Y-67086823D02*
X122581179Y-67140698D01*
X122581179Y-67140698D02*
X122635054Y-67140698D01*
X122635054Y-67140698D02*
X122823616Y-66952136D01*
X122823616Y-66952136D02*
X122715866Y-66844387D01*
X122823616Y-67437010D02*
X123389301Y-66871324D01*
X123389301Y-66871324D02*
X123604801Y-67086823D01*
X123604801Y-67086823D02*
X123631738Y-67167636D01*
X123631738Y-67167636D02*
X123631738Y-67221510D01*
X123631738Y-67221510D02*
X123604801Y-67302323D01*
X123604801Y-67302323D02*
X123523988Y-67383135D01*
X123523988Y-67383135D02*
X123443176Y-67410072D01*
X123443176Y-67410072D02*
X123389301Y-67410072D01*
X123389301Y-67410072D02*
X123308489Y-67383135D01*
X123308489Y-67383135D02*
X123092990Y-67167636D01*
X123901112Y-67383135D02*
X124278236Y-67760258D01*
X124278236Y-67760258D02*
X123470114Y-68083507D01*
X135423616Y-91905638D02*
X135773802Y-92255825D01*
X135773802Y-92255825D02*
X135369741Y-92282762D01*
X135369741Y-92282762D02*
X135450553Y-92363574D01*
X135450553Y-92363574D02*
X135477490Y-92444386D01*
X135477490Y-92444386D02*
X135477490Y-92498261D01*
X135477490Y-92498261D02*
X135450553Y-92579073D01*
X135450553Y-92579073D02*
X135315866Y-92713760D01*
X135315866Y-92713760D02*
X135235054Y-92740698D01*
X135235054Y-92740698D02*
X135181179Y-92740698D01*
X135181179Y-92740698D02*
X135100367Y-92713760D01*
X135100367Y-92713760D02*
X134938742Y-92552136D01*
X134938742Y-92552136D02*
X134911805Y-92471324D01*
X134911805Y-92471324D02*
X134911805Y-92417449D01*
X135935426Y-92417449D02*
X135558303Y-93171696D01*
X135558303Y-93171696D02*
X136312550Y-92794573D01*
X136447237Y-92929260D02*
X136797423Y-93279446D01*
X136797423Y-93279446D02*
X136393362Y-93306383D01*
X136393362Y-93306383D02*
X136474174Y-93387195D01*
X136474174Y-93387195D02*
X136501112Y-93468008D01*
X136501112Y-93468008D02*
X136501112Y-93521882D01*
X136501112Y-93521882D02*
X136474174Y-93602695D01*
X136474174Y-93602695D02*
X136339487Y-93737382D01*
X136339487Y-93737382D02*
X136258675Y-93764319D01*
X136258675Y-93764319D02*
X136204800Y-93764319D01*
X136204800Y-93764319D02*
X136123988Y-93737382D01*
X136123988Y-93737382D02*
X135962364Y-93575757D01*
X135962364Y-93575757D02*
X135935426Y-93494945D01*
X135935426Y-93494945D02*
X135935426Y-93441070D01*
X96052000Y-76119524D02*
X96090095Y-76005238D01*
X96090095Y-76005238D02*
X96090095Y-75814762D01*
X96090095Y-75814762D02*
X96052000Y-75738571D01*
X96052000Y-75738571D02*
X96013904Y-75700476D01*
X96013904Y-75700476D02*
X95937714Y-75662381D01*
X95937714Y-75662381D02*
X95861523Y-75662381D01*
X95861523Y-75662381D02*
X95785333Y-75700476D01*
X95785333Y-75700476D02*
X95747238Y-75738571D01*
X95747238Y-75738571D02*
X95709142Y-75814762D01*
X95709142Y-75814762D02*
X95671047Y-75967143D01*
X95671047Y-75967143D02*
X95632952Y-76043333D01*
X95632952Y-76043333D02*
X95594857Y-76081428D01*
X95594857Y-76081428D02*
X95518666Y-76119524D01*
X95518666Y-76119524D02*
X95442476Y-76119524D01*
X95442476Y-76119524D02*
X95366285Y-76081428D01*
X95366285Y-76081428D02*
X95328190Y-76043333D01*
X95328190Y-76043333D02*
X95290095Y-75967143D01*
X95290095Y-75967143D02*
X95290095Y-75776666D01*
X95290095Y-75776666D02*
X95328190Y-75662381D01*
X95290095Y-75395714D02*
X96090095Y-75205238D01*
X96090095Y-75205238D02*
X95518666Y-75052857D01*
X95518666Y-75052857D02*
X96090095Y-74900476D01*
X96090095Y-74900476D02*
X95290095Y-74710000D01*
X96013904Y-73948094D02*
X96052000Y-73986190D01*
X96052000Y-73986190D02*
X96090095Y-74100475D01*
X96090095Y-74100475D02*
X96090095Y-74176666D01*
X96090095Y-74176666D02*
X96052000Y-74290952D01*
X96052000Y-74290952D02*
X95975809Y-74367142D01*
X95975809Y-74367142D02*
X95899619Y-74405237D01*
X95899619Y-74405237D02*
X95747238Y-74443333D01*
X95747238Y-74443333D02*
X95632952Y-74443333D01*
X95632952Y-74443333D02*
X95480571Y-74405237D01*
X95480571Y-74405237D02*
X95404380Y-74367142D01*
X95404380Y-74367142D02*
X95328190Y-74290952D01*
X95328190Y-74290952D02*
X95290095Y-74176666D01*
X95290095Y-74176666D02*
X95290095Y-74100475D01*
X95290095Y-74100475D02*
X95328190Y-73986190D01*
X95328190Y-73986190D02*
X95366285Y-73948094D01*
X96090095Y-73224285D02*
X96090095Y-73605237D01*
X96090095Y-73605237D02*
X95290095Y-73605237D01*
X96090095Y-72957618D02*
X95290095Y-72957618D01*
X96090095Y-72500475D02*
X95632952Y-72843333D01*
X95290095Y-72500475D02*
X95747238Y-72957618D01*
X125602990Y-66528888D02*
X125576053Y-66448075D01*
X125576053Y-66448075D02*
X125495240Y-66367263D01*
X125495240Y-66367263D02*
X125387491Y-66313388D01*
X125387491Y-66313388D02*
X125279741Y-66313388D01*
X125279741Y-66313388D02*
X125198929Y-66340326D01*
X125198929Y-66340326D02*
X125064242Y-66421138D01*
X125064242Y-66421138D02*
X124983430Y-66501950D01*
X124983430Y-66501950D02*
X124902617Y-66636637D01*
X124902617Y-66636637D02*
X124875680Y-66717449D01*
X124875680Y-66717449D02*
X124875680Y-66825199D01*
X124875680Y-66825199D02*
X124929555Y-66932949D01*
X124929555Y-66932949D02*
X124983430Y-66986823D01*
X124983430Y-66986823D02*
X125091179Y-67040698D01*
X125091179Y-67040698D02*
X125145054Y-67040698D01*
X125145054Y-67040698D02*
X125333616Y-66852136D01*
X125333616Y-66852136D02*
X125225866Y-66744387D01*
X125333616Y-67337010D02*
X125899301Y-66771324D01*
X125899301Y-66771324D02*
X126114801Y-66986823D01*
X126114801Y-66986823D02*
X126141738Y-67067636D01*
X126141738Y-67067636D02*
X126141738Y-67121510D01*
X126141738Y-67121510D02*
X126114801Y-67202323D01*
X126114801Y-67202323D02*
X126033988Y-67283135D01*
X126033988Y-67283135D02*
X125953176Y-67310072D01*
X125953176Y-67310072D02*
X125899301Y-67310072D01*
X125899301Y-67310072D02*
X125818489Y-67283135D01*
X125818489Y-67283135D02*
X125602990Y-67067636D01*
X126707423Y-67579446D02*
X126599674Y-67471697D01*
X126599674Y-67471697D02*
X126518862Y-67444759D01*
X126518862Y-67444759D02*
X126464987Y-67444759D01*
X126464987Y-67444759D02*
X126330300Y-67471697D01*
X126330300Y-67471697D02*
X126195613Y-67552509D01*
X126195613Y-67552509D02*
X125980114Y-67768008D01*
X125980114Y-67768008D02*
X125953176Y-67848820D01*
X125953176Y-67848820D02*
X125953176Y-67902695D01*
X125953176Y-67902695D02*
X125980114Y-67983507D01*
X125980114Y-67983507D02*
X126087863Y-68091257D01*
X126087863Y-68091257D02*
X126168675Y-68118194D01*
X126168675Y-68118194D02*
X126222550Y-68118194D01*
X126222550Y-68118194D02*
X126303362Y-68091257D01*
X126303362Y-68091257D02*
X126438049Y-67956570D01*
X126438049Y-67956570D02*
X126464987Y-67875758D01*
X126464987Y-67875758D02*
X126464987Y-67821883D01*
X126464987Y-67821883D02*
X126438049Y-67741071D01*
X126438049Y-67741071D02*
X126330300Y-67633321D01*
X126330300Y-67633321D02*
X126249488Y-67606384D01*
X126249488Y-67606384D02*
X126195613Y-67606384D01*
X126195613Y-67606384D02*
X126114801Y-67633321D01*
X97393615Y-66005513D02*
X97366678Y-65924701D01*
X97366678Y-65924701D02*
X97285866Y-65843889D01*
X97285866Y-65843889D02*
X97178116Y-65790014D01*
X97178116Y-65790014D02*
X97070367Y-65790014D01*
X97070367Y-65790014D02*
X96989554Y-65816951D01*
X96989554Y-65816951D02*
X96854867Y-65897764D01*
X96854867Y-65897764D02*
X96774055Y-65978576D01*
X96774055Y-65978576D02*
X96693243Y-66113263D01*
X96693243Y-66113263D02*
X96666306Y-66194075D01*
X96666306Y-66194075D02*
X96666306Y-66301825D01*
X96666306Y-66301825D02*
X96720180Y-66409574D01*
X96720180Y-66409574D02*
X96774055Y-66463449D01*
X96774055Y-66463449D02*
X96881805Y-66517324D01*
X96881805Y-66517324D02*
X96935680Y-66517324D01*
X96935680Y-66517324D02*
X97124241Y-66328762D01*
X97124241Y-66328762D02*
X97016492Y-66221012D01*
X97124241Y-66813635D02*
X97689927Y-66247950D01*
X97689927Y-66247950D02*
X97905426Y-66463449D01*
X97905426Y-66463449D02*
X97932363Y-66544261D01*
X97932363Y-66544261D02*
X97932363Y-66598136D01*
X97932363Y-66598136D02*
X97905426Y-66678948D01*
X97905426Y-66678948D02*
X97824614Y-66759760D01*
X97824614Y-66759760D02*
X97743802Y-66786698D01*
X97743802Y-66786698D02*
X97689927Y-66786698D01*
X97689927Y-66786698D02*
X97609115Y-66759760D01*
X97609115Y-66759760D02*
X97393615Y-66544261D01*
X97986238Y-67675632D02*
X97662989Y-67352383D01*
X97824614Y-67514008D02*
X98390299Y-66948322D01*
X98390299Y-66948322D02*
X98255612Y-66975260D01*
X98255612Y-66975260D02*
X98147863Y-66975260D01*
X98147863Y-66975260D02*
X98067051Y-66948322D01*
X99063735Y-67621757D02*
X98794361Y-67352383D01*
X98794361Y-67352383D02*
X98498049Y-67594820D01*
X98498049Y-67594820D02*
X98551924Y-67594820D01*
X98551924Y-67594820D02*
X98632736Y-67621757D01*
X98632736Y-67621757D02*
X98767423Y-67756444D01*
X98767423Y-67756444D02*
X98794361Y-67837257D01*
X98794361Y-67837257D02*
X98794361Y-67891131D01*
X98794361Y-67891131D02*
X98767423Y-67971944D01*
X98767423Y-67971944D02*
X98632736Y-68106631D01*
X98632736Y-68106631D02*
X98551924Y-68133568D01*
X98551924Y-68133568D02*
X98498049Y-68133568D01*
X98498049Y-68133568D02*
X98417237Y-68106631D01*
X98417237Y-68106631D02*
X98282550Y-67971944D01*
X98282550Y-67971944D02*
X98255612Y-67891131D01*
X98255612Y-67891131D02*
X98255612Y-67837257D01*
X125323615Y-92113513D02*
X125296678Y-92032701D01*
X125296678Y-92032701D02*
X125215866Y-91951889D01*
X125215866Y-91951889D02*
X125108116Y-91898014D01*
X125108116Y-91898014D02*
X125000367Y-91898014D01*
X125000367Y-91898014D02*
X124919554Y-91924951D01*
X124919554Y-91924951D02*
X124784867Y-92005764D01*
X124784867Y-92005764D02*
X124704055Y-92086576D01*
X124704055Y-92086576D02*
X124623243Y-92221263D01*
X124623243Y-92221263D02*
X124596306Y-92302075D01*
X124596306Y-92302075D02*
X124596306Y-92409825D01*
X124596306Y-92409825D02*
X124650180Y-92517574D01*
X124650180Y-92517574D02*
X124704055Y-92571449D01*
X124704055Y-92571449D02*
X124811805Y-92625324D01*
X124811805Y-92625324D02*
X124865680Y-92625324D01*
X124865680Y-92625324D02*
X125054241Y-92436762D01*
X125054241Y-92436762D02*
X124946492Y-92329012D01*
X125054241Y-92921635D02*
X125619927Y-92355950D01*
X125619927Y-92355950D02*
X125835426Y-92571449D01*
X125835426Y-92571449D02*
X125862363Y-92652261D01*
X125862363Y-92652261D02*
X125862363Y-92706136D01*
X125862363Y-92706136D02*
X125835426Y-92786948D01*
X125835426Y-92786948D02*
X125754614Y-92867760D01*
X125754614Y-92867760D02*
X125673802Y-92894698D01*
X125673802Y-92894698D02*
X125619927Y-92894698D01*
X125619927Y-92894698D02*
X125539115Y-92867760D01*
X125539115Y-92867760D02*
X125323615Y-92652261D01*
X126104800Y-92948573D02*
X126158675Y-92948573D01*
X126158675Y-92948573D02*
X126239487Y-92975510D01*
X126239487Y-92975510D02*
X126374174Y-93110197D01*
X126374174Y-93110197D02*
X126401112Y-93191009D01*
X126401112Y-93191009D02*
X126401112Y-93244884D01*
X126401112Y-93244884D02*
X126374174Y-93325696D01*
X126374174Y-93325696D02*
X126320299Y-93379571D01*
X126320299Y-93379571D02*
X126212550Y-93433446D01*
X126212550Y-93433446D02*
X125566052Y-93433446D01*
X125566052Y-93433446D02*
X125916238Y-93783632D01*
X126670486Y-93406509D02*
X127047609Y-93783632D01*
X127047609Y-93783632D02*
X126239487Y-94106881D01*
X115416053Y-92101950D02*
X115389115Y-92021138D01*
X115389115Y-92021138D02*
X115308303Y-91940326D01*
X115308303Y-91940326D02*
X115200553Y-91886451D01*
X115200553Y-91886451D02*
X115092804Y-91886451D01*
X115092804Y-91886451D02*
X115011992Y-91913389D01*
X115011992Y-91913389D02*
X114877305Y-91994201D01*
X114877305Y-91994201D02*
X114796492Y-92075013D01*
X114796492Y-92075013D02*
X114715680Y-92209700D01*
X114715680Y-92209700D02*
X114688743Y-92290512D01*
X114688743Y-92290512D02*
X114688743Y-92398262D01*
X114688743Y-92398262D02*
X114742618Y-92506011D01*
X114742618Y-92506011D02*
X114796492Y-92559886D01*
X114796492Y-92559886D02*
X114904242Y-92613761D01*
X114904242Y-92613761D02*
X114958117Y-92613761D01*
X114958117Y-92613761D02*
X115146679Y-92425199D01*
X115146679Y-92425199D02*
X115038929Y-92317450D01*
X115146679Y-92910072D02*
X115712364Y-92344387D01*
X115712364Y-92344387D02*
X115469927Y-93233321D01*
X115469927Y-93233321D02*
X116035613Y-92667636D01*
X115739301Y-93502695D02*
X116304987Y-92937010D01*
X116304987Y-92937010D02*
X116439674Y-93071697D01*
X116439674Y-93071697D02*
X116493549Y-93179446D01*
X116493549Y-93179446D02*
X116493549Y-93287196D01*
X116493549Y-93287196D02*
X116466611Y-93368008D01*
X116466611Y-93368008D02*
X116385799Y-93502695D01*
X116385799Y-93502695D02*
X116304987Y-93583507D01*
X116304987Y-93583507D02*
X116170300Y-93664319D01*
X116170300Y-93664319D02*
X116089488Y-93691257D01*
X116089488Y-93691257D02*
X115981738Y-93691257D01*
X115981738Y-93691257D02*
X115873988Y-93637382D01*
X115873988Y-93637382D02*
X115739301Y-93502695D01*
X137955900Y-91937923D02*
X138306086Y-92288109D01*
X138306086Y-92288109D02*
X137902025Y-92315046D01*
X137902025Y-92315046D02*
X137982837Y-92395859D01*
X137982837Y-92395859D02*
X138009775Y-92476671D01*
X138009775Y-92476671D02*
X138009775Y-92530546D01*
X138009775Y-92530546D02*
X137982837Y-92611358D01*
X137982837Y-92611358D02*
X137848150Y-92746045D01*
X137848150Y-92746045D02*
X137767338Y-92772982D01*
X137767338Y-92772982D02*
X137713463Y-92772982D01*
X137713463Y-92772982D02*
X137632651Y-92746045D01*
X137632651Y-92746045D02*
X137471027Y-92584420D01*
X137471027Y-92584420D02*
X137444089Y-92503608D01*
X137444089Y-92503608D02*
X137444089Y-92449733D01*
X138467711Y-92449733D02*
X138090587Y-93203981D01*
X138090587Y-93203981D02*
X138844834Y-92826857D01*
X138979521Y-92961544D02*
X139329707Y-93311730D01*
X139329707Y-93311730D02*
X138925646Y-93338668D01*
X138925646Y-93338668D02*
X139006458Y-93419480D01*
X139006458Y-93419480D02*
X139033396Y-93500292D01*
X139033396Y-93500292D02*
X139033396Y-93554167D01*
X139033396Y-93554167D02*
X139006458Y-93634979D01*
X139006458Y-93634979D02*
X138871771Y-93769666D01*
X138871771Y-93769666D02*
X138790959Y-93796603D01*
X138790959Y-93796603D02*
X138737084Y-93796603D01*
X138737084Y-93796603D02*
X138656272Y-93769666D01*
X138656272Y-93769666D02*
X138494648Y-93608042D01*
X138494648Y-93608042D02*
X138467710Y-93527229D01*
X138467710Y-93527229D02*
X138467710Y-93473355D01*
X138817897Y-94039040D02*
X139248895Y-94470039D01*
X139733769Y-94254539D02*
X139922330Y-94443101D01*
X139706831Y-94820225D02*
X139437457Y-94550851D01*
X139437457Y-94550851D02*
X140003143Y-93985165D01*
X140003143Y-93985165D02*
X140272517Y-94254539D01*
X139949268Y-95062662D02*
X140514954Y-94496976D01*
X140514954Y-94496976D02*
X140272517Y-95385911D01*
X140272517Y-95385911D02*
X140838202Y-94820225D01*
X117713615Y-92113513D02*
X117686678Y-92032701D01*
X117686678Y-92032701D02*
X117605866Y-91951889D01*
X117605866Y-91951889D02*
X117498116Y-91898014D01*
X117498116Y-91898014D02*
X117390367Y-91898014D01*
X117390367Y-91898014D02*
X117309554Y-91924951D01*
X117309554Y-91924951D02*
X117174867Y-92005764D01*
X117174867Y-92005764D02*
X117094055Y-92086576D01*
X117094055Y-92086576D02*
X117013243Y-92221263D01*
X117013243Y-92221263D02*
X116986306Y-92302075D01*
X116986306Y-92302075D02*
X116986306Y-92409825D01*
X116986306Y-92409825D02*
X117040180Y-92517574D01*
X117040180Y-92517574D02*
X117094055Y-92571449D01*
X117094055Y-92571449D02*
X117201805Y-92625324D01*
X117201805Y-92625324D02*
X117255680Y-92625324D01*
X117255680Y-92625324D02*
X117444241Y-92436762D01*
X117444241Y-92436762D02*
X117336492Y-92329012D01*
X117444241Y-92921635D02*
X118009927Y-92355950D01*
X118009927Y-92355950D02*
X118225426Y-92571449D01*
X118225426Y-92571449D02*
X118252363Y-92652261D01*
X118252363Y-92652261D02*
X118252363Y-92706136D01*
X118252363Y-92706136D02*
X118225426Y-92786948D01*
X118225426Y-92786948D02*
X118144614Y-92867760D01*
X118144614Y-92867760D02*
X118063802Y-92894698D01*
X118063802Y-92894698D02*
X118009927Y-92894698D01*
X118009927Y-92894698D02*
X117929115Y-92867760D01*
X117929115Y-92867760D02*
X117713615Y-92652261D01*
X118494800Y-92948573D02*
X118548675Y-92948573D01*
X118548675Y-92948573D02*
X118629487Y-92975510D01*
X118629487Y-92975510D02*
X118764174Y-93110197D01*
X118764174Y-93110197D02*
X118791112Y-93191009D01*
X118791112Y-93191009D02*
X118791112Y-93244884D01*
X118791112Y-93244884D02*
X118764174Y-93325696D01*
X118764174Y-93325696D02*
X118710299Y-93379571D01*
X118710299Y-93379571D02*
X118602550Y-93433446D01*
X118602550Y-93433446D02*
X117956052Y-93433446D01*
X117956052Y-93433446D02*
X118306238Y-93783632D01*
X119033548Y-93487321D02*
X119087423Y-93487321D01*
X119087423Y-93487321D02*
X119168235Y-93514258D01*
X119168235Y-93514258D02*
X119302922Y-93648945D01*
X119302922Y-93648945D02*
X119329860Y-93729757D01*
X119329860Y-93729757D02*
X119329860Y-93783632D01*
X119329860Y-93783632D02*
X119302922Y-93864444D01*
X119302922Y-93864444D02*
X119249048Y-93918319D01*
X119249048Y-93918319D02*
X119141298Y-93972194D01*
X119141298Y-93972194D02*
X118494800Y-93972194D01*
X118494800Y-93972194D02*
X118844986Y-94322380D01*
X127173244Y-92167389D02*
X127442618Y-92436763D01*
X126957745Y-92275138D02*
X127711992Y-91898015D01*
X127711992Y-91898015D02*
X127334868Y-92652262D01*
X128358489Y-92598387D02*
X128331552Y-92517575D01*
X128331552Y-92517575D02*
X128250740Y-92436762D01*
X128250740Y-92436762D02*
X128142990Y-92382888D01*
X128142990Y-92382888D02*
X128035240Y-92382888D01*
X128035240Y-92382888D02*
X127954428Y-92409825D01*
X127954428Y-92409825D02*
X127819741Y-92490637D01*
X127819741Y-92490637D02*
X127738929Y-92571449D01*
X127738929Y-92571449D02*
X127658117Y-92706136D01*
X127658117Y-92706136D02*
X127631179Y-92786949D01*
X127631179Y-92786949D02*
X127631179Y-92894698D01*
X127631179Y-92894698D02*
X127685054Y-93002448D01*
X127685054Y-93002448D02*
X127738929Y-93056323D01*
X127738929Y-93056323D02*
X127846679Y-93110197D01*
X127846679Y-93110197D02*
X127900553Y-93110197D01*
X127900553Y-93110197D02*
X128089115Y-92921636D01*
X128089115Y-92921636D02*
X127981366Y-92813886D01*
X128089115Y-93406509D02*
X128654801Y-92840823D01*
X128654801Y-92840823D02*
X128412364Y-93729758D01*
X128412364Y-93729758D02*
X128978049Y-93164072D01*
X128681738Y-93999132D02*
X129247423Y-93433446D01*
X129247423Y-93433446D02*
X129382110Y-93568133D01*
X129382110Y-93568133D02*
X129435985Y-93675883D01*
X129435985Y-93675883D02*
X129435985Y-93783632D01*
X129435985Y-93783632D02*
X129409048Y-93864445D01*
X129409048Y-93864445D02*
X129328235Y-93999132D01*
X129328235Y-93999132D02*
X129247423Y-94079944D01*
X129247423Y-94079944D02*
X129112736Y-94160756D01*
X129112736Y-94160756D02*
X129031924Y-94187693D01*
X129031924Y-94187693D02*
X128924174Y-94187693D01*
X128924174Y-94187693D02*
X128816425Y-94133819D01*
X128816425Y-94133819D02*
X128681738Y-93999132D01*
X96052000Y-87305238D02*
X96090095Y-87190952D01*
X96090095Y-87190952D02*
X96090095Y-87000476D01*
X96090095Y-87000476D02*
X96052000Y-86924285D01*
X96052000Y-86924285D02*
X96013904Y-86886190D01*
X96013904Y-86886190D02*
X95937714Y-86848095D01*
X95937714Y-86848095D02*
X95861523Y-86848095D01*
X95861523Y-86848095D02*
X95785333Y-86886190D01*
X95785333Y-86886190D02*
X95747238Y-86924285D01*
X95747238Y-86924285D02*
X95709142Y-87000476D01*
X95709142Y-87000476D02*
X95671047Y-87152857D01*
X95671047Y-87152857D02*
X95632952Y-87229047D01*
X95632952Y-87229047D02*
X95594857Y-87267142D01*
X95594857Y-87267142D02*
X95518666Y-87305238D01*
X95518666Y-87305238D02*
X95442476Y-87305238D01*
X95442476Y-87305238D02*
X95366285Y-87267142D01*
X95366285Y-87267142D02*
X95328190Y-87229047D01*
X95328190Y-87229047D02*
X95290095Y-87152857D01*
X95290095Y-87152857D02*
X95290095Y-86962380D01*
X95290095Y-86962380D02*
X95328190Y-86848095D01*
X95290095Y-86581428D02*
X96090095Y-86390952D01*
X96090095Y-86390952D02*
X95518666Y-86238571D01*
X95518666Y-86238571D02*
X96090095Y-86086190D01*
X96090095Y-86086190D02*
X95290095Y-85895714D01*
X96090095Y-85590951D02*
X95290095Y-85590951D01*
X95290095Y-85590951D02*
X95290095Y-85400475D01*
X95290095Y-85400475D02*
X95328190Y-85286189D01*
X95328190Y-85286189D02*
X95404380Y-85209999D01*
X95404380Y-85209999D02*
X95480571Y-85171904D01*
X95480571Y-85171904D02*
X95632952Y-85133808D01*
X95632952Y-85133808D02*
X95747238Y-85133808D01*
X95747238Y-85133808D02*
X95899619Y-85171904D01*
X95899619Y-85171904D02*
X95975809Y-85209999D01*
X95975809Y-85209999D02*
X96052000Y-85286189D01*
X96052000Y-85286189D02*
X96090095Y-85400475D01*
X96090095Y-85400475D02*
X96090095Y-85590951D01*
X96090095Y-84790951D02*
X95290095Y-84790951D01*
X95290095Y-84257618D02*
X95290095Y-84105237D01*
X95290095Y-84105237D02*
X95328190Y-84029047D01*
X95328190Y-84029047D02*
X95404380Y-83952856D01*
X95404380Y-83952856D02*
X95556761Y-83914761D01*
X95556761Y-83914761D02*
X95823428Y-83914761D01*
X95823428Y-83914761D02*
X95975809Y-83952856D01*
X95975809Y-83952856D02*
X96052000Y-84029047D01*
X96052000Y-84029047D02*
X96090095Y-84105237D01*
X96090095Y-84105237D02*
X96090095Y-84257618D01*
X96090095Y-84257618D02*
X96052000Y-84333809D01*
X96052000Y-84333809D02*
X95975809Y-84409999D01*
X95975809Y-84409999D02*
X95823428Y-84448095D01*
X95823428Y-84448095D02*
X95556761Y-84448095D01*
X95556761Y-84448095D02*
X95404380Y-84409999D01*
X95404380Y-84409999D02*
X95328190Y-84333809D01*
X95328190Y-84333809D02*
X95290095Y-84257618D01*
X128116053Y-66501950D02*
X128089115Y-66421138D01*
X128089115Y-66421138D02*
X128008303Y-66340326D01*
X128008303Y-66340326D02*
X127900553Y-66286451D01*
X127900553Y-66286451D02*
X127792804Y-66286451D01*
X127792804Y-66286451D02*
X127711992Y-66313389D01*
X127711992Y-66313389D02*
X127577305Y-66394201D01*
X127577305Y-66394201D02*
X127496492Y-66475013D01*
X127496492Y-66475013D02*
X127415680Y-66609700D01*
X127415680Y-66609700D02*
X127388743Y-66690512D01*
X127388743Y-66690512D02*
X127388743Y-66798262D01*
X127388743Y-66798262D02*
X127442618Y-66906011D01*
X127442618Y-66906011D02*
X127496492Y-66959886D01*
X127496492Y-66959886D02*
X127604242Y-67013761D01*
X127604242Y-67013761D02*
X127658117Y-67013761D01*
X127658117Y-67013761D02*
X127846679Y-66825199D01*
X127846679Y-66825199D02*
X127738929Y-66717450D01*
X127846679Y-67310072D02*
X128412364Y-66744387D01*
X128412364Y-66744387D02*
X128169927Y-67633321D01*
X128169927Y-67633321D02*
X128735613Y-67067636D01*
X128439301Y-67902695D02*
X129004987Y-67337010D01*
X129004987Y-67337010D02*
X129139674Y-67471697D01*
X129139674Y-67471697D02*
X129193549Y-67579446D01*
X129193549Y-67579446D02*
X129193549Y-67687196D01*
X129193549Y-67687196D02*
X129166611Y-67768008D01*
X129166611Y-67768008D02*
X129085799Y-67902695D01*
X129085799Y-67902695D02*
X129004987Y-67983507D01*
X129004987Y-67983507D02*
X128870300Y-68064319D01*
X128870300Y-68064319D02*
X128789488Y-68091257D01*
X128789488Y-68091257D02*
X128681738Y-68091257D01*
X128681738Y-68091257D02*
X128573988Y-68037382D01*
X128573988Y-68037382D02*
X128439301Y-67902695D01*
X132380434Y-92170579D02*
X132649808Y-92439953D01*
X132164935Y-92278329D02*
X132919182Y-91901205D01*
X132919182Y-91901205D02*
X132542059Y-92655452D01*
X132730620Y-92844014D02*
X133296306Y-92278329D01*
X133296306Y-92278329D02*
X133430993Y-92413016D01*
X133430993Y-92413016D02*
X133484867Y-92520765D01*
X133484867Y-92520765D02*
X133484867Y-92628515D01*
X133484867Y-92628515D02*
X133457930Y-92709327D01*
X133457930Y-92709327D02*
X133377118Y-92844014D01*
X133377118Y-92844014D02*
X133296306Y-92924826D01*
X133296306Y-92924826D02*
X133161619Y-93005638D01*
X133161619Y-93005638D02*
X133080806Y-93032576D01*
X133080806Y-93032576D02*
X132973057Y-93032576D01*
X132973057Y-93032576D02*
X132865307Y-92978701D01*
X132865307Y-92978701D02*
X132730620Y-92844014D01*
X133673429Y-93679073D02*
X133619554Y-93679073D01*
X133619554Y-93679073D02*
X133511805Y-93625199D01*
X133511805Y-93625199D02*
X133457930Y-93571324D01*
X133457930Y-93571324D02*
X133404055Y-93463574D01*
X133404055Y-93463574D02*
X133404055Y-93355825D01*
X133404055Y-93355825D02*
X133430993Y-93275012D01*
X133430993Y-93275012D02*
X133511805Y-93140325D01*
X133511805Y-93140325D02*
X133592617Y-93059513D01*
X133592617Y-93059513D02*
X133727304Y-92978701D01*
X133727304Y-92978701D02*
X133808116Y-92951764D01*
X133808116Y-92951764D02*
X133915866Y-92951764D01*
X133915866Y-92951764D02*
X134023616Y-93005638D01*
X134023616Y-93005638D02*
X134077490Y-93059513D01*
X134077490Y-93059513D02*
X134131365Y-93167263D01*
X134131365Y-93167263D02*
X134131365Y-93221138D01*
X133673429Y-93894573D02*
X134104428Y-94325571D01*
X134777863Y-93759886D02*
X134400739Y-94514133D01*
X134400739Y-94514133D02*
X135154986Y-94137009D01*
X135101111Y-95214505D02*
X135181924Y-94756569D01*
X134777863Y-94891256D02*
X135343548Y-94325571D01*
X135343548Y-94325571D02*
X135559047Y-94541070D01*
X135559047Y-94541070D02*
X135585985Y-94621882D01*
X135585985Y-94621882D02*
X135585985Y-94675757D01*
X135585985Y-94675757D02*
X135559047Y-94756569D01*
X135559047Y-94756569D02*
X135478235Y-94837382D01*
X135478235Y-94837382D02*
X135397423Y-94864319D01*
X135397423Y-94864319D02*
X135343548Y-94864319D01*
X135343548Y-94864319D02*
X135262736Y-94837382D01*
X135262736Y-94837382D02*
X135047237Y-94621882D01*
X135639860Y-95160630D02*
X135828421Y-95349192D01*
X135612922Y-95726316D02*
X135343548Y-95456942D01*
X135343548Y-95456942D02*
X135909234Y-94891256D01*
X135909234Y-94891256D02*
X136178608Y-95160630D01*
X136340232Y-95861003D02*
X136151670Y-95672441D01*
X135855359Y-95968753D02*
X136421044Y-95403067D01*
X136421044Y-95403067D02*
X136690418Y-95672441D01*
%TO.C,Relay*%
X135945713Y-61422619D02*
X135612380Y-60946428D01*
X135374285Y-61422619D02*
X135374285Y-60422619D01*
X135374285Y-60422619D02*
X135755237Y-60422619D01*
X135755237Y-60422619D02*
X135850475Y-60470238D01*
X135850475Y-60470238D02*
X135898094Y-60517857D01*
X135898094Y-60517857D02*
X135945713Y-60613095D01*
X135945713Y-60613095D02*
X135945713Y-60755952D01*
X135945713Y-60755952D02*
X135898094Y-60851190D01*
X135898094Y-60851190D02*
X135850475Y-60898809D01*
X135850475Y-60898809D02*
X135755237Y-60946428D01*
X135755237Y-60946428D02*
X135374285Y-60946428D01*
X136755237Y-61375000D02*
X136659999Y-61422619D01*
X136659999Y-61422619D02*
X136469523Y-61422619D01*
X136469523Y-61422619D02*
X136374285Y-61375000D01*
X136374285Y-61375000D02*
X136326666Y-61279761D01*
X136326666Y-61279761D02*
X136326666Y-60898809D01*
X136326666Y-60898809D02*
X136374285Y-60803571D01*
X136374285Y-60803571D02*
X136469523Y-60755952D01*
X136469523Y-60755952D02*
X136659999Y-60755952D01*
X136659999Y-60755952D02*
X136755237Y-60803571D01*
X136755237Y-60803571D02*
X136802856Y-60898809D01*
X136802856Y-60898809D02*
X136802856Y-60994047D01*
X136802856Y-60994047D02*
X136326666Y-61089285D01*
X137374285Y-61422619D02*
X137279047Y-61375000D01*
X137279047Y-61375000D02*
X137231428Y-61279761D01*
X137231428Y-61279761D02*
X137231428Y-60422619D01*
X138183809Y-61422619D02*
X138183809Y-60898809D01*
X138183809Y-60898809D02*
X138136190Y-60803571D01*
X138136190Y-60803571D02*
X138040952Y-60755952D01*
X138040952Y-60755952D02*
X137850476Y-60755952D01*
X137850476Y-60755952D02*
X137755238Y-60803571D01*
X138183809Y-61375000D02*
X138088571Y-61422619D01*
X138088571Y-61422619D02*
X137850476Y-61422619D01*
X137850476Y-61422619D02*
X137755238Y-61375000D01*
X137755238Y-61375000D02*
X137707619Y-61279761D01*
X137707619Y-61279761D02*
X137707619Y-61184523D01*
X137707619Y-61184523D02*
X137755238Y-61089285D01*
X137755238Y-61089285D02*
X137850476Y-61041666D01*
X137850476Y-61041666D02*
X138088571Y-61041666D01*
X138088571Y-61041666D02*
X138183809Y-60994047D01*
X138564762Y-60755952D02*
X138802857Y-61422619D01*
X139040952Y-60755952D02*
X138802857Y-61422619D01*
X138802857Y-61422619D02*
X138707619Y-61660714D01*
X138707619Y-61660714D02*
X138660000Y-61708333D01*
X138660000Y-61708333D02*
X138564762Y-61755952D01*
D11*
%TO.C,OK*%
X110800000Y-105930000D02*
X110800000Y-107430000D01*
X112050000Y-109930000D02*
X116550000Y-109930000D01*
X116550000Y-103430000D02*
X112050000Y-103430000D01*
X117800000Y-107430000D02*
X117800000Y-105930000D01*
%TO.C,Temp*%
X96010000Y-64830000D02*
X94680000Y-64830000D01*
X96010000Y-63500000D02*
X96010000Y-64830000D01*
X96010000Y-62230000D02*
X96010000Y-54550000D01*
X96010000Y-62230000D02*
X93350000Y-62230000D01*
X96010000Y-54550000D02*
X93350000Y-54550000D01*
X93350000Y-62230000D02*
X93350000Y-54550000D01*
%TO.C,5V*%
X92710000Y-68580000D02*
X85090000Y-68580000D01*
X85090000Y-68580000D02*
X85090000Y-78740000D01*
X92710000Y-78740000D02*
X92710000Y-68580000D01*
X86360000Y-78740000D02*
X86360000Y-68580000D01*
X85090000Y-78740000D02*
X92710000Y-78740000D01*
%TO.C,Temp*%
X100390000Y-64830000D02*
X99060000Y-64830000D01*
X100390000Y-63500000D02*
X100390000Y-64830000D01*
X100390000Y-62230000D02*
X100390000Y-54550000D01*
X100390000Y-62230000D02*
X97730000Y-62230000D01*
X100390000Y-54550000D02*
X97730000Y-54550000D01*
X97730000Y-62230000D02*
X97730000Y-54550000D01*
%TO.C,U*%
X120960000Y-105930000D02*
X120960000Y-107430000D01*
X122210000Y-109930000D02*
X126710000Y-109930000D01*
X126710000Y-103430000D02*
X122210000Y-103430000D01*
X127960000Y-107430000D02*
X127960000Y-105930000D01*
%TO.C,D*%
X131120000Y-105930000D02*
X131120000Y-107430000D01*
X132370000Y-109930000D02*
X136870000Y-109930000D01*
X136870000Y-103430000D02*
X132370000Y-103430000D01*
X138120000Y-107430000D02*
X138120000Y-105930000D01*
%TO.C,Screen*%
X120700000Y-57090000D02*
X120700000Y-58420000D01*
X119370000Y-57090000D02*
X120700000Y-57090000D01*
X118100000Y-57090000D02*
X110420000Y-57090000D01*
X118100000Y-57090000D02*
X118100000Y-59750000D01*
X110420000Y-57090000D02*
X110420000Y-59750000D01*
X118100000Y-59750000D02*
X110420000Y-59750000D01*
%TO.C,L*%
X90480000Y-105930000D02*
X90480000Y-107430000D01*
X91730000Y-109930000D02*
X96230000Y-109930000D01*
X96230000Y-103430000D02*
X91730000Y-103430000D01*
X97480000Y-107430000D02*
X97480000Y-105930000D01*
%TO.C,R*%
X100640000Y-105930000D02*
X100640000Y-107430000D01*
X101890000Y-109930000D02*
X106390000Y-109930000D01*
X106390000Y-103430000D02*
X101890000Y-103430000D01*
X107640000Y-107430000D02*
X107640000Y-105930000D01*
%TO.C,M*%
X110800000Y-98310000D02*
X110800000Y-99810000D01*
X112050000Y-102310000D02*
X116550000Y-102310000D01*
X116550000Y-95810000D02*
X112050000Y-95810000D01*
X117800000Y-99810000D02*
X117800000Y-98310000D01*
%TO.C,N/C Inputs*%
X92710000Y-81280000D02*
X85090000Y-81280000D01*
X92710000Y-81280000D02*
X92710000Y-101600000D01*
X85090000Y-81280000D02*
X85090000Y-101600000D01*
X86360000Y-101600000D02*
X86360000Y-81280000D01*
X85090000Y-101600000D02*
X92710000Y-101600000D01*
%TO.C,REF\u002A\u002A*%
X147420000Y-69510000D02*
X147120000Y-69510000D01*
X147420000Y-69510000D02*
X147420000Y-90510000D01*
X145020000Y-69510000D02*
X144620000Y-69510000D01*
X144753000Y-69510000D02*
X144753000Y-72517000D01*
X142420000Y-69510000D02*
X142020000Y-69510000D01*
X139920000Y-69510000D02*
X139520000Y-69510000D01*
X137320000Y-69510000D02*
X136920000Y-69510000D01*
X134820000Y-69510000D02*
X134420000Y-69510000D01*
X132320000Y-69510000D02*
X131920000Y-69510000D01*
X129720000Y-69510000D02*
X129320000Y-69510000D01*
X127220000Y-69510000D02*
X126820000Y-69510000D01*
X124620000Y-69510000D02*
X124220000Y-69510000D01*
X122120000Y-69510000D02*
X121720000Y-69510000D01*
X119620000Y-69510000D02*
X119220000Y-69510000D01*
X117020000Y-69510000D02*
X116620000Y-69510000D01*
X114520000Y-69510000D02*
X114120000Y-69510000D01*
X111920000Y-69510000D02*
X111520000Y-69510000D01*
X109420000Y-69510000D02*
X109020000Y-69510000D01*
X106820000Y-69510000D02*
X106420000Y-69510000D01*
X104320000Y-69510000D02*
X103920000Y-69510000D01*
X101820000Y-69510000D02*
X101420000Y-69510000D01*
X99220000Y-69510000D02*
X98820000Y-69510000D01*
X144753000Y-72517000D02*
X147420000Y-72517000D01*
X96420000Y-76310000D02*
X96420000Y-69510000D01*
X96420000Y-78510000D02*
X96420000Y-78910000D01*
X96420000Y-81110000D02*
X96420000Y-81510000D01*
X147420000Y-90510000D02*
X147120000Y-90510000D01*
X145020000Y-90510000D02*
X144620000Y-90510000D01*
X142420000Y-90510000D02*
X142020000Y-90510000D01*
X139920000Y-90510000D02*
X139520000Y-90510000D01*
X137320000Y-90510000D02*
X136920000Y-90510000D01*
X134820000Y-90510000D02*
X134420000Y-90510000D01*
X132320000Y-90510000D02*
X131920000Y-90510000D01*
X129720000Y-90510000D02*
X129320000Y-90510000D01*
X127220000Y-90510000D02*
X126820000Y-90510000D01*
X124620000Y-90510000D02*
X124220000Y-90510000D01*
X122120000Y-90510000D02*
X121720000Y-90510000D01*
X119620000Y-90510000D02*
X119220000Y-90510000D01*
X117020000Y-90510000D02*
X116620000Y-90510000D01*
X114520000Y-90510000D02*
X114120000Y-90510000D01*
X111920000Y-90510000D02*
X111520000Y-90510000D01*
X109420000Y-90510000D02*
X109020000Y-90510000D01*
X106820000Y-90510000D02*
X106420000Y-90510000D01*
X104320000Y-90510000D02*
X103920000Y-90510000D01*
X101820000Y-90510000D02*
X101420000Y-90510000D01*
X99220000Y-90510000D02*
X98820000Y-90510000D01*
X96420000Y-90510000D02*
X96420000Y-83710000D01*
%TO.C,Relay*%
X133885000Y-59750000D02*
X133885000Y-58420000D01*
X135215000Y-59750000D02*
X133885000Y-59750000D01*
X136485000Y-59750000D02*
X141625000Y-59750000D01*
X136485000Y-59750000D02*
X136485000Y-57090000D01*
X141625000Y-59750000D02*
X141625000Y-57090000D01*
X136485000Y-57090000D02*
X141625000Y-57090000D01*
%TD*%
M02*
