%TF.GenerationSoftware,KiCad,Pcbnew,7.0.1-0*%
%TF.CreationDate,2024-02-02T12:16:23+01:00*%
%TF.ProjectId,thermostat,74686572-6d6f-4737-9461-742e6b696361,rev?*%
%TF.SameCoordinates,Original*%
%TF.FileFunction,Soldermask,Top*%
%TF.FilePolarity,Negative*%
%FSLAX46Y46*%
G04 Gerber Fmt 4.6, Leading zero omitted, Abs format (unit mm)*
G04 Created by KiCad (PCBNEW 7.0.1-0) date 2024-02-02 12:16:23*
%MOMM*%
%LPD*%
G01*
G04 APERTURE LIST*
%ADD10C,2.000000*%
%ADD11R,1.700000X1.700000*%
%ADD12O,1.700000X1.700000*%
%ADD13R,3.000000X3.000000*%
%ADD14C,3.000000*%
%ADD15O,1.800000X1.800000*%
%ADD16O,1.500000X1.500000*%
%ADD17R,1.700000X3.500000*%
%ADD18R,3.500000X1.700000*%
G04 APERTURE END LIST*
D10*
%TO.C,OK*%
X111050000Y-104430000D03*
X117550000Y-104430000D03*
X111050000Y-108930000D03*
X117550000Y-108930000D03*
%TD*%
D11*
%TO.C,Temp*%
X94680000Y-63500000D03*
D12*
X94680000Y-60960000D03*
X94680000Y-58420000D03*
X94680000Y-55880000D03*
%TD*%
D13*
%TO.C,5V*%
X88900000Y-71120000D03*
D14*
X88900000Y-76200000D03*
%TD*%
D11*
%TO.C,Temp*%
X99060000Y-63500000D03*
D12*
X99060000Y-60960000D03*
X99060000Y-58420000D03*
X99060000Y-55880000D03*
%TD*%
D10*
%TO.C,U*%
X121210000Y-104430000D03*
X127710000Y-104430000D03*
X121210000Y-108930000D03*
X127710000Y-108930000D03*
%TD*%
%TO.C,D*%
X131370000Y-104430000D03*
X137870000Y-104430000D03*
X131370000Y-108930000D03*
X137870000Y-108930000D03*
%TD*%
D11*
%TO.C,Screen*%
X119370000Y-58420000D03*
D12*
X116830000Y-58420000D03*
X114290000Y-58420000D03*
X111750000Y-58420000D03*
%TD*%
D10*
%TO.C,L*%
X90730000Y-104430000D03*
X97230000Y-104430000D03*
X90730000Y-108930000D03*
X97230000Y-108930000D03*
%TD*%
%TO.C,R*%
X100890000Y-104430000D03*
X107390000Y-104430000D03*
X100890000Y-108930000D03*
X107390000Y-108930000D03*
%TD*%
%TO.C,M*%
X111050000Y-96810000D03*
X117550000Y-96810000D03*
X111050000Y-101310000D03*
X117550000Y-101310000D03*
%TD*%
D13*
%TO.C,N/C Inputs*%
X88900000Y-83820000D03*
D14*
X88900000Y-88900000D03*
X88900000Y-93980000D03*
X88900000Y-99060000D03*
%TD*%
D15*
%TO.C,REF\u002A\u002A*%
X145920000Y-77285000D03*
D16*
X142890000Y-77585000D03*
X142890000Y-82435000D03*
D15*
X145920000Y-82735000D03*
D12*
X146050000Y-71120000D03*
D17*
X146050000Y-70220000D03*
D12*
X143510000Y-71120000D03*
D17*
X143510000Y-70220000D03*
D11*
X140970000Y-71120000D03*
D17*
X140970000Y-70220000D03*
D12*
X138430000Y-71120000D03*
D17*
X138430000Y-70220000D03*
D12*
X135890000Y-71120000D03*
D17*
X135890000Y-70220000D03*
D12*
X133350000Y-71120000D03*
D17*
X133350000Y-70220000D03*
D12*
X130810000Y-71120000D03*
D17*
X130810000Y-70220000D03*
D11*
X128270000Y-71120000D03*
D17*
X128270000Y-70220000D03*
D12*
X125730000Y-71120000D03*
D17*
X125730000Y-70220000D03*
D12*
X123190000Y-71120000D03*
D17*
X123190000Y-70220000D03*
D12*
X120650000Y-71120000D03*
D17*
X120650000Y-70220000D03*
D12*
X118110000Y-71120000D03*
D17*
X118110000Y-70220000D03*
D11*
X115570000Y-71120000D03*
D17*
X115570000Y-70220000D03*
D12*
X113030000Y-71120000D03*
D17*
X113030000Y-70220000D03*
D12*
X110490000Y-71120000D03*
D17*
X110490000Y-70220000D03*
D12*
X107950000Y-71120000D03*
D17*
X107950000Y-70220000D03*
D12*
X105410000Y-71120000D03*
D17*
X105410000Y-70220000D03*
D11*
X102870000Y-71120000D03*
D17*
X102870000Y-70220000D03*
D12*
X100330000Y-71120000D03*
D17*
X100330000Y-70220000D03*
D12*
X97790000Y-71120000D03*
D17*
X97790000Y-70220000D03*
D12*
X97790000Y-88900000D03*
D17*
X97790000Y-89800000D03*
D12*
X100330000Y-88900000D03*
D17*
X100330000Y-89800000D03*
D11*
X102870000Y-88900000D03*
D17*
X102870000Y-89800000D03*
D12*
X105410000Y-88900000D03*
D17*
X105410000Y-89800000D03*
D12*
X107950000Y-88900000D03*
D17*
X107950000Y-89800000D03*
D12*
X110490000Y-88900000D03*
D17*
X110490000Y-89800000D03*
D12*
X113030000Y-88900000D03*
D17*
X113030000Y-89800000D03*
D11*
X115570000Y-88900000D03*
D17*
X115570000Y-89800000D03*
D12*
X118110000Y-88900000D03*
D17*
X118110000Y-89800000D03*
D12*
X120650000Y-88900000D03*
D17*
X120650000Y-89800000D03*
D12*
X123190000Y-88900000D03*
D17*
X123190000Y-89800000D03*
D12*
X125730000Y-88900000D03*
D17*
X125730000Y-89800000D03*
D11*
X128270000Y-88900000D03*
D17*
X128270000Y-89800000D03*
D12*
X130810000Y-88900000D03*
D17*
X130810000Y-89800000D03*
D12*
X133350000Y-88900000D03*
D17*
X133350000Y-89800000D03*
D12*
X135890000Y-88900000D03*
D17*
X135890000Y-89800000D03*
D12*
X138430000Y-88900000D03*
D17*
X138430000Y-89800000D03*
D11*
X140970000Y-88900000D03*
D17*
X140970000Y-89800000D03*
D12*
X143510000Y-88900000D03*
D17*
X143510000Y-89800000D03*
D12*
X146050000Y-88900000D03*
D17*
X146050000Y-89800000D03*
D12*
X98020000Y-77470000D03*
D18*
X97120000Y-77470000D03*
D11*
X98020000Y-80010000D03*
D18*
X97120000Y-80010000D03*
D12*
X98020000Y-82550000D03*
D18*
X97120000Y-82550000D03*
%TD*%
D11*
%TO.C,Relay*%
X135215000Y-58420000D03*
D12*
X137755000Y-58420000D03*
X140295000Y-58420000D03*
%TD*%
M02*
