%TF.GenerationSoftware,KiCad,Pcbnew,7.0.1-0*%
%TF.CreationDate,2024-02-02T12:16:22+01:00*%
%TF.ProjectId,thermostat,74686572-6d6f-4737-9461-742e6b696361,rev?*%
%TF.SameCoordinates,Original*%
%TF.FileFunction,Copper,L2,Bot*%
%TF.FilePolarity,Positive*%
%FSLAX46Y46*%
G04 Gerber Fmt 4.6, Leading zero omitted, Abs format (unit mm)*
G04 Created by KiCad (PCBNEW 7.0.1-0) date 2024-02-02 12:16:22*
%MOMM*%
%LPD*%
G01*
G04 APERTURE LIST*
%TA.AperFunction,ComponentPad*%
%ADD10C,2.000000*%
%TD*%
%TA.AperFunction,ComponentPad*%
%ADD11R,1.700000X1.700000*%
%TD*%
%TA.AperFunction,ComponentPad*%
%ADD12O,1.700000X1.700000*%
%TD*%
%TA.AperFunction,ComponentPad*%
%ADD13R,3.000000X3.000000*%
%TD*%
%TA.AperFunction,ComponentPad*%
%ADD14C,3.000000*%
%TD*%
%TA.AperFunction,Conductor*%
%ADD15C,0.250000*%
%TD*%
G04 APERTURE END LIST*
D10*
%TO.P,OK,1*%
%TO.N,N/C*%
X111050000Y-104430000D03*
X117550000Y-104430000D03*
%TO.P,OK,2*%
X111050000Y-108930000D03*
X117550000Y-108930000D03*
%TD*%
D11*
%TO.P,Temp,1*%
%TO.N,N/C*%
X94680000Y-63500000D03*
D12*
%TO.P,Temp,2*%
X94680000Y-60960000D03*
%TO.P,Temp,3*%
X94680000Y-58420000D03*
%TO.P,Temp,4*%
X94680000Y-55880000D03*
%TD*%
D13*
%TO.P,5V,1*%
%TO.N,N/C*%
X88900000Y-71120000D03*
D14*
%TO.P,5V,2*%
X88900000Y-76200000D03*
%TD*%
D11*
%TO.P,Temp,1*%
%TO.N,N/C*%
X99060000Y-63500000D03*
D12*
%TO.P,Temp,2*%
X99060000Y-60960000D03*
%TO.P,Temp,3*%
X99060000Y-58420000D03*
%TO.P,Temp,4*%
X99060000Y-55880000D03*
%TD*%
D10*
%TO.P,U,1*%
%TO.N,N/C*%
X121210000Y-104430000D03*
X127710000Y-104430000D03*
%TO.P,U,2*%
X121210000Y-108930000D03*
X127710000Y-108930000D03*
%TD*%
%TO.P,D,1*%
%TO.N,N/C*%
X131370000Y-104430000D03*
X137870000Y-104430000D03*
%TO.P,D,2*%
X131370000Y-108930000D03*
X137870000Y-108930000D03*
%TD*%
D11*
%TO.P,Screen,1*%
%TO.N,N/C*%
X119370000Y-58420000D03*
D12*
%TO.P,Screen,2*%
X116830000Y-58420000D03*
%TO.P,Screen,3*%
X114290000Y-58420000D03*
%TO.P,Screen,4*%
X111750000Y-58420000D03*
%TD*%
D10*
%TO.P,L,1*%
%TO.N,N/C*%
X90730000Y-104430000D03*
X97230000Y-104430000D03*
%TO.P,L,2*%
X90730000Y-108930000D03*
X97230000Y-108930000D03*
%TD*%
%TO.P,R,1*%
%TO.N,N/C*%
X100890000Y-104430000D03*
X107390000Y-104430000D03*
%TO.P,R,2*%
X100890000Y-108930000D03*
X107390000Y-108930000D03*
%TD*%
%TO.P,M,1*%
%TO.N,N/C*%
X111050000Y-96810000D03*
X117550000Y-96810000D03*
%TO.P,M,2*%
X111050000Y-101310000D03*
X117550000Y-101310000D03*
%TD*%
D13*
%TO.P,N/C Inputs,1*%
%TO.N,N/C*%
X88900000Y-83820000D03*
D14*
%TO.P,N/C Inputs,2*%
X88900000Y-88900000D03*
%TO.P,N/C Inputs,3*%
X88900000Y-93980000D03*
%TO.P,N/C Inputs,4*%
X88900000Y-99060000D03*
%TD*%
D12*
%TO.P,REF\u002A\u002A,1*%
%TO.N,N/C*%
X146050000Y-71120000D03*
%TO.P,REF\u002A\u002A,2*%
X143510000Y-71120000D03*
D11*
%TO.P,REF\u002A\u002A,3*%
X140970000Y-71120000D03*
D12*
%TO.P,REF\u002A\u002A,4*%
X138430000Y-71120000D03*
%TO.P,REF\u002A\u002A,5*%
X135890000Y-71120000D03*
%TO.P,REF\u002A\u002A,6*%
X133350000Y-71120000D03*
%TO.P,REF\u002A\u002A,7*%
X130810000Y-71120000D03*
D11*
%TO.P,REF\u002A\u002A,8*%
X128270000Y-71120000D03*
D12*
%TO.P,REF\u002A\u002A,9*%
X125730000Y-71120000D03*
%TO.P,REF\u002A\u002A,10*%
X123190000Y-71120000D03*
%TO.P,REF\u002A\u002A,11*%
X120650000Y-71120000D03*
%TO.P,REF\u002A\u002A,12*%
X118110000Y-71120000D03*
D11*
%TO.P,REF\u002A\u002A,13*%
X115570000Y-71120000D03*
D12*
%TO.P,REF\u002A\u002A,14*%
X113030000Y-71120000D03*
%TO.P,REF\u002A\u002A,15*%
X110490000Y-71120000D03*
%TO.P,REF\u002A\u002A,16*%
X107950000Y-71120000D03*
%TO.P,REF\u002A\u002A,17*%
X105410000Y-71120000D03*
D11*
%TO.P,REF\u002A\u002A,18*%
X102870000Y-71120000D03*
D12*
%TO.P,REF\u002A\u002A,19*%
X100330000Y-71120000D03*
%TO.P,REF\u002A\u002A,20*%
X97790000Y-71120000D03*
%TO.P,REF\u002A\u002A,21*%
X97790000Y-88900000D03*
%TO.P,REF\u002A\u002A,22*%
X100330000Y-88900000D03*
D11*
%TO.P,REF\u002A\u002A,23*%
X102870000Y-88900000D03*
D12*
%TO.P,REF\u002A\u002A,24*%
X105410000Y-88900000D03*
%TO.P,REF\u002A\u002A,25*%
X107950000Y-88900000D03*
%TO.P,REF\u002A\u002A,26*%
X110490000Y-88900000D03*
%TO.P,REF\u002A\u002A,27*%
X113030000Y-88900000D03*
D11*
%TO.P,REF\u002A\u002A,28*%
X115570000Y-88900000D03*
D12*
%TO.P,REF\u002A\u002A,29*%
X118110000Y-88900000D03*
%TO.P,REF\u002A\u002A,30*%
X120650000Y-88900000D03*
%TO.P,REF\u002A\u002A,31*%
X123190000Y-88900000D03*
%TO.P,REF\u002A\u002A,32*%
X125730000Y-88900000D03*
D11*
%TO.P,REF\u002A\u002A,33*%
X128270000Y-88900000D03*
D12*
%TO.P,REF\u002A\u002A,34*%
X130810000Y-88900000D03*
%TO.P,REF\u002A\u002A,35*%
X133350000Y-88900000D03*
%TO.P,REF\u002A\u002A,36*%
X135890000Y-88900000D03*
%TO.P,REF\u002A\u002A,37*%
X138430000Y-88900000D03*
D11*
%TO.P,REF\u002A\u002A,38*%
X140970000Y-88900000D03*
D12*
%TO.P,REF\u002A\u002A,39*%
X143510000Y-88900000D03*
%TO.P,REF\u002A\u002A,40*%
X146050000Y-88900000D03*
%TO.P,REF\u002A\u002A,41*%
X98020000Y-77470000D03*
D11*
%TO.P,REF\u002A\u002A,42*%
X98020000Y-80010000D03*
D12*
%TO.P,REF\u002A\u002A,43*%
X98020000Y-82550000D03*
%TD*%
D11*
%TO.P,Relay,1*%
%TO.N,N/C*%
X135215000Y-58420000D03*
D12*
%TO.P,Relay,2*%
X137755000Y-58420000D03*
%TO.P,Relay,3*%
X140295000Y-58420000D03*
%TD*%
D15*
%TO.N,*%
X114280000Y-63500000D02*
X99060000Y-63500000D01*
X114290000Y-63490000D02*
X114280000Y-63500000D01*
X114290000Y-58420000D02*
X114290000Y-63490000D01*
X111750000Y-60950000D02*
X111750000Y-58420000D01*
X111760000Y-60960000D02*
X99060000Y-60960000D01*
X111760000Y-60960000D02*
X111750000Y-60950000D01*
%TD*%
M02*
